<svg width="70" height="70" viewBox="0 0 70 70" fill="none" xmlns="http://www.w3.org/2000/svg">
<mask id="mask0_122_2" style="mask-type:alpha" maskUnits="userSpaceOnUse" x="1" y="1" width="68" height="68">
<path d="M33.5574 68.5569C52.0903 69.3539 67.7603 54.9761 68.5574 36.4431C69.3544 17.9102 54.9766 2.24013 36.4436 1.44312C17.9106 0.646107 2.24061 15.0239 1.4436 33.5569C0.646584 52.0898 15.0244 67.7599 33.5574 68.5569Z" fill="url(#paint0_linear_122_2)"/>
</mask>
<g mask="url(#mask0_122_2)">
<g filter="url(#filter0_d_122_2)">
<path d="M33.5574 68.5569C52.0903 69.3539 67.7603 54.9761 68.5574 36.4431C69.3544 17.9102 54.9766 2.24013 36.4436 1.44312C17.9106 0.646107 2.24061 15.0239 1.4436 33.5569C0.646584 52.0898 15.0244 67.7599 33.5574 68.5569Z" fill="url(#paint1_linear_122_2)"/>
</g>
<path d="M34.4533 58.5798C50.1181 59.2535 63.363 47.1008 64.0366 31.4361C64.7103 15.7713 52.5576 2.52638 36.8929 1.85272C21.2281 1.17905 7.98318 13.3317 7.30952 28.9965C6.63585 44.6613 18.7885 57.9062 34.4533 58.5798Z" fill="url(#paint2_linear_122_2)"/>
<g filter="url(#filter1_f_122_2)">
<path fill-rule="evenodd" clip-rule="evenodd" d="M18.9941 54.2001C33.1553 63.2083 51.9376 59.0317 60.9459 44.871C62.7462 42.0412 64.0197 39.0267 64.7923 35.9434C64.3629 40.3669 62.913 44.7591 60.3637 48.7655C51.7109 62.3675 33.6703 66.3796 20.0681 57.7268C13.8697 53.7836 9.66276 47.8906 7.73828 41.3572C10.0995 46.4558 13.9011 50.9599 18.9941 54.2001Z" fill="#69C0FF"/>
</g>
<path d="M34.4918 59.2752C48.0826 59.8596 59.574 49.3159 60.1585 35.7251C60.7429 22.1342 50.1992 10.6429 36.6084 10.0584C23.0175 9.47393 11.5262 20.0177 10.9417 33.6085C10.3572 47.1993 20.901 58.6907 34.4918 59.2752Z" fill="url(#paint3_linear_122_2)"/>
<path d="M-27.8454 35.3213C-32.8649 44.6575 -29.3655 56.2952 -20.0292 61.3147C-10.693 66.3342 0.944652 62.8347 5.96414 53.4985C10.9836 44.1622 7.4842 32.5246 -1.85205 27.5051C-11.1883 22.4856 -22.8259 25.985 -27.8454 35.3213Z" fill="url(#paint4_linear_122_2)"/>
<path d="M94.1703 28.2578C100.556 35.7015 99.6983 46.9123 92.2546 53.2979C84.811 59.6836 73.6002 58.8259 67.2145 51.3822C60.8289 43.9386 61.6866 32.7278 69.1302 26.3422C76.5739 19.9565 87.7847 20.8142 94.1703 28.2578Z" fill="url(#paint5_linear_122_2)"/>
<path d="M24.5596 -25.4232C32.3166 -31.4243 43.4697 -30.0008 49.4708 -22.2438C55.4718 -14.4868 54.0484 -3.3337 46.2914 2.66737C38.5344 8.66844 27.3813 7.24498 21.3802 -0.512018C15.3791 -8.26901 16.8026 -19.4221 24.5596 -25.4232Z" fill="url(#paint6_linear_122_2)"/>
<path d="M23.1957 79.4596C22.7743 89.2579 30.3758 97.5426 40.1741 97.9639C49.9724 98.3853 58.2571 90.7838 58.6784 80.9856C59.0998 71.1873 51.4983 62.9026 41.7001 62.4812C31.9018 62.0599 23.6171 69.6613 23.1957 79.4596Z" fill="url(#paint7_linear_122_2)"/>
<g filter="url(#filter2_f_122_2)">
<path d="M31.4836 61.6469C31.5338 62.5288 33.3618 63.142 35.5666 63.0166C37.7714 62.8911 39.518 62.0745 39.4678 61.1925C39.4176 60.3106 37.5896 59.6974 35.3848 59.8229C33.1801 59.9483 31.4334 60.765 31.4836 61.6469Z" fill="white"/>
</g>
<g style="mix-blend-mode:screen" filter="url(#filter3_f_122_2)">
<path d="M34.2067 25.4484C40.7448 26.0928 46.4138 22.8739 46.8687 18.2588C47.3236 13.6436 42.3921 9.37987 35.854 8.73544C29.3158 8.09102 23.6469 11.3099 23.192 15.9251C22.7371 20.5402 27.6685 24.804 34.2067 25.4484Z" fill="#FFCFCE"/>
</g>
</g>
<defs>
<filter id="filter0_d_122_2" x="-2.58789" y="-4.5885" width="75.1768" height="75.177" filterUnits="userSpaceOnUse" color-interpolation-filters="sRGB">
<feFlood flood-opacity="0" result="BackgroundImageFix"/>
<feColorMatrix in="SourceAlpha" type="matrix" values="0 0 0 0 0 0 0 0 0 0 0 0 0 0 0 0 0 0 127 0" result="hardAlpha"/>
<feOffset dy="-2"/>
<feGaussianBlur stdDeviation="2"/>
<feColorMatrix type="matrix" values="0 0 0 0 1 0 0 0 0 0.630158 0 0 0 0 0.630158 0 0 0 1 0"/>
<feBlend mode="normal" in2="BackgroundImageFix" result="effect1_dropShadow_122_2"/>
<feBlend mode="normal" in="SourceGraphic" in2="effect1_dropShadow_122_2" result="shape"/>
</filter>
<filter id="filter1_f_122_2" x="4.73828" y="32.9434" width="63.0537" height="32.3481" filterUnits="userSpaceOnUse" color-interpolation-filters="sRGB">
<feFlood flood-opacity="0" result="BackgroundImageFix"/>
<feBlend mode="normal" in="SourceGraphic" in2="BackgroundImageFix" result="shape"/>
<feGaussianBlur stdDeviation="1.5" result="effect1_foregroundBlur_122_2"/>
</filter>
<filter id="filter2_f_122_2" x="25.4824" y="53.8066" width="19.9863" height="15.2263" filterUnits="userSpaceOnUse" color-interpolation-filters="sRGB">
<feFlood flood-opacity="0" result="BackgroundImageFix"/>
<feBlend mode="normal" in="SourceGraphic" in2="BackgroundImageFix" result="shape"/>
<feGaussianBlur stdDeviation="3" result="effect1_foregroundBlur_122_2"/>
</filter>
<filter id="filter3_f_122_2" x="18.1631" y="3.65332" width="33.7344" height="26.8772" filterUnits="userSpaceOnUse" color-interpolation-filters="sRGB">
<feFlood flood-opacity="0" result="BackgroundImageFix"/>
<feBlend mode="normal" in="SourceGraphic" in2="BackgroundImageFix" result="shape"/>
<feGaussianBlur stdDeviation="2.5" result="effect1_foregroundBlur_122_2"/>
</filter>
<linearGradient id="paint0_linear_122_2" x1="20.1379" y1="8.34639" x2="44.0646" y2="66.2072" gradientUnits="userSpaceOnUse">
<stop stop-color="#F22427"/>
<stop offset="1" stop-color="#4781FF"/>
</linearGradient>
<linearGradient id="paint1_linear_122_2" x1="29.9362" y1="6.31369" x2="44.0646" y2="66.2072" gradientUnits="userSpaceOnUse">
<stop stop-color="#4DA7FF"/>
<stop offset="1" stop-color="#3271F9"/>
</linearGradient>
<linearGradient id="paint2_linear_122_2" x1="28.9363" y1="3.46946" x2="38.5316" y2="60.4741" gradientUnits="userSpaceOnUse">
<stop stop-color="#8DCFFF"/>
<stop offset="0.743552" stop-color="#2B92F9"/>
<stop offset="1" stop-color="#4C8BFF" stop-opacity="0"/>
</linearGradient>
<linearGradient id="paint3_linear_122_2" x1="30.1694" y1="11.6564" x2="35.5173" y2="58.648" gradientUnits="userSpaceOnUse">
<stop offset="0.349342" stop-color="#FBF9FD"/>
<stop offset="0.889385" stop-color="#9DD0FF"/>
</linearGradient>
<linearGradient id="paint4_linear_122_2" x1="9.74742" y1="40.5511" x2="-28.0715" y2="49.2974" gradientUnits="userSpaceOnUse">
<stop stop-color="white"/>
<stop offset="0.373872" stop-color="#A6D4FF"/>
</linearGradient>
<linearGradient id="paint5_linear_122_2" x1="62.137" y1="40.3051" x2="77.8114" y2="39.7453" gradientUnits="userSpaceOnUse">
<stop stop-color="white"/>
<stop offset="0.601592" stop-color="#A6D4FF"/>
</linearGradient>
<linearGradient id="paint6_linear_122_2" x1="36.9472" y1="5.59717" x2="36.9473" y2="-11.1968" gradientUnits="userSpaceOnUse">
<stop offset="0.0664686" stop-color="white"/>
<stop offset="1" stop-color="#A6E8FF"/>
</linearGradient>
<linearGradient id="paint7_linear_122_2" x1="38.5" y1="52.5001" x2="41" y2="87.5001" gradientUnits="userSpaceOnUse">
<stop offset="0.121378" stop-color="#E2F4FF"/>
<stop offset="0.450348" stop-color="#9FC6FF"/>
</linearGradient>
</defs>
</svg>
