<svg xmlns="http://www.w3.org/2000/svg" width="40" height="40" viewBox="0 0 40 40" fill="none">
  <g clip-path="url(#clip0_4055_1637)">
    <path d="M0 13.5465C0 12.8029 0.262051 12.1726 0.786154 11.6577C1.31077 11.1424 1.94103 10.8849 2.67846 10.8849H5.3559V22.9485H2.67795C1.94103 22.9485 1.31077 22.6911 0.786154 22.1757C0.262051 21.6603 0 21.0306 0 20.2865V13.5465ZM29.7554 2.47056C30.9744 1.29723 32.0795 0.653128 33.0718 0.538256C34.0636 0.423384 34.9421 0.688513 35.7077 1.3321C36.4723 1.9762 37.1241 2.92082 37.6626 4.16544C38.201 5.41056 38.64 6.79877 38.9805 8.32954C39.3294 9.9161 39.5849 11.5218 39.7456 13.1383C39.9154 14.8126 40.0005 16.408 40.0005 17.9249C40.0005 19.4418 39.8944 20.9588 39.6815 22.4757C39.4692 23.9926 39.1574 25.4162 38.7467 26.7475C38.3354 28.0783 37.8538 29.2444 37.301 30.2459C36.7487 31.248 36.1323 31.9921 35.4523 32.4783C34.7723 32.9654 34.0421 33.1367 33.2626 32.9936C32.4836 32.8506 31.6687 32.2926 30.819 31.3193C29.9969 30.3465 28.8846 29.5377 27.4821 28.8936C26.079 28.2501 24.5487 27.7059 22.8913 27.2629C21.2317 26.8187 19.5503 26.4603 17.8538 26.189C16.1533 25.9172 14.5949 25.6742 13.1779 25.4593C11.761 25.2444 10.5779 25.0372 9.62872 24.8367C8.67949 24.6367 8.14769 24.3931 8.03436 24.107V10.6701C8.14769 10.2695 8.59436 9.94031 9.37333 9.68287C10.1528 9.42544 11.1446 9.18185 12.3492 8.95313C13.5533 8.7239 14.9133 8.47364 16.4297 8.20185C17.9942 7.91826 19.5412 7.54552 21.0631 7.08544C22.6464 6.6091 24.1888 6.00613 25.6754 5.28236C27.1702 4.55737 28.5461 3.60927 29.7559 2.47056H29.7554ZM14.4528 28.787C14.5944 29.1306 14.7646 29.5024 14.9626 29.9034C15.1685 30.3434 15.3956 30.7731 15.6431 31.1911C15.9625 31.7336 16.3029 32.2634 16.6636 32.7793C17.1446 33.4665 17.6338 34.1895 18.1297 34.9475C18.6256 35.7065 19.0015 36.3931 19.2559 37.0085C19.5113 37.6239 19.5892 38.1316 19.4897 38.5321C19.3908 38.9331 18.9872 39.1331 18.2785 39.1331H15.8554C15.2887 39.1331 14.7646 39.026 14.2826 38.8116C13.8005 38.5962 13.3405 38.268 12.901 37.8239C12.4621 37.3803 12.0087 36.8152 11.541 36.128C11.0733 35.4408 10.5703 34.6254 10.0318 33.6808C9.38051 32.5936 8.92667 31.6418 8.67179 30.8265C8.41641 30.0106 8.24615 29.3306 8.16154 28.787C8.04821 28.1572 8.04821 27.6136 8.16154 27.1557C8.3882 27.1844 8.65744 27.2413 8.96923 27.3275C9.2241 27.3844 9.5359 27.4557 9.90462 27.5418C10.2728 27.628 10.6979 27.7136 11.1795 27.7998C11.6615 27.9142 12.0933 28.0213 12.4759 28.1213C12.8585 28.2218 13.2056 28.329 13.5174 28.4434C13.8325 28.5487 14.1445 28.6633 14.4528 28.787Z" fill="url(#paint0_linear_4055_1637)"/>
  </g>
  <defs>
    <linearGradient id="paint0_linear_4055_1637" x1="36" y1="-2.00024" x2="-23.8064" y2="27.6729" gradientUnits="userSpaceOnUse">
      <stop stop-color="#49C755"/>
      <stop offset="0.648154" stop-color="#0F9957"/>
    </linearGradient>
    <clipPath id="clip0_4055_1637">
      <rect width="40" height="40" fill="white"/>
    </clipPath>
  </defs>
</svg>