<svg width="21" height="21" viewBox="0 0 21 21" fill="none" xmlns="http://www.w3.org/2000/svg">
<path d="M19.9962 6.4311C19.502 5.25508 18.7861 4.18132 17.8658 3.27801C16.9624 2.35764 15.9057 1.64181 14.7127 1.14754C13.4855 0.619182 12.1902 0.363525 10.8437 0.363525C9.49727 0.363525 8.20195 0.619182 6.9748 1.14754C5.79878 1.64181 4.72502 2.35764 3.82171 3.27801C2.90134 4.19837 2.18551 5.25508 1.69124 6.4311C1.17993 7.65825 0.907227 8.95357 0.907227 10.3V16.3506C0.907227 16.7767 1.1288 17.1516 1.48671 17.3732L2.6116 18.072H4.28189C4.57163 18.072 4.81024 17.8334 4.81024 17.5436V12.0896C4.81024 11.7999 4.57163 11.5613 4.28189 11.5613H2.98656V10.3171C2.98656 5.98796 6.51462 2.45991 10.8437 2.45991C15.1728 2.45991 18.7009 5.98796 18.7009 10.3171V11.5613H17.4056C17.1158 11.5613 16.8772 11.7999 16.8772 12.0896V17.5607C16.8772 17.8504 17.1158 18.089 17.4056 18.089H17.7464C17.1158 18.873 16.1443 19.3673 15.0706 19.3673H12.6333C12.4799 18.856 12.0027 18.4981 11.4403 18.4981H10.2472C9.56545 18.4981 9.00301 19.0605 9.00301 19.7423C9.00301 20.424 9.56545 20.9865 10.2472 20.9865H11.4403C12.0027 20.9865 12.4799 20.6115 12.6333 20.1172H15.0706C16.5875 20.1172 17.9169 19.2991 18.6668 18.089H19.0759L20.2007 17.3902C20.5587 17.1687 20.7802 16.7767 20.7802 16.3676V10.3C20.7802 8.95357 20.5246 7.65825 19.9962 6.4311Z" fill="url(#paint0_linear_341_4691)"/>
<defs>
<linearGradient id="paint0_linear_341_4691" x1="10.7869" y1="-32.9504" x2="10.7867" y2="55.0936" gradientUnits="userSpaceOnUse">
<stop offset="0.371997" stop-color="#F5F6FF"/>
<stop offset="0.892848" stop-color="#F5F6FF" stop-opacity="0"/>
</linearGradient>
</defs>
</svg>
