<svg width="48" height="48" viewBox="0 0 48 48" fill="none" xmlns="http://www.w3.org/2000/svg">
<path fill-rule="evenodd" clip-rule="evenodd" d="M13 42.7001H35C41.6 42.7001 46 39.4001 46 31.7001V16.3C46 8.60005 41.6 5.30005 35 5.30005H13C6.4 5.30005 2 8.60005 2 16.3V31.7001C2 39.4001 6.4 42.7001 13 42.7001ZM18.8502 24.1803C20.2802 25.3463 22.1502 25.9183 23.9982 25.9183C25.8462 25.9183 27.7162 25.3463 29.1242 24.1803L36.0102 18.6803C36.7362 18.1303 36.8462 17.0743 36.2742 16.3703C35.7242 15.6443 34.6682 15.5343 33.9642 16.1063L27.0782 21.6063C25.4062 22.9483 22.5682 22.9483 20.8962 21.6063L14.0102 16.1063C13.667 15.8571 13.241 15.7499 12.8208 15.8072C12.4006 15.8645 12.0187 16.0818 11.7549 16.4138C11.491 16.7457 11.3654 17.1668 11.4044 17.589C11.4434 18.0113 11.6439 18.4022 11.9642 18.6803L18.8502 24.1803Z" fill="#9A2CE3"/>
</svg>
