<svg width="48" height="48" viewBox="0 0 48 48" fill="none" xmlns="http://www.w3.org/2000/svg">
<path d="M24.0002 31.2C31.0694 31.2 36.8002 25.4141 36.8002 18.2769V4H11.2002V18.2769C11.2002 25.4141 16.931 31.2 24.0002 31.2Z" fill="#4781FF"/>
<path opacity="0.4" fill-rule="evenodd" clip-rule="evenodd" d="M2.40051 10.9999C2.40051 10.1162 3.11686 9.3999 4.00051 9.3999H12.0005C12.8842 9.3999 13.6005 10.1162 13.6005 10.9999V20.9999C13.6005 21.8836 12.8842 22.5999 12.0005 22.5999C6.96246 22.5999 2.40051 18.3875 2.40051 10.9999ZM5.69014 12.5999C6.13947 16.4504 8.21215 18.5047 10.4005 19.1622V12.5999H5.69014Z" fill="#4781FF"/>
<path opacity="0.4" fill-rule="evenodd" clip-rule="evenodd" d="M34.4006 10.9999C34.4006 10.1162 35.117 9.3999 36.0006 9.3999H44.0006C44.8843 9.3999 45.6006 10.1162 45.6006 10.9999C45.6006 18.3875 41.0387 22.5999 36.0006 22.5999C35.117 22.5999 34.4006 21.8836 34.4006 20.9999V10.9999ZM37.6006 12.5999V19.1622C39.789 18.5047 41.8617 16.4504 42.311 12.5999H37.6006Z" fill="#4781FF"/>
<path opacity="0.4" fill-rule="evenodd" clip-rule="evenodd" d="M24.0006 28.8C24.8843 28.8 25.6006 29.6756 25.6006 30.7556V35.6445C25.6006 36.7245 24.8843 37.6 24.0006 37.6C23.117 37.6 22.4006 36.7245 22.4006 35.6445V30.7556C22.4006 29.6756 23.117 28.8 24.0006 28.8Z" fill="#4781FF"/>
<path d="M16.5949 43.6C15.1182 43.6 14.1508 42.0548 14.7957 40.7265L16.5436 37.1265C16.8782 36.4374 17.5768 36 18.3428 36H29.4296C30.1753 36 30.8591 36.4149 31.2035 37.0763L33.0781 40.6763C33.7714 42.0078 32.8053 43.6 31.3042 43.6H16.5949Z" fill="#4781FF"/>
</svg>
