<svg width="48" height="48" viewBox="0 0 48 48" fill="none" xmlns="http://www.w3.org/2000/svg">
<ellipse cx="24" cy="24.005" rx="18" ry="17.8488" stroke="#4781FF"/>
<path fill-rule="evenodd" clip-rule="evenodd" d="M24 41.8538C33.9411 41.8538 42 33.8626 42 24.005C42 14.1474 33.9411 6.15625 24 6.15625C14.0589 6.15625 6 14.1474 6 24.005C6 33.8626 14.0589 41.8538 24 41.8538ZM27.695 20.2582C29.1348 21.6473 30.605 23.0657 30.9686 24.2357C31.8261 26.9953 30.214 29.1047 27.5731 29.1047C26.3543 29.1047 25.5007 28.5988 24.9348 28.0538C24.8988 28.3954 24.9022 28.8583 25.0286 29.3597C25.2343 30.1757 25.8001 30.8896 26.0572 31.1446V31.6546H21.9429V31.1446C22.2001 30.8896 22.6806 30.2252 22.9715 29.3597C23.1357 28.8713 23.1601 28.383 23.1117 28.0273C22.5608 28.5822 21.7345 29.1047 20.5764 29.1047C18.107 29.1047 16.0833 27.1281 17.0437 24.2357C17.4482 23.0175 18.9112 21.6047 20.3334 20.2313C20.6173 19.9571 20.8996 19.6846 21.1715 19.4154C22.613 17.9885 23.7554 16.6492 23.9699 16.3978C23.9935 16.3701 24.0058 16.3556 24.0061 16.3556C24.0064 16.3556 24.0181 16.3694 24.0404 16.3959C24.2493 16.6429 25.3886 17.9907 26.8286 19.4154C27.1097 19.6935 27.4019 19.9754 27.695 20.2582Z" fill="#4781FF"/>
<path d="M18.4807 7.06917C18.445 6.91493 18.5368 6.76114 18.6893 6.72516C19.2222 6.59948 20.5023 6.32678 22.2283 6.15328C23.9543 5.97978 25.2635 5.99219 25.811 6.00927C25.9677 6.01417 26.0887 6.14656 26.085 6.30476L26.0001 9.91235C25.9971 10.0424 25.91 10.1543 25.7849 10.185C25.3104 10.3016 24.088 10.5796 22.6951 10.7196C21.3022 10.8596 20.0484 10.8306 19.56 10.8108C19.4312 10.8055 19.3232 10.7133 19.2939 10.5865L18.4807 7.06917Z" fill="white"/>
<path d="M29.4983 40.9561C29.5334 41.1105 29.441 41.2639 29.2884 41.2993C28.755 41.423 27.4738 41.6908 25.7472 41.8577C24.0206 42.0247 22.7113 42.0073 22.164 41.9881C22.0073 41.9826 21.8868 41.8498 21.8911 41.6916L21.9899 38.0844C21.9935 37.9543 22.081 37.8428 22.2062 37.8125C22.6812 37.6977 23.9047 37.4244 25.2981 37.2897C26.6915 37.155 27.9451 37.1888 28.4335 37.2104C28.5622 37.2162 28.6699 37.3089 28.6987 37.4358L29.4983 40.9561Z" fill="white"/>
<path d="M41.4849 28.0003C41.6337 28.0476 41.7171 28.2035 41.6701 28.3532C41.507 28.8727 41.0906 30.1027 40.3614 31.6618C39.6321 33.2209 38.9541 34.3306 38.6596 34.7896C38.5747 34.9219 38.4008 34.9595 38.2683 34.8774L35.1738 32.9594C35.0643 32.8915 35.0131 32.76 35.0508 32.6359C35.1924 32.1699 35.5745 30.9877 36.1625 29.7307C36.7504 28.4737 37.4137 27.4207 37.6811 27.0126C37.7522 26.9039 37.8865 26.8576 38.0095 26.8967L41.4849 28.0003Z" fill="white"/>
<path d="M40.5736 17.1763C40.7128 17.1047 40.7692 16.9368 40.6977 16.7973C40.4492 16.3124 39.8309 15.1688 38.8484 13.7526C37.866 12.3364 37.0099 11.3549 36.6421 10.9514C36.5363 10.8353 36.3581 10.8275 36.2409 10.9309L33.5154 13.3345C33.4186 13.4199 33.3902 13.5581 33.4481 13.6738C33.6662 14.1094 34.2428 15.2119 35.035 16.3538C35.8273 17.4958 36.6594 18.424 36.9917 18.7817C37.08 18.8767 37.2203 18.8998 37.3353 18.8407L40.5736 17.1763Z" fill="white"/>
<path d="M7.53164 31.2649C7.39427 31.3402 7.34236 31.5095 7.4176 31.6471C7.67904 32.1251 8.32798 33.252 9.34832 34.6417C10.3687 36.0313 11.2509 36.9898 11.6294 37.3834C11.7383 37.4966 11.9168 37.4996 12.0312 37.3931L14.6907 34.9182C14.7851 34.8303 14.8099 34.6914 14.7489 34.5773C14.5191 34.1477 13.913 33.0609 13.0902 31.9402C12.2674 30.8196 11.4105 29.9138 11.0687 29.5651C10.9779 29.4724 10.837 29.4531 10.7236 29.5153L7.53164 31.2649Z" fill="white"/>
<path d="M6.40914 20.1019C6.2605 20.054 6.17776 19.8977 6.22538 19.7482C6.39063 19.2295 6.81204 18.0011 7.54767 16.445C8.28331 14.8888 8.96589 13.7819 9.26229 13.3241C9.34771 13.1921 9.5218 13.1552 9.65399 13.2379L12.7406 15.1683C12.8498 15.2366 12.9004 15.3684 12.8622 15.4922C12.7187 15.9577 12.3317 17.1384 11.7386 18.393C11.1455 19.6476 10.4779 20.6979 10.2089 21.105C10.1373 21.2133 10.0028 21.2591 9.87996 21.2195L6.40914 20.1019Z" fill="white"/>
<mask id="mask0_1701_545" style="mask-type:alpha" maskUnits="userSpaceOnUse" x="11" y="11" width="26" height="26">
<path fill-rule="evenodd" clip-rule="evenodd" d="M23.9998 36.7541C31.1006 36.7541 36.857 31.0461 36.857 24.005C36.857 16.9638 31.1006 11.2559 23.9998 11.2559C16.899 11.2559 11.1427 16.9638 11.1427 24.005C11.1427 31.0461 16.899 36.7541 23.9998 36.7541ZM23.9998 35.7342C30.5326 35.7342 35.8284 30.4828 35.8284 24.005C35.8284 17.5271 30.5326 12.2758 23.9998 12.2758C17.4671 12.2758 12.1713 17.5271 12.1713 24.005C12.1713 30.4828 17.4671 35.7342 23.9998 35.7342Z" fill="white"/>
</mask>
<g mask="url(#mask0_1701_545)">
<path d="M21.4329 11.0012L24.5178 10.9326L24.5639 12.972L21.479 13.0405L21.4329 11.0012Z" fill="white"/>
<path d="M28.3352 11.3939L31.2001 12.5305L30.436 14.4244L27.5711 13.2878L28.3352 11.3939Z" fill="white"/>
<path d="M17.4338 12.2141L14.9326 14.006L16.1374 15.6595L18.6386 13.8675L17.4338 12.2141Z" fill="white"/>
<path d="M12.3398 17.3752L11.1431 20.1955L13.0392 20.9866L14.2359 18.1664L12.3398 17.3752Z" fill="white"/>
<path d="M10.8859 23.7498L10.8859 26.8096L12.943 26.8096V23.7498L10.8859 23.7498Z" fill="white"/>
<path d="M12.5234 30.4221L14.2123 32.9829L15.9339 31.8664L14.2451 29.3056L12.5234 30.4221Z" fill="white"/>
<path d="M16.8001 35.5871L19.6638 36.7269L20.4301 34.8339L17.5664 33.6941L16.8001 35.5871Z" fill="white"/>
<path d="M23.4859 37.2636L26.5712 37.3108L26.603 35.2712L23.5176 35.224L23.4859 37.2636Z" fill="white"/>
<path d="M30.5959 35.8639L33.1068 34.0853L31.911 32.4254L29.4002 34.2041L30.5959 35.8639Z" fill="white"/>
<path d="M35.2488 31.0902L36.6001 28.3395L34.7508 27.4461L33.3994 30.1969L35.2488 31.0902Z" fill="white"/>
<path d="M37.3951 24.5146L37.3716 21.4549L35.3145 21.4704L35.338 24.5301L37.3951 24.5146Z" fill="white"/>
<path d="M35.8271 17.7534L34.0849 15.228L32.387 16.3796L34.1291 18.9051L35.8271 17.7534Z" fill="white"/>
</g>
</svg>
