<svg width="48" height="48" viewBox="0 0 48 48" fill="none" xmlns="http://www.w3.org/2000/svg">
<path opacity="0.4" fill-rule="evenodd" clip-rule="evenodd" d="M44.8004 32V15.2C44.8004 9.50085 41.3268 5.52803 35.9604 4.90403C35.4612 4.82083 34.9412 4.80005 34.4004 4.80005H13.6004C13.018 4.80005 12.4564 4.84165 11.9156 4.92485C6.61164 5.59045 3.20044 9.54245 3.20044 15.2V17.9502C4.85726 15.8069 7.64321 14.4 10.8008 14.4C13.3485 14.4 15.6414 15.3072 17.3116 16.776C18.9676 18.2593 20.0008 20.2894 20.0008 22.5359V29.7359V35.064C20.0008 38.2952 17.8704 41.0869 14.7838 42.4H34.4004C40.6404 42.4 44.8004 38.24 44.8004 32Z" fill="#4781FF"/>
<path d="M18.4004 30.4001V34.5157C18.4004 37.986 14.8189 40.8001 10.4004 40.8001C5.98193 40.8001 2.40039 37.986 2.40039 34.5157V30.4001C2.40039 33.8705 5.98193 36.3509 10.4004 36.3509C14.8189 36.3509 18.4004 33.8705 18.4004 30.4001Z" fill="#4781FF"/>
<path opacity="0.4" d="M18.4004 23.2V29.3835C18.4004 33.2421 14.8189 36 10.4004 36C5.98193 36 2.40039 33.2421 2.40039 29.3835V23.2C2.40039 24.3254 2.70808 25.3642 3.24962 26.2546C4.56654 28.4313 7.27424 29.8164 10.4004 29.8164C13.5265 29.8164 16.2342 28.4313 17.5512 26.2546C18.0927 25.3642 18.4004 24.3254 18.4004 23.2Z" fill="#4781FF"/>
<path d="M18.4004 23.7855C18.4004 24.9106 18.0927 25.9491 17.5512 26.8393C16.2342 29.0153 13.5265 30.4 10.4004 30.4C7.27424 30.4 4.56654 29.0153 3.24962 26.8393C2.70808 25.9491 2.40039 24.9106 2.40039 23.7855C2.40039 19.928 5.98193 16.8 10.4004 16.8C12.6158 16.8 14.6096 17.579 16.0619 18.84C17.5019 20.1135 18.4004 21.8568 18.4004 23.7855Z" fill="#4781FF"/>
<path d="M44.8004 18.4001H36.6404C33.6484 18.4001 31.2004 20.7401 31.2004 23.6001C31.2004 26.4601 33.6484 28.8001 36.6404 28.8001H44.8004" fill="#4781FF"/>
</svg>
