<svg xmlns="http://www.w3.org/2000/svg" width="48" height="48" viewBox="0 0 48 48" fill="none">
<circle cx="28" cy="24" r="18" fill="#EEEEEE"/>
<path fill-rule="evenodd" clip-rule="evenodd" d="M24.0801 5.27992C13.7414 5.27992 5.36012 13.6612 5.36012 23.9999C5.36012 34.3387 13.7414 42.7199 24.0801 42.7199C34.4189 42.7199 42.8001 34.3387 42.8001 23.9999V15.2399H46.1601V23.9999C46.1601 36.1944 36.2746 46.0799 24.0801 46.0799C11.8857 46.0799 2.00012 36.1944 2.00012 23.9999C2.00012 11.8055 11.8857 1.91992 24.0801 1.91992H44.3601V5.27992H24.0801Z" fill="#B6BCC8"/>
<path d="M46.1601 3.59992C46.1601 4.52776 45.408 5.27992 44.4801 5.27992C43.5523 5.27992 42.8001 4.52776 42.8001 3.59992C42.8001 2.67208 43.5523 1.91992 44.4801 1.91992C45.408 1.91992 46.1601 2.67208 46.1601 3.59992Z" fill="#B6BCC8"/>
<path d="M46.1601 15.1199C46.1601 16.0478 45.408 16.7999 44.4801 16.7999C43.5523 16.7999 42.8001 16.0478 42.8001 15.1199C42.8001 14.1921 43.5523 13.4399 44.4801 13.4399C45.408 13.4399 46.1601 14.1921 46.1601 15.1199Z" fill="#B6BCC8"/>
<path fill-rule="evenodd" clip-rule="evenodd" d="M15.8061 29.5823C16.5007 28.9671 17.5624 29.0315 18.1776 29.726C19.3272 31.0239 20.9262 32.5199 23.64 32.5199C26.5114 32.5199 28.4968 31.0922 29.4445 29.9866C30.0483 29.2821 31.1089 29.2006 31.8133 29.8044C32.5178 30.4082 32.5994 31.4688 31.9956 32.1733C30.5432 33.8676 27.6806 35.8799 23.64 35.8799C19.4418 35.8799 16.9928 33.4559 15.6624 31.9538C15.0472 31.2593 15.1115 30.1975 15.8061 29.5823Z" fill="#B6BCC8"/>
</svg>