<svg width="48" height="48" viewBox="0 0 48 48" fill="none" xmlns="http://www.w3.org/2000/svg">
<path opacity="0.4" d="M44 18V32.92C44 37.5 40.28 41.2 35.7 41.2H12.3C7.72 41.2 4 37.5 4 32.92V18H44Z" fill="#5CA6FF"/>
<path d="M44 15.0769V17.9969H4V15.0769C4 10.4969 7.72 6.79688 12.3 6.79688H35.7C40.28 6.79688 44 10.4969 44 15.0769ZM16 34.5009H12C11.18 34.5009 10.5 33.8209 10.5 33.0009C10.5 32.1809 11.18 31.5009 12 31.5009H16C16.82 31.5009 17.5 32.1809 17.5 33.0009C17.5 33.8209 16.82 34.5009 16 34.5009ZM29 34.5009H21C20.18 34.5009 19.5 33.8209 19.5 33.0009C19.5 32.1809 20.18 31.5009 21 31.5009H29C29.82 31.5009 30.5 32.1809 30.5 33.0009C30.5 33.8209 29.82 34.5009 29 34.5009Z" fill="#5CA6FF"/>
</svg>
