<svg width="48" height="48" viewBox="0 0 48 48" fill="none" xmlns="http://www.w3.org/2000/svg">
<path d="M41.175 44.2918H6.91875C5.11875 44.2918 3.65625 42.8293 3.65625 41.0293V6.82461C3.65625 4.99648 5.14688 3.50586 6.975 3.50586H41.1562C42.9656 3.50586 44.4375 4.97773 44.4375 6.78711V41.0246C44.4375 42.8246 42.975 44.2918 41.175 44.2918ZM6.97031 5.38086C6.17344 5.38086 5.52656 6.02773 5.52656 6.82461V41.0246C5.52656 41.7887 6.15 42.4121 6.91406 42.4121H41.1703C41.9344 42.4121 42.5578 41.7887 42.5578 41.0246V6.78711C42.5578 6.01367 41.925 5.38086 41.1516 5.38086H6.97031Z" fill="#B247FF"/>
<path d="M9.01367 8.98047H38.9527V38.9195H9.01367V8.98047Z" fill="#B247FF"/>
<path d="M7.26562 13.9551H10.7344V20.9535H7.26562V13.9551ZM7.26562 26.9629H10.7344V33.9613H7.26562V26.9629Z" fill="white"/>
<path d="M38.2684 7.9082H9.88555C8.87305 7.9082 8.05742 8.72852 8.05742 9.73633V12.741H7.25586C6.76367 12.741 6.36523 13.1395 6.36523 13.6316V21.0426C6.36523 21.5348 6.76367 21.9332 7.25586 21.9332H8.05742V25.866H7.25586C6.76367 25.866 6.36523 26.2645 6.36523 26.7566V34.1676C6.36523 34.6598 6.76367 35.0582 7.25586 35.0582H8.05742V38.1379C8.05742 39.1035 8.84023 39.891 9.81055 39.891H38.2871C39.2527 39.891 40.0402 39.1082 40.0402 38.1379V9.68008C40.0355 8.70039 39.2434 7.9082 38.2684 7.9082ZM7.77148 20.3395V14.3348C7.77148 14.2316 7.85586 14.1473 7.95898 14.1473H10.073C10.1762 14.1473 10.2605 14.2316 10.2605 14.3348V20.3395C10.2605 20.4426 10.1762 20.527 10.073 20.527H7.95898C7.85586 20.527 7.77148 20.4426 7.77148 20.3395ZM7.77148 33.4645V27.4598C7.77148 27.3566 7.85586 27.2723 7.95898 27.2723H10.073C10.1762 27.2723 10.2605 27.3566 10.2605 27.4598V33.4645C10.2605 33.5676 10.1762 33.652 10.073 33.652H7.95898C7.85586 33.652 7.77148 33.5676 7.77148 33.4645ZM38.1605 38.016H9.92773V35.0582H10.7574C11.2496 35.0582 11.648 34.6598 11.648 34.1676V26.7566C11.648 26.2645 11.2496 25.866 10.7574 25.866H9.92773V21.9332H10.7574C11.2496 21.9332 11.648 21.5348 11.648 21.0426V13.6316C11.648 13.1395 11.2496 12.741 10.7574 12.741H9.92773V9.7832H38.1605V38.016Z" fill="#B247FF"/>
<path d="M21.5059 23.9574C21.5059 24.7441 21.6608 25.5231 21.9619 26.2499C22.2629 26.9768 22.7042 27.6372 23.2605 28.1934C23.8168 28.7497 24.4772 29.191 25.204 29.492C25.9308 29.7931 26.7098 29.948 27.4965 29.948C28.2832 29.948 29.0622 29.7931 29.789 29.492C30.5158 29.191 31.1762 28.7497 31.7325 28.1934C32.2888 27.6372 32.73 26.9768 33.0311 26.2499C33.3322 25.5231 33.4871 24.7441 33.4871 23.9574C33.4871 22.3686 32.856 20.8449 31.7325 19.7214C30.609 18.598 29.0853 17.9668 27.4965 17.9668C25.9077 17.9668 24.3839 18.598 23.2605 19.7214C22.137 20.8449 21.5059 22.3686 21.5059 23.9574Z" fill="white"/>
<path d="M36.2442 27.591L34.6224 26.6535C34.9739 25.8051 35.1708 24.8723 35.1708 23.8973C35.1708 22.9223 34.9739 21.9895 34.6224 21.141L36.2442 20.2035C36.6942 19.9457 36.8442 19.3691 36.5864 18.9238C36.3286 18.4738 35.7521 18.3238 35.3067 18.5816L33.6849 19.5191C32.5505 18.0426 30.8536 17.016 28.9177 16.7629V14.8926C28.9177 14.377 28.4958 13.9551 27.9802 13.9551C27.4646 13.9551 27.0427 14.377 27.0427 14.8926V16.7629C25.1067 17.016 23.4099 18.0426 22.2755 19.5191L20.6536 18.5816C20.2036 18.3238 19.6317 18.4785 19.3739 18.9238C19.1161 19.3738 19.2708 19.9457 19.7161 20.2035L21.338 21.141C20.9864 21.9895 20.7895 22.9223 20.7895 23.8973C20.7895 24.8723 20.9864 25.8051 21.338 26.6535L19.7161 27.591C19.2661 27.8488 19.1161 28.4254 19.3739 28.8707C19.5474 29.1707 19.8614 29.3395 20.1849 29.3395C20.3442 29.3395 20.5036 29.2973 20.6536 29.2129L22.2755 28.2754C23.4099 29.752 25.1067 30.7785 27.0427 31.0316V32.9066C27.0427 33.4223 27.4646 33.8441 27.9802 33.8441C28.4958 33.8441 28.9177 33.4223 28.9177 32.9066V31.0363C30.8536 30.7832 32.5505 29.7566 33.6849 28.2801L35.3067 29.2176C35.4521 29.302 35.6161 29.3441 35.7755 29.3441C36.0989 29.3441 36.413 29.1754 36.5864 28.8754C36.8442 28.4207 36.6942 27.8488 36.2442 27.591ZM27.9755 29.2645C25.013 29.2645 22.613 26.8645 22.613 23.902C22.613 20.9395 25.013 18.5395 27.9755 18.5395C30.938 18.5395 33.338 20.9395 33.338 23.902C33.338 26.8645 30.938 29.2645 27.9755 29.2645Z" fill="white"/>
<path d="M27.9562 27.7637C25.8234 27.7637 24.0891 26.0293 24.0891 23.8965C24.0891 21.7637 25.8234 20.0293 27.9562 20.0293C30.0891 20.0293 31.8234 21.7637 31.8234 23.8965C31.8234 26.0293 30.0844 27.7637 27.9562 27.7637ZM27.9562 21.909C26.8594 21.909 25.9641 22.7996 25.9641 23.9012C25.9641 24.998 26.8547 25.8934 27.9562 25.8934C29.0578 25.8934 29.9484 25.0027 29.9484 23.9012C29.9437 22.7996 29.0531 21.909 27.9562 21.909Z" fill="#B247FF"/>
</svg>
