<svg width="48" height="48" viewBox="0 0 48 48" fill="none" xmlns="http://www.w3.org/2000/svg">
<path d="M24.0002 31.2C31.0694 31.2 36.8002 25.4141 36.8002 18.2769V4H11.2002V18.2769C11.2002 25.4141 16.931 31.2 24.0002 31.2Z" fill="#B247FF"/>
<path opacity="0.4" fill-rule="evenodd" clip-rule="evenodd" d="M2.40051 11.0004C2.40051 10.1167 3.11686 9.40039 4.00051 9.40039H12.0005C12.8842 9.40039 13.6005 10.1167 13.6005 11.0004V21.0004C13.6005 21.884 12.8842 22.6004 12.0005 22.6004C6.96246 22.6004 2.40051 18.388 2.40051 11.0004ZM5.69014 12.6004C6.13947 16.4509 8.21215 18.5052 10.4005 19.1627V12.6004H5.69014Z" fill="#B247FF"/>
<path opacity="0.4" fill-rule="evenodd" clip-rule="evenodd" d="M34.4006 11.0004C34.4006 10.1167 35.117 9.40039 36.0006 9.40039H44.0006C44.8843 9.40039 45.6006 10.1167 45.6006 11.0004C45.6006 18.388 41.0387 22.6004 36.0006 22.6004C35.117 22.6004 34.4006 21.884 34.4006 21.0004V11.0004ZM37.6006 12.6004V19.1627C39.789 18.5052 41.8617 16.4509 42.311 12.6004H37.6006Z" fill="#B247FF"/>
<path opacity="0.4" fill-rule="evenodd" clip-rule="evenodd" d="M24.0006 28.8008C24.8843 28.8008 25.6006 29.6763 25.6006 30.7563V35.6452C25.6006 36.7252 24.8843 37.6008 24.0006 37.6008C23.117 37.6008 22.4006 36.7252 22.4006 35.6452V30.7563C22.4006 29.6763 23.117 28.8008 24.0006 28.8008Z" fill="#B247FF"/>
<path d="M16.5949 43.6C15.1182 43.6 14.1508 42.0548 14.7957 40.7265L16.5436 37.1265C16.8782 36.4374 17.5768 36 18.3428 36H29.4296C30.1753 36 30.8591 36.4149 31.2035 37.0763L33.0781 40.6763C33.7714 42.0078 32.8053 43.6 31.3042 43.6H16.5949Z" fill="#B247FF"/>
</svg>
