<svg width="48" height="48" viewBox="0 0 48 48" fill="none" xmlns="http://www.w3.org/2000/svg">
<path opacity="0.8" d="M25.8004 5.03627L25.7404 5.17627L19.9404 18.6363H14.2404C12.8804 18.6363 11.6004 18.8963 10.4004 19.4163L13.9004 11.0563L13.9804 10.8763L14.1004 10.5563C14.1604 10.4163 14.2004 10.2963 14.2604 10.1963C16.8804 4.13627 19.8404 2.75627 25.8004 5.03627Z" fill="#F87700"/>
<path d="M36.5783 19.0391C35.6783 18.7791 34.7383 18.6391 33.7583 18.6391H19.9383L25.7383 5.17906L25.7983 5.03906C26.0783 5.13906 26.3783 5.27906 26.6783 5.37906L31.0983 7.23906C33.5583 8.25906 35.2783 9.31906 36.3383 10.5991C36.5183 10.8391 36.6783 11.0591 36.8383 11.3191C37.0183 11.5991 37.1583 11.8791 37.2383 12.1791C37.3183 12.3591 37.3783 12.5191 37.4183 12.6991C37.9383 14.3991 37.6183 16.4591 36.5783 19.0391Z" fill="#F87700"/>
<path opacity="0.4" d="M43.5158 28.4006V32.3006C43.5158 32.7006 43.4958 33.1006 43.4758 33.4806C43.0958 40.4806 39.1958 44.0006 31.7958 44.0006H16.1958C15.6958 44.0006 15.2358 43.9606 14.7758 43.9006C8.41577 43.4806 5.01577 40.0806 4.57577 33.7206C4.51577 33.2406 4.47577 32.7806 4.47577 32.3006V28.4006C4.47577 24.3806 6.91577 20.9206 10.3958 19.4206C11.5958 18.9006 12.8758 18.6406 14.2358 18.6406H33.7558C34.7358 18.6406 35.6758 18.7806 36.5758 19.0406C38.5819 19.6527 40.3387 20.8923 41.588 22.5772C42.8372 24.262 43.5129 26.3032 43.5158 28.4006Z" fill="#F87700"/>
<path opacity="0.6" d="M13.8956 11.0625L10.3956 19.4225C8.63981 20.1778 7.14359 21.4307 6.09158 23.0265C5.03957 24.6223 4.47779 26.4911 4.47559 28.4025V22.5425C4.47559 16.8625 8.51559 12.1225 13.8956 11.0625ZM43.5196 22.5405V28.4005C43.5167 26.3031 42.841 24.2619 41.5918 22.577C40.3425 20.8922 38.5857 19.6526 36.5796 19.0405C37.6196 16.4605 37.9396 14.4005 37.4196 12.7005C37.3796 12.5205 37.3196 12.3605 37.2396 12.1805C39.1336 13.168 40.7205 14.656 41.8278 16.4826C42.935 18.3092 43.5202 20.4045 43.5196 22.5405Z" fill="#F87700"/>
</svg>
