<!-- <svg width="48" height="48" viewBox="0 0 48 48" fill="none" xmlns="http://www.w3.org/2000/svg">
<circle cx="27" cy="24" r="18" fill="#FFF4F4"/>
<path fill-rule="evenodd" clip-rule="evenodd" d="M10.5124 5.2H37.4875C40.0605 5.2 42.1759 7.22874 42.2834 9.79945L42.7936 22H45.9964L45.4806 9.66575C45.3014 5.38123 41.7758 2 37.4875 2H10.5124C6.22418 2 2.6986 5.38123 2.51943 9.66575L1.34852 37.6657C1.15843 42.2112 4.79211 46 9.34153 46H38.6585C43.2079 46 46.8416 42.2112 46.6515 37.6657L46.3309 30H43.1281L43.4543 37.7994C43.5683 40.5267 41.3881 42.8 38.6585 42.8H9.34153C6.61188 42.8 4.43167 40.5267 4.54572 37.7994L5.71663 9.79945C5.82413 7.22874 7.93948 5.2 10.5124 5.2Z" fill="#FFCDCB"/>
<path fill-rule="evenodd" clip-rule="evenodd" d="M13.9209 16.6399C14.3857 21.7979 18.7206 25.8399 23.9996 25.8399C29.2786 25.8399 33.6136 21.7979 34.0784 16.6399H30.5562C30.1084 19.8606 27.3436 22.3399 23.9996 22.3399C20.6557 22.3399 17.8908 19.8606 17.4431 16.6399H13.9209Z" fill="#FFCDCB"/>
<path d="M34.0918 16.6494C34.0918 17.6159 33.3083 18.3994 32.3418 18.3994C31.3753 18.3994 30.5469 17.6159 30.5469 16.6494C30.5469 15.6829 31.3753 14.8994 32.3418 14.8994C33.3083 14.8994 34.0918 15.6829 34.0918 16.6494Z" fill="#FFCDCB"/>
<path d="M17.4488 16.6478C17.4488 17.6143 16.6829 18.3978 15.7164 18.3978C14.7499 18.3978 13.9215 17.6143 13.9215 16.6478C13.9215 15.6813 14.7499 14.8978 15.7164 14.8978C16.6829 14.8978 17.4488 15.6813 17.4488 16.6478Z" fill="#FFCDCB"/>
<path d="M46 22C46 22.8837 45.2837 23.6 44.4 23.6C43.5163 23.6 42.8 22.8837 42.8 22C42.8 21.1163 43.5163 20.4 44.4 20.4C45.2837 20.4 46 21.1163 46 22Z" fill="#FFCDCB"/>
<path d="M46.3309 30.044C46.3309 30.9276 45.6146 31.644 44.7309 31.644C43.8472 31.644 43.1309 30.9276 43.1309 30.044C43.1309 29.1603 43.8472 28.444 44.7309 28.444C45.6146 28.444 46.3309 29.1603 46.3309 30.044Z" fill="#FFCDCB"/>
</svg> -->

<svg xmlns="http://www.w3.org/2000/svg" width="48" height="48" viewBox="0 0 48 48" fill="none">
  <circle cx="27" cy="24" r="18" fill="#E6E6E6"/>
  <path fill-rule="evenodd" clip-rule="evenodd" d="M10.5125 5.2H37.4876C40.0605 5.2 42.1759 7.22874 42.2834 9.79945L42.7936 22H45.9964L45.4806 9.66575C45.3014 5.38123 41.7758 2 37.4876 2H10.5125C6.22422 2 2.69864 5.38123 2.51947 9.66575L1.34856 37.6657C1.15848 42.2112 4.79215 46 9.34158 46H38.6585C43.2079 46 46.8416 42.2112 46.6515 37.6657L46.3309 30H43.1282L43.4543 37.7994C43.5684 40.5267 41.3882 42.8 38.6585 42.8H9.34158C6.61192 42.8 4.43172 40.5267 4.54577 37.7994L5.71668 9.79945C5.82418 7.22874 7.93953 5.2 10.5125 5.2Z" fill="#666666"/>
  <path fill-rule="evenodd" clip-rule="evenodd" d="M13.9209 16.6396C14.3857 21.7976 18.7206 25.8396 23.9996 25.8396C29.2786 25.8396 33.6136 21.7976 34.0784 16.6396H30.5562C30.1084 19.8603 27.3436 22.3396 23.9996 22.3396C20.6557 22.3396 17.8908 19.8603 17.4431 16.6396H13.9209Z" fill="#666666"/>
  <path d="M34.0918 16.6494C34.0918 17.6159 33.3083 18.3994 32.3418 18.3994C31.3753 18.3994 30.5469 17.6159 30.5469 16.6494C30.5469 15.6829 31.3753 14.8994 32.3418 14.8994C33.3083 14.8994 34.0918 15.6829 34.0918 16.6494Z" fill="#666666"/>
  <path d="M17.4489 16.6475C17.4489 17.614 16.6829 18.3975 15.7164 18.3975C14.7499 18.3975 13.9215 17.614 13.9215 16.6475C13.9215 15.681 14.7499 14.8975 15.7164 14.8975C16.6829 14.8975 17.4489 15.681 17.4489 16.6475Z" fill="#666666"/>
  <path d="M46 22.0005C46 22.8841 45.2837 23.6005 44.4 23.6005C43.5163 23.6005 42.8 22.8841 42.8 22.0005C42.8 21.1168 43.5163 20.4005 44.4 20.4005C45.2837 20.4005 46 21.1168 46 22.0005Z" fill="#666666"/>
  <path d="M46.3309 30.0442C46.3309 30.9279 45.6146 31.6442 44.7309 31.6442C43.8472 31.6442 43.1309 30.9279 43.1309 30.0442C43.1309 29.1606 43.8472 28.4442 44.7309 28.4442C45.6146 28.4442 46.3309 29.1606 46.3309 30.0442Z" fill="#666666"/>
</svg>

