<svg xmlns="http://www.w3.org/2000/svg" width="48" height="48" viewBox="0 0 48 48" fill="none">
<path d="M15.2 14.4H9.19995C5.88624 14.4 3.19995 17.0863 3.19995 20.4V27.6C3.19995 30.9137 5.88624 33.6 9.19995 33.6H15.2V14.4Z" fill="#53CEEC"/>
<path d="M15.2 14.55L32.229 7.74763C32.8858 7.48526 33.6 7.96901 33.6 8.67628V39.3237C33.6 40.031 32.8858 40.5147 32.229 40.2524L15.2 33.45" fill="#53CEEC"/>
<path fill-rule="evenodd" clip-rule="evenodd" d="M38.5 17C38.5 16.1716 39.1715 15.5 40 15.5H42C42.8284 15.5 43.5 16.1716 43.5 17C43.5 17.8284 42.8284 18.5 42 18.5H40C39.1715 18.5 38.5 17.8284 38.5 17Z" fill="#53CEEC"/>
<path fill-rule="evenodd" clip-rule="evenodd" d="M37.5 25C37.5 24.1716 38.1715 23.5 39 23.5H44C44.8284 23.5 45.5 24.1716 45.5 25C45.5 25.8284 44.8284 26.5 44 26.5H39C38.1715 26.5 37.5 25.8284 37.5 25Z" fill="#53CEEC"/>
<path fill-rule="evenodd" clip-rule="evenodd" d="M38.5 33C38.5 32.1716 39.1715 31.5 40 31.5H42C42.8284 31.5 43.5 32.1716 43.5 33C43.5 33.8284 42.8284 34.5 42 34.5H40C39.1715 34.5 38.5 33.8284 38.5 33Z" fill="#53CEEC"/>
</svg>