<svg width="36" height="36" fill="#666" xmlns="http://www.w3.org/2000/svg"><path d="M31.333 12.333L17.367 26.3a2.945 2.945 0 01-1.8.85l-4.884.45H10.5c-.55 0-1.083-.217-1.467-.617a2.12 2.12 0 01-.6-1.666l.45-4.884a2.945 2.945 0 01.85-1.8L23.667 4.667l7.666 7.666zm3.234-9.716l-1.184-1.184a4.597 4.597 0 00-6.483 0L25.433 2.9l7.667 7.667L34.567 9.1a4.554 4.554 0 001.35-3.233 4.525 4.525 0 00-1.35-3.234v-.016zm-1.984 27.066V20a1.26 1.26 0 00-1.25-1.25 1.26 1.26 0 00-1.25 1.25v9.683a3.756 3.756 0 01-3.75 3.75h-20a3.756 3.756 0 01-3.75-3.75V9.667a3.756 3.756 0 013.75-3.75h9.684a1.26 1.26 0 001.25-1.25 1.26 1.26 0 00-1.25-1.25H6.333c-3.45 0-6.25 2.8-6.25 6.25v20c0 3.45 2.8 6.25 6.25 6.25h20c3.45 0 6.25-2.8 6.25-6.25v.016z"/></svg>