<svg width="48" height="48" viewBox="0 0 48 48" fill="none" xmlns="http://www.w3.org/2000/svg">
<path opacity="0.4" fill-rule="evenodd" clip-rule="evenodd" d="M44.8004 32.0008V15.2008C44.8004 9.50158 41.3268 5.52876 35.9604 4.90476C35.4612 4.82156 34.9412 4.80078 34.4004 4.80078H13.6004C13.018 4.80078 12.4564 4.84238 11.9156 4.92558C6.61158 5.59118 3.20038 9.54318 3.20038 15.2008V17.951C4.8572 15.8076 7.64314 14.4008 10.8008 14.4008C13.3485 14.4008 15.6414 15.308 17.3115 16.7768C18.9675 18.26 20.0008 20.2902 20.0008 22.5366V29.7366V35.0647C20.0008 38.2959 17.8704 41.0877 14.7837 42.4008H34.4004C40.6404 42.4008 44.8004 38.2408 44.8004 32.0008Z" fill="#B247FF"/>
<path d="M18.4004 30.4004V34.5159C18.4004 37.9863 14.8189 40.8004 10.4004 40.8004C5.98193 40.8004 2.40039 37.9863 2.40039 34.5159V30.4004C2.40039 33.8708 5.98193 36.3512 10.4004 36.3512C14.8189 36.3512 18.4004 33.8708 18.4004 30.4004Z" fill="#B247FF"/>
<path opacity="0.4" d="M18.4004 23.2012V29.3847C18.4004 33.2433 14.8189 36.0012 10.4004 36.0012C5.98193 36.0012 2.40039 33.2433 2.40039 29.3847V23.2012C2.40039 24.3266 2.70808 25.3654 3.24962 26.2559C4.56654 28.4325 7.27424 29.8176 10.4004 29.8176C13.5265 29.8176 16.2342 28.4325 17.5512 26.2559C18.0927 25.3654 18.4004 24.3266 18.4004 23.2012Z" fill="#B247FF"/>
<path d="M18.4004 23.7862C18.4004 24.9113 18.0927 25.9499 17.5512 26.8401C16.2342 29.0161 13.5265 30.4008 10.4004 30.4008C7.27424 30.4008 4.56654 29.0161 3.24962 26.8401C2.70808 25.9499 2.40039 24.9113 2.40039 23.7862C2.40039 19.9288 5.98193 16.8008 10.4004 16.8008C12.6158 16.8008 14.6096 17.5797 16.0619 18.8408C17.5019 20.1142 18.4004 21.8575 18.4004 23.7862Z" fill="#B247FF"/>
<path d="M44.8004 18.4004H36.6404C33.6484 18.4004 31.2004 20.7404 31.2004 23.6004C31.2004 26.4604 33.6484 28.8004 36.6404 28.8004H44.8004" fill="#B247FF"/>
</svg>
