<svg width="48" height="48" viewBox="0 0 48 48" fill="none" xmlns="http://www.w3.org/2000/svg">
<mask id="mask0_10_100292" style="mask-type:alpha" maskUnits="userSpaceOnUse" x="6" y="6" width="36" height="36">
<circle cx="24" cy="24" r="18" fill="#D9D9D9"/>
</mask>
<g mask="url(#mask0_10_100292)">
<path fill-rule="evenodd" clip-rule="evenodd" d="M20.4666 12.992C17.204 14.0478 13.798 13.3906 11.2215 11.5176C8.64724 14.157 6.93914 17.5424 6.3474 21.184C9.23799 22.2447 11.6292 24.5757 12.6508 27.7324C13.6723 30.8888 13.1003 34.1786 11.3793 36.7317C14.3159 39.6583 18.2053 41.4967 22.3525 41.8918C23.6231 39.7355 25.6571 38.0177 28.2256 37.1865C30.8142 36.3488 33.4906 36.5589 35.7958 37.5825C38.9602 34.833 41.0606 31.0476 41.7358 26.9331C39.0099 25.7686 36.7833 23.4755 35.7989 20.4338C34.7956 17.3337 35.2938 14.1078 36.8914 11.5428C34.2534 8.83606 30.813 7.02579 27.0952 6.38029C26.1046 9.40788 23.7293 11.9361 20.4666 12.992ZM28.0689 35.9093C33.8066 34.0525 36.9527 27.8958 35.0958 22.158C33.2391 16.4202 27.0824 13.2741 21.3446 15.131C15.6068 16.9879 12.4607 23.1445 14.3176 28.8823C16.1745 34.62 22.3311 37.7661 28.0689 35.9093Z" fill="#B247FF"/>
<path d="M26.9969 29.6018C26.7457 29.841 26.4211 30.0249 26.0232 30.1538C25.6292 30.2812 25.2583 30.3223 24.9107 30.2768C24.5619 30.2276 24.2632 30.1024 24.0145 29.9012C23.7647 29.6961 23.5854 29.4254 23.4765 29.0894C23.3653 28.7456 23.3522 28.4148 23.4371 28.0971C23.5247 27.7743 23.6948 27.4887 23.9474 27.2406C24.1987 26.9885 24.5156 26.8006 24.898 26.6768C25.2843 26.5518 25.6512 26.5184 25.9987 26.5767C26.3449 26.6311 26.6481 26.7635 26.9083 26.9737C27.1671 27.1801 27.3522 27.4554 27.4635 27.7992C27.5722 28.1352 27.5835 28.4602 27.4972 28.774C27.4137 29.0828 27.2469 29.3587 26.9969 29.6018Z" fill="#B247FF"/>
<path d="M25.1283 24.3616C24.9132 24.5807 24.6395 24.7439 24.3074 24.8514C23.9751 24.959 23.6577 24.987 23.3551 24.9356C23.0525 24.8841 22.789 24.7623 22.5647 24.5703C22.3404 24.3784 22.1776 24.1259 22.0763 23.8129C21.9763 23.5039 21.9603 23.2103 22.0282 22.9322C22.0987 22.6491 22.2422 22.3999 22.4585 22.1849C22.6736 21.9659 22.9491 21.802 23.2853 21.6932C23.6252 21.5832 23.9446 21.5546 24.2433 21.6073C24.5408 21.6561 24.8011 21.7745 25.0241 21.9627C25.246 22.147 25.4069 22.3937 25.5069 22.7027C25.6081 23.0157 25.6241 23.3157 25.5548 23.6027C25.4855 23.8897 25.3434 24.1427 25.1283 24.3616Z" fill="#B247FF"/>
<path fill-rule="evenodd" clip-rule="evenodd" d="M27.445 33.9791C32.1168 32.4673 34.6785 27.4544 33.1666 22.7825C31.6547 18.1106 26.6417 15.549 21.97 17.0608C17.2981 18.5727 14.7364 23.5857 16.2483 28.2575C17.7602 32.9294 22.7731 35.4911 27.445 33.9791ZM24.0973 32.3326C24.8864 32.3974 25.7272 32.2853 26.6195 31.9965C27.512 31.7077 28.257 31.3066 28.8549 30.793C29.4552 30.2743 29.8706 29.6982 30.1008 29.0647C30.3311 28.431 30.3444 27.793 30.1407 27.1504C29.9768 26.6571 29.7121 26.2413 29.3465 25.903C28.9835 25.5596 28.5626 25.3138 28.0836 25.1658C27.6073 25.0126 27.1191 24.9743 26.6188 25.0509L26.5926 24.9697C27.1733 24.6409 27.5839 24.1688 27.8243 23.5532C28.0647 22.9377 28.0811 22.3029 27.8737 21.6487C27.6723 21.0396 27.3144 20.5536 26.8002 20.1909C26.2846 19.8242 25.667 19.6037 24.9473 19.5294C24.2314 19.4537 23.4736 19.5453 22.6739 19.8041C21.8742 20.0629 21.2045 20.4332 20.6648 20.9152C20.1277 21.392 19.7577 21.9301 19.5547 22.5292C19.3504 23.1245 19.3477 23.7293 19.5465 24.3435C19.7566 24.9926 20.138 25.4986 20.6908 25.8617C21.2424 26.221 21.8556 26.3619 22.5304 26.2843L22.5566 26.3655C22.0987 26.599 21.7197 26.918 21.4195 27.3224C21.1182 27.723 20.921 28.1688 20.828 28.6597C20.7378 29.1456 20.7727 29.6358 20.9327 30.1303C21.1402 30.7716 21.5229 31.2815 22.0807 31.66C22.6386 32.0386 23.3107 32.2628 24.0973 32.3326Z" fill="#B247FF"/>
<path d="M-5.2777 33.5341C-3.83758 37.9843 0.93737 40.4243 5.38745 38.9841C9.83749 37.5441 12.2775 32.7691 10.8375 28.319C9.3973 23.869 4.62239 21.4289 0.172312 22.869C-4.27777 24.3092 -6.71782 29.0841 -5.2777 33.5341Z" fill="#B247FF"/>
<path d="M14.6467 -4.99372C10.3267 -3.59569 8.00921 1.19803 9.47048 5.71338C10.9317 10.2287 15.6183 12.7558 19.9383 11.3577C24.2583 9.95969 26.5757 5.16597 25.1146 0.650652C23.6533 -3.86467 18.9667 -6.39174 14.6467 -4.99372Z" fill="#B247FF"/>
<path d="M34.1552 55.51C29.4667 57.0272 24.4738 54.5736 23.0033 50.0295C21.5329 45.4855 24.1415 40.5719 28.83 39.0546C33.5184 37.5373 38.5113 39.991 39.9818 44.535C41.4523 49.079 38.8437 53.9928 34.1552 55.51Z" fill="#B247FF"/>
<path d="M54.1314 14.5011C55.6017 19.0444 53.1106 23.9194 48.5673 25.3896C44.0241 26.8598 39.1492 24.3687 37.679 19.8255C36.2086 15.2823 38.6997 10.4074 43.243 8.93712C47.7863 7.46678 52.6612 9.9579 54.1314 14.5011Z" fill="#B247FF"/>
</g>
</svg>
