<svg width="48" height="48" viewBox="0 0 48 48" fill="none" xmlns="http://www.w3.org/2000/svg">
<ellipse cx="24" cy="24.005" rx="18" ry="17.8488" stroke="#B1835A"/>
<path fill-rule="evenodd" clip-rule="evenodd" d="M24 41.8538C33.9411 41.8538 42 33.8626 42 24.005C42 14.1474 33.9411 6.15625 24 6.15625C14.0589 6.15625 6 14.1474 6 24.005C6 33.8626 14.0589 41.8538 24 41.8538ZM27.695 20.2582C29.1348 21.6473 30.605 23.0657 30.9686 24.2357C31.8261 26.9953 30.214 29.1047 27.5731 29.1047C26.3543 29.1047 25.5007 28.5988 24.9348 28.0538C24.8988 28.3954 24.9022 28.8583 25.0286 29.3597C25.2343 30.1757 25.8001 30.8896 26.0572 31.1446V31.6546H21.9429V31.1446C22.2001 30.8896 22.6806 30.2252 22.9715 29.3597C23.1357 28.8713 23.1601 28.383 23.1117 28.0273C22.5608 28.5822 21.7345 29.1047 20.5764 29.1047C18.107 29.1047 16.0833 27.1281 17.0437 24.2357C17.4482 23.0175 18.9112 21.6047 20.3334 20.2313C20.6173 19.9571 20.8996 19.6846 21.1715 19.4154C22.613 17.9885 23.7554 16.6492 23.9699 16.3978C23.9935 16.3701 24.0058 16.3556 24.0061 16.3556C24.0064 16.3556 24.0181 16.3694 24.0404 16.3959C24.2493 16.6429 25.3886 17.9907 26.8286 19.4154C27.1097 19.6935 27.4019 19.9754 27.695 20.2582Z" fill="#B1835A"/>
<path d="M18.4804 7.06917C18.4447 6.91493 18.5365 6.76114 18.689 6.72516C19.2219 6.59948 20.502 6.32678 22.228 6.15328C23.954 5.97978 25.2633 5.99219 25.8107 6.00927C25.9674 6.01417 26.0885 6.14656 26.0847 6.30476L25.9999 9.91235C25.9968 10.0424 25.9097 10.1543 25.7846 10.185C25.3101 10.3016 24.0877 10.5796 22.6948 10.7196C21.302 10.8596 20.0482 10.8306 19.5597 10.8108C19.4309 10.8055 19.323 10.7133 19.2937 10.5865L18.4804 7.06917Z" fill="white"/>
<path d="M29.4981 40.9561C29.5331 41.1105 29.4407 41.2639 29.2881 41.2993C28.7548 41.423 27.4736 41.6908 25.7469 41.8577C24.0203 42.0247 22.7111 42.0073 22.1637 41.9881C22.007 41.9826 21.8865 41.8498 21.8908 41.6916L21.9896 38.0844C21.9932 37.9543 22.0807 37.8428 22.206 37.8125C22.6809 37.6977 23.9044 37.4244 25.2978 37.2897C26.6912 37.155 27.9448 37.1888 28.4332 37.2104C28.562 37.2162 28.6696 37.3089 28.6984 37.4358L29.4981 40.9561Z" fill="white"/>
<path d="M41.4846 28.0003C41.6335 28.0476 41.7168 28.2035 41.6698 28.3532C41.5067 28.8727 41.0903 30.1027 40.3611 31.6618C39.6319 33.2209 38.9538 34.3306 38.6593 34.7896C38.5744 34.9219 38.4005 34.9595 38.268 34.8774L35.1735 32.9594C35.064 32.8915 35.0129 32.76 35.0505 32.6359C35.1921 32.1699 35.5742 30.9877 36.1622 29.7307C36.7501 28.4737 37.4135 27.4207 37.6808 27.0126C37.7519 26.9039 37.8863 26.8576 38.0092 26.8967L41.4846 28.0003Z" fill="white"/>
<path d="M40.5733 17.1763C40.7126 17.1047 40.7689 16.9368 40.6974 16.7973C40.4489 16.3124 39.8306 15.1688 38.8482 13.7526C37.8657 12.3364 37.0097 11.3549 36.6419 10.9514C36.536 10.8353 36.3578 10.8275 36.2406 10.9309L33.5151 13.3345C33.4183 13.4199 33.3899 13.5581 33.4478 13.6738C33.6659 14.1094 34.2425 15.2119 35.0348 16.3538C35.827 17.4958 36.6591 18.424 36.9914 18.7817C37.0797 18.8767 37.22 18.8998 37.335 18.8407L40.5733 17.1763Z" fill="white"/>
<path d="M7.53136 31.2649C7.394 31.3402 7.34209 31.5095 7.41732 31.6471C7.67876 32.1251 8.3277 33.252 9.34805 34.6417C10.3684 36.0313 11.2506 36.9898 11.6291 37.3834C11.7381 37.4966 11.9165 37.4996 12.0309 37.3931L14.6904 34.9182C14.7849 34.8303 14.8096 34.6914 14.7486 34.5773C14.5189 34.1477 13.9127 33.0609 13.0899 31.9402C12.2671 30.8196 11.4102 29.9138 11.0684 29.5651C10.9777 29.4724 10.8367 29.4531 10.7234 29.5153L7.53136 31.2649Z" fill="white"/>
<path d="M6.40887 20.1019C6.26022 20.054 6.17749 19.8977 6.22511 19.7482C6.39035 19.2295 6.81176 18.0011 7.5474 16.445C8.28304 14.8888 8.96562 13.7819 9.26202 13.3241C9.34743 13.1921 9.52152 13.1552 9.65371 13.2379L12.7403 15.1683C12.8495 15.2366 12.9001 15.3684 12.8619 15.4922C12.7185 15.9577 12.3315 17.1384 11.7384 18.393C11.1453 19.6476 10.4776 20.6979 10.2086 21.105C10.137 21.2133 10.0025 21.2591 9.87968 21.2195L6.40887 20.1019Z" fill="white"/>
<mask id="mask0_6060_3982" style="mask-type:alpha" maskUnits="userSpaceOnUse" x="11" y="11" width="26" height="26">
<path fill-rule="evenodd" clip-rule="evenodd" d="M23.9999 36.7541C31.1007 36.7541 36.857 31.0461 36.857 24.005C36.857 16.9638 31.1007 11.2559 23.9999 11.2559C16.8991 11.2559 11.1427 16.9638 11.1427 24.005C11.1427 31.0461 16.8991 36.7541 23.9999 36.7541ZM23.9999 35.7342C30.5326 35.7342 35.8284 30.4828 35.8284 24.005C35.8284 17.5271 30.5326 12.2758 23.9999 12.2758C17.4671 12.2758 12.1713 17.5271 12.1713 24.005C12.1713 30.4828 17.4671 35.7342 23.9999 35.7342Z" fill="white"/>
</mask>
<g mask="url(#mask0_6060_3982)">
<path d="M21.4325 11.0012L24.5175 10.9326L24.5636 12.972L21.4786 13.0405L21.4325 11.0012Z" fill="white"/>
<path d="M28.3349 11.3939L31.1998 12.5305L30.4356 14.4244L27.5707 13.2878L28.3349 11.3939Z" fill="white"/>
<path d="M17.4335 12.2141L14.9323 14.006L16.137 15.6595L18.6382 13.8675L17.4335 12.2141Z" fill="white"/>
<path d="M12.3395 17.3752L11.1427 20.1955L13.0388 20.9866L14.2356 18.1664L12.3395 17.3752Z" fill="white"/>
<path d="M10.8855 23.7498L10.8855 26.8096L12.9426 26.8096V23.7498L10.8855 23.7498Z" fill="white"/>
<path d="M12.523 30.4221L14.2119 32.9829L15.9336 31.8664L14.2447 29.3056L12.523 30.4221Z" fill="white"/>
<path d="M16.7998 35.5871L19.6634 36.7269L20.4297 34.8339L17.5661 33.6941L16.7998 35.5871Z" fill="white"/>
<path d="M23.4855 37.2636L26.5708 37.3108L26.6026 35.2712L23.5173 35.224L23.4855 37.2636Z" fill="white"/>
<path d="M30.5956 35.8639L33.1064 34.0853L31.9106 32.4254L29.3998 34.2041L30.5956 35.8639Z" fill="white"/>
<path d="M35.2485 31.0902L36.5998 28.3395L34.7504 27.4461L33.3991 30.1969L35.2485 31.0902Z" fill="white"/>
<path d="M37.3947 24.5146L37.3713 21.4549L35.3142 21.4704L35.3377 24.5301L37.3947 24.5146Z" fill="white"/>
<path d="M35.8267 17.7534L34.0845 15.228L32.3866 16.3796L34.1288 18.9051L35.8267 17.7534Z" fill="white"/>
</g>
</svg>
