<svg width="48" height="48" viewBox="0 0 48 48" fill="none" xmlns="http://www.w3.org/2000/svg">
<path opacity="0.4" fill-rule="evenodd" clip-rule="evenodd" d="M44.8 31.9998V15.1998C44.8 9.5006 41.3264 5.52778 35.96 4.90378C35.4608 4.82058 34.9408 4.7998 34.4 4.7998H13.6C13.0176 4.7998 12.456 4.8414 11.9152 4.9246C6.61118 5.5902 3.19998 9.5422 3.19998 15.1998V17.9495C4.85685 15.8064 7.64261 14.3998 10.8 14.3998C13.3477 14.3998 15.6406 15.307 17.3108 16.7758C18.9668 18.259 20 20.2892 20 22.5356V29.7357V35.0637C20 38.2949 17.8696 41.0867 14.783 42.3998H34.4C40.64 42.3998 44.8 38.2398 44.8 31.9998Z" fill="#B1835A"/>
<path d="M18.4 30.3994V34.5149C18.4 37.9853 14.8185 40.7994 10.4 40.7994C5.98153 40.7994 2.39999 37.9853 2.39999 34.5149V30.3994C2.39999 33.8698 5.98153 36.3502 10.4 36.3502C14.8185 36.3502 18.4 33.8698 18.4 30.3994Z" fill="#B1835A"/>
<path opacity="0.4" d="M18.4 23.2002V29.3838C18.4 33.2423 14.8185 36.0002 10.4 36.0002C5.98153 36.0002 2.39999 33.2423 2.39999 29.3838V23.2002C2.39999 24.3256 2.70769 25.3644 3.24922 26.2549C4.56615 28.4315 7.27384 29.8166 10.4 29.8166C13.5261 29.8166 16.2338 28.4315 17.5508 26.2549C18.0923 25.3644 18.4 24.3256 18.4 23.2002Z" fill="#B1835A"/>
<path d="M18.4 23.7853C18.4 24.9104 18.0923 25.9489 17.5508 26.8391C16.2338 29.0151 13.5261 30.3998 10.4 30.3998C7.27384 30.3998 4.56615 29.0151 3.24922 26.8391C2.70769 25.9489 2.39999 24.9104 2.39999 23.7853C2.39999 19.9278 5.98153 16.7998 10.4 16.7998C12.6154 16.7998 14.6092 17.5787 16.0615 18.8398C17.5015 20.1133 18.4 21.8565 18.4 23.7853Z" fill="#B1835A"/>
<path d="M44.8 18.3994H36.64C33.648 18.3994 31.2 20.7394 31.2 23.5994C31.2 26.4594 33.648 28.7994 36.64 28.7994H44.8" fill="#B1835A"/>
</svg>
