<svg width="48" height="48" viewBox="0 0 48 48" fill="none" xmlns="http://www.w3.org/2000/svg">
<path d="M24.0001 31.2C31.0693 31.2 36.8001 25.4141 36.8001 18.2769V4H11.2001V18.2769C11.2001 25.4141 16.9309 31.2 24.0001 31.2Z" fill="#B1835A"/>
<path opacity="0.4" fill-rule="evenodd" clip-rule="evenodd" d="M2.40009 11.0004C2.40009 10.1167 3.11643 9.40039 4.00009 9.40039H12.0001C12.8837 9.40039 13.6001 10.1167 13.6001 11.0004V21.0004C13.6001 21.884 12.8837 22.6004 12.0001 22.6004C6.96203 22.6004 2.40009 18.388 2.40009 11.0004ZM5.68971 12.6004C6.13904 16.4509 8.21173 18.5052 10.4001 19.1627V12.6004H5.68971Z" fill="#B1835A"/>
<path opacity="0.4" fill-rule="evenodd" clip-rule="evenodd" d="M34.4002 11.0004C34.4002 10.1167 35.1165 9.40039 36.0002 9.40039H44.0002C44.8838 9.40039 45.6002 10.1167 45.6002 11.0004C45.6002 18.388 41.0382 22.6004 36.0002 22.6004C35.1165 22.6004 34.4002 21.884 34.4002 21.0004V11.0004ZM37.6002 12.6004V19.1627C39.7885 18.5052 41.8612 16.4509 42.3106 12.6004H37.6002Z" fill="#B1835A"/>
<path opacity="0.4" fill-rule="evenodd" clip-rule="evenodd" d="M24.0002 28.8008C24.8838 28.8008 25.6002 29.6763 25.6002 30.7563V35.6452C25.6002 36.7252 24.8838 37.6008 24.0002 37.6008C23.1165 37.6008 22.4002 36.7252 22.4002 35.6452V30.7563C22.4002 29.6763 23.1165 28.8008 24.0002 28.8008Z" fill="#B1835A"/>
<path d="M16.5944 43.6C15.1178 43.6 14.1503 42.0548 14.7953 40.7265L16.5432 37.1265C16.8777 36.4374 17.5764 36 18.3423 36H29.4291C30.1749 36 30.8586 36.4149 31.203 37.0763L33.0776 40.6763C33.771 42.0078 32.8049 43.6 31.3037 43.6H16.5944Z" fill="#B1835A"/>
</svg>
