<svg width="48" height="48" viewBox="0 0 48 48" fill="none" xmlns="http://www.w3.org/2000/svg">
<mask id="mask0_6060_3953" style="mask-type:alpha" maskUnits="userSpaceOnUse" x="6" y="6" width="36" height="36">
<circle cx="24" cy="24" r="18" fill="#D9D9D9"/>
</mask>
<g mask="url(#mask0_6060_3953)">
<path fill-rule="evenodd" clip-rule="evenodd" d="M20.4661 12.991C17.2035 14.0468 13.7976 13.3897 11.221 11.5167C8.64676 14.156 6.93865 17.5414 6.34691 21.183C9.2375 22.2437 11.6287 24.5747 12.6503 27.7314C13.6718 30.8878 13.0998 34.1777 11.3788 36.7307C14.3154 39.6574 18.2048 41.4957 22.352 41.8908C23.6226 39.7345 25.6566 38.0168 28.2251 37.1856C30.8137 36.3478 33.4901 36.558 35.7953 37.5815C38.9597 34.832 41.0601 31.0466 41.7353 26.9321C39.0094 25.7676 36.7829 23.4745 35.7984 20.4328C34.7952 17.3327 35.2933 14.1069 36.8909 11.5419C34.2529 8.83508 30.8125 7.02482 27.0947 6.37931C26.1041 9.40691 23.7288 11.9352 20.4661 12.991ZM28.0684 35.9083C33.8061 34.0515 36.9522 27.8949 35.0954 22.157C33.2386 16.4193 27.0819 13.2732 21.3441 15.13C15.6063 16.9869 12.4602 23.1435 14.3171 28.8813C16.174 34.6191 22.3306 37.7651 28.0684 35.9083Z" fill="#B1835A"/>
<path d="M26.9964 29.6008C26.7452 29.84 26.4206 30.024 26.0227 30.1528C25.6287 30.2802 25.2578 30.3214 24.9103 30.2759C24.5615 30.2266 24.2628 30.1014 24.014 29.9002C23.7642 29.6951 23.5849 29.4244 23.4761 29.0884C23.3648 28.7446 23.3517 28.4138 23.4366 28.0961C23.5243 27.7733 23.6943 27.4877 23.9469 27.2396C24.1982 26.9875 24.5151 26.7996 24.8975 26.6758C25.2838 26.5508 25.6507 26.5174 25.9982 26.5757C26.3444 26.6301 26.6476 26.7625 26.9078 26.9728C27.1666 27.1792 27.3517 27.4544 27.463 27.7982C27.5717 28.1342 27.583 28.4592 27.4968 28.7731C27.4132 29.0818 27.2464 29.3577 26.9964 29.6008Z" fill="#B1835A"/>
<path d="M25.1278 24.3607C24.9127 24.5797 24.639 24.7429 24.3069 24.8505C23.9746 24.958 23.6572 24.9861 23.3546 24.9346C23.052 24.8831 22.7885 24.7613 22.5642 24.5694C22.3399 24.3774 22.1771 24.1249 22.0758 23.8119C21.9759 23.5029 21.9598 23.2094 22.0277 22.9313C22.0982 22.6481 22.2417 22.399 22.458 22.1839C22.6731 21.9649 22.9486 21.8011 23.2848 21.6922C23.6247 21.5822 23.9441 21.5536 24.2428 21.6063C24.5404 21.6551 24.8006 21.7736 25.0237 21.9618C25.2455 22.1461 25.4064 22.3927 25.5064 22.7018C25.6076 23.0147 25.6237 23.3147 25.5544 23.6018C25.4851 23.8887 25.3429 24.1417 25.1278 24.3607Z" fill="#B1835A"/>
<path fill-rule="evenodd" clip-rule="evenodd" d="M27.4445 33.9781C32.1164 32.4663 34.678 27.4534 33.1661 22.7815C31.6543 18.1096 26.6413 15.548 21.9695 17.0599C17.2976 18.5717 14.7359 23.5847 16.2479 28.2565C17.7597 32.9284 22.7726 35.4901 27.4445 33.9781ZM24.0968 32.3317C24.886 32.3964 25.7267 32.2844 26.619 31.9955C27.5115 31.7068 28.2566 31.3056 28.8544 30.792C29.4547 30.2734 29.8701 29.6973 30.1003 29.0637C30.3306 28.43 30.3439 27.792 30.1402 27.1494C29.9763 26.6561 29.7116 26.2403 29.346 25.902C28.983 25.5586 28.5621 25.3128 28.0831 25.1648C27.6068 25.0117 27.1186 24.9733 26.6184 25.0499L26.5921 24.9687C27.1729 24.64 27.5834 24.1678 27.8238 23.5523C28.0642 22.9367 28.0806 22.3019 27.8732 21.6477C27.6718 21.0386 27.3139 20.5527 26.7997 20.1899C26.2841 19.8232 25.6665 19.6028 24.9468 19.5284C24.2309 19.4527 23.4731 19.5443 22.6734 19.8031C21.8737 20.0619 21.204 20.4323 20.6643 20.9142C20.1273 21.391 19.7573 21.9291 19.5542 22.5282C19.3499 23.1235 19.3472 23.7283 19.546 24.3425C19.7561 24.9916 20.1375 25.4976 20.6903 25.8608C21.2419 26.22 21.8551 26.3609 22.53 26.2833L22.5561 26.3645C22.0982 26.598 21.7193 26.917 21.4191 27.3214C21.1177 27.722 20.9205 28.1678 20.8275 28.6588C20.7373 29.1447 20.7722 29.6348 20.9322 30.1293C21.1397 30.7706 21.5224 31.2805 22.0802 31.6591C22.6381 32.0376 23.3102 32.2619 24.0968 32.3317Z" fill="#B1835A"/>
<path d="M-5.27819 33.5332C-3.83807 37.9833 0.936882 40.4233 5.38696 38.9832C9.837 37.5431 12.277 32.7682 10.837 28.318C9.39681 23.868 4.6219 21.428 0.171824 22.868C-4.27826 24.3082 -6.71831 29.0831 -5.27819 33.5332Z" fill="#B1835A"/>
<path d="M14.6462 -4.99469C10.3262 -3.59667 8.00872 1.19706 9.46999 5.7124C10.9312 10.2278 15.6178 12.7548 19.9378 11.3568C24.2578 9.95871 26.5752 5.165 25.1141 0.649675C23.6528 -3.86565 18.9662 -6.39272 14.6462 -4.99469Z" fill="#B1835A"/>
<path d="M34.1547 55.509C29.4662 57.0263 24.4733 54.5726 23.0028 50.0286C21.5324 45.4845 24.141 40.5709 28.8295 39.0537C33.5179 37.5363 38.5108 39.99 39.9813 44.534C41.4518 49.0781 38.8432 53.9918 34.1547 55.509Z" fill="#B1835A"/>
<path d="M54.131 14.5002C55.6012 19.0434 53.1101 23.9184 48.5668 25.3886C44.0236 26.8589 39.1487 24.3677 37.6785 19.8245C36.2081 15.2813 38.6993 10.4064 43.2425 8.93614C47.7858 7.46581 52.6607 9.95692 54.131 14.5002Z" fill="#B1835A"/>
</g>
</svg>
