<svg width="53" height="41" viewBox="0 0 53 41" fill="none" xmlns="http://www.w3.org/2000/svg">
<g id="Customer Care" clip-path="url(#clip0_1258_6045)">
<g id="Layer 1">
<g id="Group">
<path id="Vector" d="M25.6504 7.00157C16.9072 7.21429 9.77917 14.3574 9.56358 23.1268C9.35142 31.8893 15.9354 39.156 24.4083 40V39.2726C24.4083 38.7409 24.7333 38.3051 25.1371 38.3051H32.426C33.1857 38.3051 33.9317 38.0993 34.5819 37.7047C39.3624 34.809 42.5586 29.5495 42.5586 23.542C42.5586 14.2682 34.948 6.77856 25.6504 7.005V7.00157ZM18.2692 21.6275C18.2692 20.8144 19.0083 20.1557 19.922 20.1557C20.3806 20.1557 20.7912 20.3203 21.0923 20.5879C21.39 20.8521 21.5748 21.2227 21.5748 21.6275V23.3567C21.5748 24.1698 20.8357 24.8285 19.922 24.8285C19.0083 24.8285 18.2692 24.1698 18.2692 23.3567V21.6275ZM18.6319 28.6815C23.7307 31.0625 28.4052 31.2306 33.4903 28.6815C29.6302 32.9015 22.5467 32.7677 18.6319 28.6815ZM33.8496 23.3567C33.8496 24.1698 33.107 24.8285 32.1968 24.8285C31.2865 24.8285 30.5439 24.1698 30.5439 23.3567V21.6275C30.5439 20.8144 31.2831 20.1557 32.1968 20.1557C32.6519 20.1557 33.0659 20.3203 33.3637 20.5879C33.6648 20.8521 33.8496 21.2227 33.8496 21.6275V23.3567Z" fill="#FB5755" fill-opacity="0.5"/>
<g id="Group_2">
<path id="Vector_2" d="M46.5586 30C46.5586 30 45.7324 39.6453 33.678 40C33.6117 40 33.5586 39.9468 33.5586 39.8758V39.5317C33.5586 39.4608 33.6117 39.404 33.678 39.4076C34.0795 39.4253 35.4565 39.4537 37.1354 39.0351C37.1354 39.0351 37.1365 39.0351 37.1387 39.0351C39.249 38.5101 41.8636 37.2827 43.7117 34.4697C43.7151 34.4661 43.7184 34.4626 43.7184 34.4555C44.4848 33.2849 45.1153 31.8446 45.5234 30.0674L46.5586 30.0035V30Z" fill="#FB5755"/>
<path id="Vector_3" d="M34.5586 39.5433V40.4567C34.5586 40.7552 34.2855 41 33.9524 41H26.1681C25.8317 41 25.5586 40.7552 25.5586 40.4567V39.5433C25.5586 39.2448 25.8317 39 26.1681 39H33.9524C34.2855 39 34.5586 39.2448 34.5586 39.5433Z" fill="#FB5755"/>
</g>
<g id="Group_3">
<path id="Vector_4" d="M3.55859 28.9864C3.47762 28.9966 3.4007 29 3.31568 29C1.79341 29 0.558594 27.4339 0.558594 25.5C0.558594 23.5661 1.78936 22 3.31568 22C3.38855 22 3.46143 22.0034 3.5343 22.0136C3.51811 22.1158 3.51001 22.2145 3.51001 22.32V28.5642C3.51001 28.7106 3.52621 28.8536 3.55859 28.9898V28.9864Z" fill="#FB5755"/>
<path id="Vector_5" d="M9.55859 21.1303V29.8697C9.55859 30.1972 9.40504 30.4965 9.15936 30.7007C8.94055 30.8873 8.64497 31 8.32251 31H6.98278C6.96358 30.9542 6.94823 30.9085 6.93671 30.8627C6.94823 30.9085 6.95975 30.9542 6.97126 31H6.0346C4.83307 31 3.82731 30.2148 3.60466 29.169C3.57395 29.0246 3.55859 28.8803 3.55859 28.7289V22.2711C3.55859 22.162 3.56627 22.0599 3.58163 21.9542C3.74669 20.8592 4.76781 20.0106 6.00773 20H8.32251C9.00581 20 9.55859 20.507 9.55859 21.1303Z" fill="#FB5755"/>
</g>
<g id="Group_4">
<path id="Vector_6" d="M49.5586 28.9864C49.6396 28.9966 49.7165 29 49.8015 29C51.3238 29 52.5586 27.4339 52.5586 25.5C52.5586 23.5661 51.3278 22 49.8015 22C49.7286 22 49.6558 22.0034 49.5829 22.0136C49.5991 22.1158 49.6072 22.2145 49.6072 22.32V28.5642C49.6072 28.7106 49.591 28.8536 49.5586 28.9898V28.9864Z" fill="#FB5755"/>
<path id="Vector_7" d="M43.5586 21.1303V29.8697C43.5586 30.1972 43.7121 30.4965 43.9578 30.7007C44.1766 30.8873 44.4722 31 44.7947 31H46.1344C46.1536 30.9542 46.169 30.9085 46.1805 30.8627C46.169 30.9085 46.1574 30.9542 46.1459 31H47.0826C48.2841 31 49.2899 30.2148 49.5125 29.169C49.5432 29.0246 49.5586 28.8803 49.5586 28.7289V22.2711C49.5586 22.162 49.5509 22.0599 49.5356 21.9542C49.3705 20.8592 48.3494 20.0106 47.1095 20H44.7947C44.1114 20 43.5586 20.507 43.5586 21.1303Z" fill="#FB5755"/>
</g>
<g id="Group_5">
<path id="Vector_8" d="M46.5586 18.9695H44.827C44.2921 16.0488 42.9513 13.3751 41.0243 11.1447C39.4435 9.31714 37.4684 7.78399 35.2122 6.65698C32.4965 5.29644 29.3761 4.52479 26.0603 4.52479C22.7445 4.52479 19.6207 5.29644 16.905 6.65698C14.443 7.88553 12.3136 9.59805 10.6677 11.6524C8.96697 13.7778 7.78399 16.2654 7.28679 18.9695H5.92206C5.79862 18.9695 5.67518 18.9831 5.55859 19C6.26496 14.2956 8.68923 10.1226 12.2073 7.09019C12.3788 6.94127 12.5537 6.79574 12.732 6.65698C16.3358 3.74975 20.9855 2 26.0603 2C31.1352 2 35.7848 3.74975 39.3852 6.65359H39.3887C39.3887 6.65359 39.3989 6.66713 39.4058 6.67052C42.9273 9.51344 45.4408 13.4597 46.3734 17.9474C46.4454 18.2859 46.5072 18.6277 46.5586 18.9695Z" fill="#FB5755"/>
<path id="Vector_9" d="M39.5586 7H39.5447C35.8993 3.86986 31.1916 1.98594 26.0534 1.98594C20.9152 1.98594 16.2074 3.86986 12.5586 7C13.0585 5.91046 13.4786 4.97397 13.9299 3.93545C17.3184 1.45757 21.4463 0 25.8972 0C30.348 0 34.4759 1.45757 37.8644 3.93545C38.524 5.10515 38.9614 5.8886 39.5586 7Z" fill="#FB5755"/>
</g>
</g>
</g>
</g>
<defs>
<clipPath id="clip0_1258_6045">
<rect width="52" height="41" fill="white" transform="translate(0.558594)"/>
</clipPath>
</defs>
</svg>
