<svg width="40" height="39" viewBox="0 0 40 39" fill="none" xmlns="http://www.w3.org/2000/svg">
<g id="Group">
<g id="Group_2">
<path id="Vector" d="M31.2198 28.3614V30.4137C31.2198 30.5952 31.1465 30.7692 31.0159 30.8975C30.8853 31.0258 30.7081 31.0978 30.5235 31.0978H9.63075C9.44606 31.0978 9.26894 31.0258 9.13835 30.8975C9.00776 30.7692 8.93439 30.5952 8.93439 30.4137V28.3614C8.93439 27.6357 8.64093 26.9396 8.11856 26.4265C7.5962 25.9133 6.88771 25.625 6.14897 25.625H3.36355C2.62481 25.625 1.91632 25.9133 1.39396 26.4265C0.871588 26.9396 0.578125 27.6357 0.578125 28.3614L0.578125 34.5184C0.578125 35.6075 1.01853 36.652 1.80247 37.4222C2.5864 38.1923 3.64965 38.625 4.7583 38.625H35.398C35.9469 38.625 36.4905 38.5188 36.9976 38.3124C37.5048 38.106 37.9656 37.8035 38.3538 37.4222C38.7419 37.0409 39.0499 36.5881 39.2599 36.0899C39.47 35.5917 39.5781 35.0577 39.5781 34.5184V28.3614C39.5781 27.6357 39.2847 26.9396 38.7623 26.4265C38.2399 25.9133 37.5314 25.625 36.7927 25.625H34.0052C33.2665 25.625 32.558 25.9133 32.0357 26.4265C31.5133 26.9396 31.2198 27.6357 31.2198 28.3614Z" fill="#FB5755"/>
<path id="Vector_2" d="M24.3518 13.6802V3.12878C24.3518 2.39843 24.0647 1.698 23.5535 1.18156C23.0423 0.665129 22.3489 0.375 21.626 0.375L17.5352 0.375C16.8123 0.375 16.119 0.665129 15.6078 1.18156C15.0966 1.698 14.8094 2.39843 14.8094 3.12878V13.6802C14.8094 13.8628 14.7376 14.0379 14.6098 14.167C14.482 14.2961 14.3087 14.3687 14.1279 14.3687H10.9351C10.6759 14.3698 10.4223 14.4456 10.2042 14.5872C9.9861 14.7288 9.8125 14.9303 9.70377 15.1681C9.59504 15.4059 9.5557 15.6701 9.59036 15.9296C9.62503 16.1892 9.73226 16.4334 9.89948 16.6336L18.544 26.9088C18.6719 27.0553 18.8292 27.1727 19.0054 27.2531C19.1816 27.3334 19.3728 27.375 19.5662 27.375C19.7595 27.375 19.9507 27.3334 20.1269 27.2531C20.3032 27.1727 20.4604 27.0553 20.5883 26.9088L29.2568 16.6366C29.424 16.4364 29.5312 16.1922 29.5659 15.9327C29.6006 15.6731 29.5612 15.4089 29.4525 15.1711C29.3437 14.9334 29.1702 14.7319 28.952 14.5902C28.7339 14.4486 28.4804 14.3728 28.2211 14.3717H25.0283C24.8476 14.3717 24.6742 14.2992 24.5464 14.17C24.4186 14.0409 24.3468 13.8658 24.3468 13.6832L24.3518 13.6802Z" fill="#FB5755"/>
</g>
</g>
</svg>
