<svg xmlns="http://www.w3.org/2000/svg" width="48" height="48" viewBox="0 0 48 48" fill="none">
	<path d="M0 0H48V48H0V0Z" fill="white" fill-opacity="0.01"/>
	<path fill-rule="evenodd" clip-rule="evenodd" d="M39.1109 5C42.4246 5 45.1109 7.68629 45.1109 11V31.7222C45.1109 35.0359 42.4246 37.7222 39.1109 37.7222H23.8885C23.2675 37.7222 22.6551 37.8668 22.0996 38.1445L12.3887 43V37.7222H8.88867C5.57496 37.7222 2.88867 35.0359 2.88867 31.7222V11C2.88867 7.68629 5.57497 5 8.88868 5H39.1109ZM13.4442 17.1389C14.6101 17.1389 15.5553 18.0841 15.5553 19.25V22.4167C15.5553 23.5826 14.6101 24.5278 13.4442 24.5278C12.2783 24.5278 11.3331 23.5826 11.3331 22.4167V19.25C11.3331 18.0841 12.2783 17.1389 13.4442 17.1389ZM23.9998 17.1389C25.1657 17.1389 26.1109 18.0841 26.1109 19.25V22.4167C26.1109 23.5826 25.1657 24.5278 23.9998 24.5278C22.8338 24.5278 21.8886 23.5826 21.8886 22.4167V19.25C21.8886 18.0841 22.8338 17.1389 23.9998 17.1389ZM36.6664 19.25C36.6664 18.0841 35.7212 17.1389 34.5553 17.1389C33.3894 17.1389 32.4442 18.0841 32.4442 19.25V22.4167C32.4442 23.5826 33.3894 24.5278 34.5553 24.5278C35.7212 24.5278 36.6664 23.5826 36.6664 22.4167V19.25Z" fill="white"/>
</svg>