<svg width="390" height="62" viewBox="0 0 390 62" fill="none" xmlns="http://www.w3.org/2000/svg">
<g clip-path="url(#clip0_1693_3784)">
<path d="M129.591 51.1499C129.169 51.1499 128.901 50.9581 128.786 50.5744L127.289 45.452C127.213 45.2985 127.117 45.2218 127.001 45.2218H113.879C113.764 45.2218 113.668 45.2985 113.591 45.452L112.095 50.5744C111.98 50.9581 111.711 51.1499 111.289 51.1499H102.483C102.253 51.1499 102.08 51.0923 101.965 50.9772C101.85 50.8238 101.831 50.6127 101.908 50.3441L114.224 11.4371C114.339 11.0534 114.589 10.8616 114.973 10.8616H125.85C126.234 10.8616 126.483 11.0534 126.599 11.4371L138.973 50.3441C139.011 50.4209 139.03 50.5168 139.03 50.6319C139.03 50.9772 138.819 51.1499 138.397 51.1499H129.591ZM115.893 37.5094C115.855 37.7396 115.932 37.8548 116.124 37.8548H124.699C124.93 37.8548 125.006 37.7396 124.93 37.5094L120.555 22.7179C120.517 22.5644 120.459 22.5068 120.383 22.5452C120.306 22.5452 120.248 22.6027 120.21 22.7179L115.893 37.5094ZM147.768 51.1499C147.384 51.1499 147.135 50.9581 147.02 50.5744L137.984 22.1423C137.945 22.0656 137.926 21.9696 137.926 21.8545C137.926 21.5092 138.137 21.3365 138.559 21.3365H147.538C147.96 21.3365 148.228 21.5284 148.344 21.9121L152.142 37.7396C152.18 37.8548 152.238 37.9123 152.315 37.9123C152.392 37.9123 152.449 37.8548 152.487 37.7396L156.344 21.9121C156.459 21.5284 156.727 21.3365 157.149 21.3365L166.07 21.4517C166.301 21.4517 166.473 21.5284 166.588 21.6819C166.703 21.797 166.723 21.9888 166.646 22.2574L157.667 50.5744C157.552 50.9581 157.303 51.1499 156.919 51.1499H147.768ZM175.114 18.7466C173.656 18.7466 172.447 18.2861 171.488 17.3653C170.567 16.406 170.107 15.1974 170.107 13.7393C170.107 12.2429 170.567 11.0342 171.488 10.1134C172.447 9.19249 173.656 8.73205 175.114 8.73205C176.572 8.73205 177.762 9.19249 178.683 10.1134C179.642 11.0342 180.121 12.2429 180.121 13.7393C180.121 15.159 179.642 16.3485 178.683 17.3077C177.762 18.267 176.572 18.7466 175.114 18.7466ZM170.97 51.1499C170.778 51.1499 170.606 51.0923 170.452 50.9772C170.337 50.8238 170.28 50.6511 170.28 50.4592V22.0848C170.28 21.8929 170.337 21.7394 170.452 21.6243C170.606 21.4708 170.778 21.3941 170.97 21.3941H179.143C179.335 21.3941 179.488 21.4708 179.603 21.6243C179.757 21.7394 179.834 21.8929 179.834 22.0848V50.4592C179.834 50.6511 179.757 50.8238 179.603 50.9772C179.488 51.0923 179.335 51.1499 179.143 51.1499H170.97ZM197.21 20.9337C199.781 20.9337 202.102 21.3749 204.174 22.2574C206.246 23.1016 207.877 24.291 209.066 25.8258C210.255 27.3222 210.85 28.9913 210.85 30.8331V50.4592C210.85 50.6511 210.773 50.8238 210.62 50.9772C210.505 51.0923 210.351 51.1499 210.16 51.1499H201.987C201.795 51.1499 201.622 51.0923 201.469 50.9772C201.354 50.8238 201.296 50.6511 201.296 50.4592V48.4448C201.296 48.2913 201.258 48.2146 201.181 48.2146C201.104 48.1762 201.028 48.2338 200.951 48.3873C199.493 50.536 196.999 51.6103 193.469 51.6103C190.399 51.6103 187.943 50.9005 186.102 49.4808C184.298 48.0228 183.397 45.8932 183.397 43.0922C183.397 40.1378 184.413 37.8548 186.447 36.2432C188.519 34.6317 191.512 33.8259 195.426 33.8259H201.008C201.2 33.8259 201.296 33.73 201.296 33.5381V32.4446C201.296 31.4086 200.951 30.6029 200.26 30.0273C199.569 29.4134 198.61 29.1064 197.382 29.1064C196.462 29.1064 195.656 29.2791 194.965 29.6244C194.313 29.9698 193.891 30.411 193.699 30.9482C193.507 31.3703 193.238 31.5621 192.893 31.5237L184.605 30.4302C184.145 30.3535 183.915 30.1808 183.915 29.9122C184.068 28.2239 184.72 26.7083 185.871 25.3654C187.061 23.9841 188.634 22.9097 190.591 22.1423C192.586 21.3365 194.792 20.9337 197.21 20.9337ZM196.289 44.7613C197.747 44.7613 198.936 44.3968 199.857 43.6678C200.816 42.9004 201.296 41.9028 201.296 40.6749V39.2936C201.296 39.1018 201.2 39.0059 201.008 39.0059H197.555C196.097 39.0059 194.965 39.2553 194.159 39.7541C193.392 40.2529 193.008 41.0011 193.008 41.9987C193.008 42.8428 193.296 43.5143 193.872 44.0131C194.447 44.5119 195.253 44.7613 196.289 44.7613ZM233.208 28.3582C233.208 28.5501 233.131 28.7227 232.978 28.8762C232.863 28.9913 232.709 29.0489 232.517 29.0489H227.28C227.088 29.0489 226.992 29.1448 226.992 29.3367V39.8116C226.992 41.9987 227.875 43.0922 229.64 43.0922H231.769C231.961 43.0922 232.114 43.169 232.23 43.3225C232.383 43.4376 232.46 43.591 232.46 43.7829V50.4592C232.46 50.8813 232.23 51.1307 231.769 51.2075C229.927 51.2842 228.584 51.3226 227.74 51.3226C224.402 51.3226 221.927 50.8046 220.316 49.7686C218.704 48.6942 217.879 46.6798 217.841 43.7253V29.3367C217.841 29.1448 217.745 29.0489 217.553 29.0489H214.272C214.081 29.0489 213.908 28.9913 213.754 28.8762C213.639 28.7227 213.582 28.5501 213.582 28.3582V22.0848C213.582 21.8929 213.639 21.7394 213.754 21.6243C213.908 21.4708 214.081 21.3941 214.272 21.3941H217.553C217.745 21.3941 217.841 21.2982 217.841 21.1063V14.1422C217.841 13.9504 217.898 13.7969 218.014 13.6818C218.167 13.5283 218.34 13.4515 218.532 13.4515H226.301C226.493 13.4515 226.647 13.5283 226.762 13.6818C226.915 13.7969 226.992 13.9504 226.992 14.1422V21.1063C226.992 21.2982 227.088 21.3941 227.28 21.3941H232.517C232.709 21.3941 232.863 21.4708 232.978 21.6243C233.131 21.7394 233.208 21.8929 233.208 22.0848V28.3582ZM250.465 51.6103C247.012 51.6103 244.076 50.6895 241.659 48.8477C239.242 47.006 237.63 44.5119 236.824 41.3656C236.364 39.7924 236.134 38.0658 236.134 36.1857C236.134 34.0753 236.383 32.2144 236.882 30.6029C237.765 27.5716 239.395 25.2119 241.774 23.5236C244.191 21.797 247.108 20.9337 250.523 20.9337C253.899 20.9337 256.758 21.797 259.098 23.5236C261.439 25.2119 263.069 27.5525 263.99 30.5453C264.527 32.2719 264.796 34.1137 264.796 36.0706C264.796 37.8356 264.585 39.5238 264.163 41.1354C263.357 44.3584 261.746 46.91 259.328 48.7902C256.911 50.6703 253.957 51.6103 250.465 51.6103ZM250.465 43.4376C251.578 43.4376 252.499 43.0922 253.228 42.4016C253.957 41.6726 254.494 40.6941 254.839 39.4663C255.069 38.4687 255.184 37.3751 255.184 36.1857C255.184 35.0346 255.05 33.9218 254.782 32.8475C254.475 31.658 253.957 30.7372 253.228 30.0849C252.499 29.4326 251.578 29.1064 250.465 29.1064C248.24 29.1064 246.781 30.3535 246.091 32.8475C245.861 33.7684 245.745 34.8811 245.745 36.1857C245.745 37.3751 245.861 38.4687 246.091 39.4663C246.398 40.6941 246.916 41.6726 247.645 42.4016C248.412 43.0922 249.352 43.4376 250.465 43.4376ZM284.746 20.9912C286.127 20.9912 287.201 21.2406 287.969 21.7394C288.276 21.9313 288.391 22.219 288.314 22.6027L286.99 30.6029C286.952 31.0633 286.683 31.1976 286.184 31.0057C285.494 30.8523 284.841 30.7755 284.228 30.7755C283.575 30.7755 283.076 30.8139 282.731 30.8906C281.542 31.0441 280.525 31.5045 279.681 32.2719C278.875 33.0393 278.472 34.0561 278.472 35.3223V50.4592C278.472 50.6511 278.395 50.8238 278.242 50.9772C278.127 51.0923 277.973 51.1499 277.781 51.1499H269.609C269.417 51.1499 269.244 51.0923 269.091 50.9772C268.976 50.8238 268.918 50.6511 268.918 50.4592V22.0848C268.918 21.8929 268.976 21.7394 269.091 21.6243C269.244 21.4708 269.417 21.3941 269.609 21.3941H277.781C277.973 21.3941 278.127 21.4708 278.242 21.6243C278.395 21.7394 278.472 21.8929 278.472 22.0848V23.9265C278.472 24.0416 278.51 24.1184 278.587 24.1567C278.664 24.1951 278.721 24.1567 278.76 24.0416C280.295 22.008 282.29 20.9912 284.746 20.9912ZM306.539 51.6103C303.469 51.6103 300.764 50.9964 298.423 49.7686C296.121 48.5408 294.318 46.8141 293.013 44.5887C291.747 42.3632 291.114 39.7924 291.114 36.8763V25.0776C291.114 22.1615 291.747 19.6099 293.013 17.4228C294.318 15.1974 296.121 13.4707 298.423 12.2429C300.764 11.0151 303.469 10.4011 306.539 10.4011C309.57 10.4011 312.256 10.9959 314.596 12.1853C316.937 13.3364 318.74 14.9288 320.006 16.9624C321.311 18.996 321.963 21.2406 321.963 23.6963V23.9841C321.963 24.1759 321.887 24.3486 321.733 24.5021C321.618 24.6172 321.464 24.6747 321.273 24.6747H313.1C312.908 24.6747 312.735 24.6172 312.582 24.5021C312.467 24.3486 312.409 24.1759 312.409 23.9841C312.409 22.4876 311.872 21.2214 310.798 20.1854C309.762 19.1111 308.342 18.5739 306.539 18.5739C304.774 18.5739 303.354 19.1495 302.28 20.3006C301.205 21.4517 300.668 22.9481 300.668 24.7898V37.1641C300.668 39.0059 301.263 40.5023 302.452 41.6534C303.642 42.8045 305.138 43.38 306.941 43.38C308.63 43.38 309.992 42.9388 311.028 42.0563C312.064 41.1354 312.582 39.8692 312.582 38.2576V36.6461C312.582 36.4543 312.486 36.3583 312.294 36.3583H306.539C306.347 36.3583 306.174 36.3008 306.021 36.1857C305.905 36.0322 305.848 35.8595 305.848 35.6677V29.3367C305.848 29.1448 305.905 28.9913 306.021 28.8762C306.174 28.7227 306.347 28.646 306.539 28.646H321.273C321.464 28.646 321.618 28.7227 321.733 28.8762C321.887 28.9913 321.963 29.1448 321.963 29.3367V37.1641C321.963 40.0418 321.311 42.5742 320.006 44.7613C318.74 46.9484 316.937 48.6367 314.596 49.8261C312.294 51.0156 309.608 51.6103 306.539 51.6103ZM340.113 51.6103C336.66 51.6103 333.725 50.6895 331.307 48.8477C328.89 47.006 327.279 44.5119 326.473 41.3656C326.012 39.7924 325.782 38.0658 325.782 36.1857C325.782 34.0753 326.031 32.2144 326.53 30.6029C327.413 27.5716 329.044 25.2119 331.422 23.5236C333.84 21.797 336.756 20.9337 340.171 20.9337C343.547 20.9337 346.406 21.797 348.746 23.5236C351.087 25.2119 352.718 27.5525 353.639 30.5453C354.176 32.2719 354.444 34.1137 354.444 36.0706C354.444 37.8356 354.233 39.5238 353.811 41.1354C353.005 44.3584 351.394 46.91 348.977 48.7902C346.559 50.6703 343.605 51.6103 340.113 51.6103ZM340.113 43.4376C341.226 43.4376 342.147 43.0922 342.876 42.4016C343.605 41.6726 344.142 40.6941 344.487 39.4663C344.718 38.4687 344.833 37.3751 344.833 36.1857C344.833 35.0346 344.698 33.9218 344.43 32.8475C344.123 31.658 343.605 30.7372 342.876 30.0849C342.147 29.4326 341.226 29.1064 340.113 29.1064C337.888 29.1064 336.43 30.3535 335.739 32.8475C335.509 33.7684 335.394 34.8811 335.394 36.1857C335.394 37.3751 335.509 38.4687 335.739 39.4663C336.046 40.6941 336.564 41.6726 337.293 42.4016C338.06 43.0922 339 43.4376 340.113 43.4376ZM376.984 11.5522C376.984 11.3604 377.041 11.2069 377.156 11.0918C377.31 10.9383 377.483 10.8616 377.674 10.8616H385.847C386.039 10.8616 386.193 10.9383 386.308 11.0918C386.461 11.2069 386.538 11.3604 386.538 11.5522V50.4592C386.538 50.6511 386.461 50.8238 386.308 50.9772C386.193 51.0923 386.039 51.1499 385.847 51.1499H377.674C377.483 51.1499 377.31 51.0923 377.156 50.9772C377.041 50.8238 376.984 50.6511 376.984 50.4592V48.5599C376.984 48.4448 376.945 48.3873 376.869 48.3873C376.792 48.3489 376.715 48.3681 376.638 48.4448C375.104 50.5552 372.897 51.6103 370.02 51.6103C367.411 51.6103 365.089 50.8238 363.056 49.2506C361.06 47.6774 359.641 45.5287 358.796 42.8045C358.183 40.7325 357.876 38.507 357.876 36.1281C357.876 33.4422 358.278 31.0249 359.084 28.8762C359.967 26.4973 361.367 24.5788 363.286 23.1207C365.243 21.6627 367.602 20.9337 370.365 20.9337C373.128 20.9337 375.219 21.8354 376.638 23.6387C376.715 23.7538 376.792 23.7922 376.869 23.7538C376.945 23.7155 376.984 23.6387 376.984 23.5236V11.5522ZM376.005 41.1929C376.658 39.9651 376.984 38.3344 376.984 36.3008C376.984 34.0753 376.619 32.3487 375.89 31.1209C375.084 29.7779 373.953 29.1064 372.495 29.1064C370.921 29.1064 369.751 29.7971 368.984 31.1784C368.216 32.483 367.833 34.1904 367.833 36.3008C367.833 38.3344 368.178 39.9843 368.869 41.2505C369.674 42.7085 370.883 43.4376 372.495 43.4376C374.029 43.4376 375.2 42.6894 376.005 41.1929Z" fill="#CF0E08"/>
<path d="M64.7535 19.5855H82.2114C82.4555 19.5855 82.6997 19.5961 82.9386 19.6093L88.8596 10.9785C88.6181 10.9706 82.4529 10.96 82.2087 10.96H64.7509C56.9933 10.96 50.2416 15.3124 46.8047 21.6955L53.0495 30.7526C53.3229 24.5495 58.4663 19.5881 64.7482 19.5881L64.7535 19.5855Z" fill="url(#paint0_linear_1693_3784)"/>
<path d="M17.2521 29.6169L23.8339 32.4656L32.2762 20.5149L40.0444 31.5099C41.1113 31.3087 42.1384 31.1525 43.1283 31.0386C43.5291 28.55 44.7393 26.8318 46.4617 26.4293C46.69 26.3764 46.9235 26.3499 47.1571 26.3473L38.7732 14.19C35.6388 9.64694 28.9136 9.64694 25.782 14.19L15.4766 29.1324C16.087 29.2092 16.6815 29.3707 17.2521 29.6169Z" fill="url(#paint1_linear_1693_3784)"/>
<path d="M86.5015 36.0556V27.4275H67.6795L61.862 33.2308L60.2723 34.8166L59.0329 36.053H77.8549V42.9497H64.7549C61.6364 42.9497 58.802 41.7266 56.7027 39.7383L56.6735 39.7118C56.5434 39.5874 56.4161 39.4603 56.2913 39.3306L55.7207 38.7614L53.5232 35.5738L53.003 34.8193C52.9871 34.8616 52.9765 34.9066 52.9579 34.949C52.7456 35.4653 52.4829 35.9312 52.2015 36.3575L52.8067 36.376L52.796 36.6328V36.6487C52.6182 40.8476 50.9436 42.1131 49.5661 42.4361C49.322 42.4943 49.0699 42.5234 48.8177 42.5234C48.5364 42.5234 48.2604 42.489 47.9844 42.4202L48.3506 42.6214C49.1468 43.0556 49.6113 43.8948 49.5794 44.7897C53.3109 48.9542 58.7303 51.5831 64.7575 51.5831H86.5068V36.0583L86.5015 36.0556Z" fill="url(#paint2_linear_1693_3784)"/>
<path d="M11.5688 45.2554L10.9451 44.4955C10.8125 44.3314 10.6346 44.2096 10.4329 44.1381L8.4743 43.4524C7.63829 43.1612 7.13404 42.3431 7.25081 41.4668C7.36759 40.5905 8.06293 39.9313 8.9467 39.8651L10.6559 39.7327L11.1309 38.6287C11.529 37.7021 12.3119 37.019 13.2461 36.7331L11.1124 35.457L10.9531 35.6874L-0.0078125 51.5802H10.3294L13.6575 46.8703C12.856 46.5023 12.1394 45.9543 11.5662 45.2554H11.5688Z" fill="url(#paint3_linear_1693_3784)"/>
<path d="M50.7069 32.823C48.7642 32.3412 44.1436 31.817 35.7385 34.1467C35.7385 34.1467 30.6004 32.3835 26.6194 34.3215C25.8869 34.6789 25.0429 34.7186 24.2972 34.3956L16.6166 31.0704C15.3294 30.5144 13.867 30.5276 12.5905 31.1101L10.5655 32.0314C10.0639 32.2591 10.0267 32.9554 10.4991 33.236L20.4569 39.1928L18.3735 39.9977C17.8188 40.2121 17.1925 40.1062 16.7386 39.725L15.3878 38.5919C14.4695 37.8215 13.0655 38.155 12.5931 39.2537L11.7385 41.242L9.06864 41.4459C8.78732 41.467 8.7369 41.8562 9.0023 41.9515L10.9609 42.6372C11.4386 42.804 11.858 43.0979 12.1791 43.4897L12.8001 44.2495C13.4716 45.0676 14.4191 45.6103 15.4674 45.7692C17.8507 46.1266 22.9888 46.3464 32.9359 44.6943C32.9359 44.6943 35.0909 44.2442 37.6467 44.9432C39.8309 45.5415 44.1356 46.394 47.4372 45.4462C48.106 45.2529 48.1962 44.3449 47.5885 44.0113L45.107 42.6558C44.8204 42.4996 44.8602 42.076 45.1733 41.978C46.4871 41.5729 48.7562 40.4795 48.719 37.7447C48.719 37.7447 50.6166 36.4342 51.4845 34.3427C51.7472 33.7099 51.3783 32.9898 50.7095 32.823H50.7069ZM34.0824 34.5703C31.0011 34.4962 29.422 35.2825 29.422 35.2825L31.2373 35.4705L28.9708 36.3336L26.5292 35.3964C28.2967 33.4081 34.0824 34.5703 34.0824 34.5703ZM16.2317 43.4182L10.0931 41.8324L11.1334 41.7159L16.9324 43.4182H16.2317ZM24.0556 43.2117L19.942 44.0245C19.7668 44.0589 19.6076 43.9213 19.6155 43.7465L19.6368 43.2356C19.6447 43.0132 19.4855 42.8173 19.2626 42.7855L17.5799 42.5419C17.1473 42.4784 16.7652 42.2269 16.5396 41.8562L15.0189 39.3676C14.9578 39.2696 15.0958 39.1717 15.1701 39.259L16.6298 40.9799C16.9403 41.3453 17.4526 41.4723 17.8984 41.2897L20.5232 40.2148C20.8576 40.0771 21.2371 40.1248 21.5291 40.3366L24.2574 42.3275C24.605 42.5816 24.4856 43.127 24.061 43.2117H24.0556ZM14.4323 32.3385C14.1722 32.2459 13.8962 32.1982 13.6202 32.2035L12.0172 32.2273C11.8527 32.2273 11.8261 31.9943 11.9854 31.9599L13.729 31.576C13.9626 31.5257 14.2067 31.5443 14.4297 31.6316L35.4837 39.9447L14.4297 32.3385H14.4323ZM46.986 44.5064L43.6659 43.6168C43.3766 43.5612 43.0793 43.5533 42.7874 43.5903L37.8165 44.2548L42.9732 42.8993C43.2041 42.8384 43.4482 42.8543 43.6712 42.9417L46.9887 44.5064H46.986ZM47.8937 35.5234C47.684 35.5737 47.477 35.4414 47.4266 35.2322L47.1081 33.8476L46.6569 35.7458L45.866 35.9709C45.7094 36.0159 45.6033 36.1562 45.6033 36.3177V37.3581C45.6033 37.6202 45.4361 37.8506 45.1893 37.9353L41.5188 39.1743C40.0459 39.672 38.4455 39.6456 36.9911 39.1002L31.4204 37.0113C31.1577 36.9134 31.1789 36.5374 31.4496 36.4659L43.5783 33.3207C43.9844 33.2148 44.3984 33.4478 44.5178 33.8476L45.0778 35.4414C45.1043 35.5181 45.2185 35.5049 45.2264 35.4228L45.3936 33.7073C45.4308 33.4346 45.6537 33.2254 45.9271 33.2042C50.1548 32.868 50.6671 33.8449 50.6671 33.8449C49.7276 34.9622 48.5041 35.3778 47.8937 35.5234Z" fill="url(#paint4_linear_1693_3784)"/>
<path d="M43.4625 37.7126L43.2156 36.8786C43.1493 36.6536 42.9131 36.5212 42.6848 36.5848L36.3047 38.3454L42.5681 37.4081L42.8892 37.9323C42.9662 38.0594 43.1201 38.1177 43.2634 38.078C43.42 38.0329 43.5102 37.8688 43.4651 37.7153L43.4625 37.7126Z" fill="url(#paint5_linear_1693_3784)"/>
<path d="M45.2151 32.7516C45.2496 30.6707 45.9104 29.0663 46.98 28.8148C48.299 28.5077 49.7799 30.3715 50.454 33.0799L51.1069 33.0375C50.3452 29.8129 48.498 27.5863 46.826 27.9755C45.4911 28.2879 44.6418 30.1782 44.5781 32.6086L45.2151 32.7489V32.7516Z" fill="url(#paint6_linear_1693_3784)"/>
<path d="M51.2111 36.3311C51.2111 36.3974 51.2058 36.4585 51.2031 36.5222C51.2031 36.5143 51.2031 36.5037 51.2031 36.4957L51.2084 36.3311H51.2111Z" fill="url(#paint7_linear_1693_3784)"/>
<path d="M49.0329 40.0506C48.1385 40.2597 47.1698 39.4681 46.4293 38.0941L46.0312 38.7401C46.923 40.2756 48.0934 41.144 49.1895 40.8872C50.4926 40.5827 51.103 38.8592 51.1906 36.5215C51.0632 38.3641 50.0175 39.8176 49.0355 40.0479L49.0329 40.0506Z" fill="url(#paint8_linear_1693_3784)"/>
<path d="M42.5628 35.7185L42.3184 35.7815C42.2288 35.8045 42.175 35.8956 42.1981 35.9847L42.2611 36.2283C42.2842 36.3175 42.3755 36.3711 42.465 36.348L42.7095 36.2851C42.799 36.262 42.8529 36.171 42.8298 36.0818L42.7667 35.8383C42.7436 35.7491 42.6523 35.6954 42.5628 35.7185Z" fill="url(#paint9_linear_1693_3784)"/>
<path d="M41.8206 35.9111L41.5762 35.9741C41.4866 35.9972 41.4328 36.0882 41.4559 36.1774L41.5189 36.4209C41.542 36.5101 41.6333 36.5637 41.7228 36.5407L41.9673 36.4777C42.0568 36.4546 42.1107 36.3636 42.0876 36.2744L42.0245 36.0309C42.0015 35.9417 41.9102 35.8881 41.8206 35.9111Z" fill="url(#paint10_linear_1693_3784)"/>
<path d="M41.0863 36.0977L40.8418 36.1606C40.7523 36.1837 40.6984 36.2747 40.7215 36.3639L40.7845 36.6074C40.8076 36.6966 40.8989 36.7503 40.9885 36.7272L41.2329 36.6642C41.3225 36.6412 41.3763 36.5501 41.3532 36.4609L41.2902 36.2174C41.2671 36.1282 41.1758 36.0746 41.0863 36.0977Z" fill="url(#paint11_linear_1693_3784)"/>
<path d="M40.3128 36.2979L40.0684 36.3608C39.9788 36.3839 39.925 36.4749 39.9481 36.5641L40.0111 36.8076C40.0342 36.8968 40.1255 36.9505 40.215 36.9274L40.4595 36.8644C40.549 36.8413 40.6029 36.7503 40.5798 36.6611L40.5167 36.4176C40.4936 36.3284 40.4023 36.2748 40.3128 36.2979Z" fill="url(#paint12_linear_1693_3784)"/>
<path d="M39.5238 36.5042L39.2793 36.5671C39.1898 36.5902 39.1359 36.6812 39.159 36.7704L39.222 37.0139C39.2451 37.1031 39.3364 37.1567 39.426 37.1337L39.6704 37.0707C39.76 37.0476 39.8138 36.9566 39.7907 36.8674L39.7277 36.6239C39.7046 36.5347 39.6133 36.4811 39.5238 36.5042Z" fill="url(#paint13_linear_1693_3784)"/>
<path d="M47.731 30.8427C47.5715 30.6388 47.428 30.5038 47.3243 30.4297C47.2632 30.5144 47.1941 30.6494 47.125 30.8268C47.3297 30.8295 47.5316 30.8348 47.731 30.8427Z" fill="url(#paint14_linear_1693_3784)"/>
<path d="M38.6878 36.7188L38.4434 36.7817C38.3538 36.8048 38.3 36.8958 38.3231 36.985L38.3861 37.2285C38.4092 37.3177 38.5005 37.3713 38.59 37.3483L38.8345 37.2853C38.924 37.2622 38.9779 37.1712 38.9548 37.082L38.8917 36.8385C38.8686 36.7493 38.7773 36.6957 38.6878 36.7188Z" fill="url(#paint15_linear_1693_3784)"/>
</g>
<defs>
<linearGradient id="paint0_linear_1693_3784" x1="67.8348" y1="30.7499" x2="67.8348" y2="10.96" gradientUnits="userSpaceOnUse">
<stop stop-color="#D01400"/>
<stop offset="1" stop-color="#890C14"/>
</linearGradient>
<linearGradient id="paint1_linear_1693_3784" x1="31.3181" y1="32.4656" x2="31.3181" y2="10.7827" gradientUnits="userSpaceOnUse">
<stop stop-color="#D01400"/>
<stop offset="1" stop-color="#890C14"/>
</linearGradient>
<linearGradient id="paint2_linear_1693_3784" x1="67.2443" y1="51.5805" x2="67.2443" y2="27.4301" gradientUnits="userSpaceOnUse">
<stop stop-color="#D01400"/>
<stop offset="1" stop-color="#890C14"/>
</linearGradient>
<linearGradient id="paint3_linear_1693_3784" x1="6.82618" y1="51.5802" x2="6.82618" y2="35.457" gradientUnits="userSpaceOnUse">
<stop stop-color="#D01400"/>
<stop offset="1" stop-color="#890C14"/>
</linearGradient>
<linearGradient id="paint4_linear_1693_3784" x1="8.82183" y1="38.3457" x2="51.5668" y2="38.3457" gradientUnits="userSpaceOnUse">
<stop stop-color="#D01400"/>
<stop offset="1" stop-color="#890C14"/>
</linearGradient>
<linearGradient id="paint5_linear_1693_3784" x1="36.3047" y1="37.4558" x2="43.4757" y2="37.4558" gradientUnits="userSpaceOnUse">
<stop stop-color="#D01400"/>
<stop offset="1" stop-color="#890C14"/>
</linearGradient>
<linearGradient id="paint6_linear_1693_3784" x1="44.5781" y1="30.5065" x2="51.1069" y2="30.5065" gradientUnits="userSpaceOnUse">
<stop stop-color="#D01400"/>
<stop offset="1" stop-color="#890C14"/>
</linearGradient>
<linearGradient id="paint7_linear_1693_3784" x1="51.2031" y1="36.4293" x2="51.2111" y2="36.4293" gradientUnits="userSpaceOnUse">
<stop stop-color="#D01400"/>
<stop offset="1" stop-color="#890C14"/>
</linearGradient>
<linearGradient id="paint8_linear_1693_3784" x1="46.0312" y1="38.7295" x2="51.1906" y2="38.7295" gradientUnits="userSpaceOnUse">
<stop stop-color="#D01400"/>
<stop offset="1" stop-color="#890C14"/>
</linearGradient>
<linearGradient id="paint9_linear_1693_3784" x1="42.1905" y1="36.0379" x2="42.8336" y2="36.0381" gradientUnits="userSpaceOnUse">
<stop stop-color="#D01400"/>
<stop offset="1" stop-color="#890C14"/>
</linearGradient>
<linearGradient id="paint10_linear_1693_3784" x1="41.4484" y1="36.2317" x2="42.0942" y2="36.2319" gradientUnits="userSpaceOnUse">
<stop stop-color="#D01400"/>
<stop offset="1" stop-color="#890C14"/>
</linearGradient>
<linearGradient id="paint11_linear_1693_3784" x1="40.714" y1="36.4182" x2="41.3571" y2="36.4184" gradientUnits="userSpaceOnUse">
<stop stop-color="#D01400"/>
<stop offset="1" stop-color="#890C14"/>
</linearGradient>
<linearGradient id="paint12_linear_1693_3784" x1="39.9384" y1="36.6151" x2="40.5842" y2="36.6153" gradientUnits="userSpaceOnUse">
<stop stop-color="#D01400"/>
<stop offset="1" stop-color="#890C14"/>
</linearGradient>
<linearGradient id="paint13_linear_1693_3784" x1="39.153" y1="36.8246" x2="39.7961" y2="36.8248" gradientUnits="userSpaceOnUse">
<stop stop-color="#D01400"/>
<stop offset="1" stop-color="#890C14"/>
</linearGradient>
<linearGradient id="paint14_linear_1693_3784" x1="47.428" y1="30.8427" x2="47.428" y2="30.427" gradientUnits="userSpaceOnUse">
<stop stop-color="#D01400"/>
<stop offset="1" stop-color="#890C14"/>
</linearGradient>
<linearGradient id="paint15_linear_1693_3784" x1="38.3159" y1="37.036" x2="38.959" y2="37.0362" gradientUnits="userSpaceOnUse">
<stop stop-color="#D01400"/>
<stop offset="1" stop-color="#890C14"/>
</linearGradient>
<clipPath id="clip0_1693_3784">
<rect width="390" height="62" fill="white"/>
</clipPath>
</defs>
</svg>
