<svg width="110" height="110" viewBox="0 0 110 110" fill="none" xmlns="http://www.w3.org/2000/svg">
<path d="M0 55C0 24.6243 24.6243 0 55 0C85.3757 0 110 24.6243 110 55C110 85.3757 85.3757 110 55 110C24.6243 110 0 85.3757 0 55Z" fill="white"/>
<path fill-rule="evenodd" clip-rule="evenodd" d="M27.2127 22.7154C20.9535 27.0685 10.3928 38.0529 8.51501 54.2338C6.06343 75.3592 20.7729 99.4571 46.3545 103.385C66.8198 106.527 82.3109 94.5738 87.4983 88.2044C99.01 72.9176 97.7309 60.2849 97.7309 60.2849C97.7309 60.2849 96.5584 66.7604 92.0816 70.5822C86.5846 75.2749 82.7017 75.3593 81.849 75.3593C79.5395 73.4838 73.5989 68.6925 67.8857 65.805C60.7441 62.1956 50.1917 56.1446 50.5115 50.1999C50.8341 44.2033 56.5871 41.6011 66.7132 42.3442C67.033 42.3677 64.5814 46.8026 62.1298 48.8197C66.429 49.3859 76.2637 50.943 79.9304 53.9154C83.5971 56.8878 82.7372 59.4002 81.849 60.2849C82.9504 60.3556 85.7289 60.1362 88.0312 58.6925C90.3335 57.2487 91.4776 55.5432 91.7619 54.8708C90.8381 55.2601 88.7987 55.7201 88.0312 54.4462C87.2638 53.1723 87.4272 51.9338 87.6048 51.4738C84.4071 51.0845 78.3102 49.5842 79.504 46.6967C80.9963 43.0873 85.2599 42.9811 86.6455 43.4058C88.0312 43.8304 90.696 44.892 91.0157 50.6245C91.028 50.8438 91.3137 50.6318 91.8062 50.2665C92.9475 49.4199 95.1993 47.7495 97.7309 48.7137C99.5429 49.4037 99.2587 53.3138 97.7309 54.4462C99.5429 54.0923 104.233 51.686 105.405 45.9536C105.492 45.5296 105.076 45.4781 104.251 45.3761C102.851 45.2027 100.273 44.8837 96.9848 42.3442C92.8064 39.117 91.6197 38.1687 91.5487 38.0979L91.7619 34.17C91.328 33.8937 90.8607 33.5972 90.3688 33.2851C86.3885 30.76 80.798 27.2134 78.3315 25.0405C75.8009 22.8111 70.4438 16.4416 68.9516 3.91506C68.6652 1.51115 67.6725 17.1848 71.0205 23.7666C71.6774 25.0581 57.5901 12.7262 55.7781 7.20595C55.7093 6.99642 56.9069 15.0616 62.4496 22.3865C63.0004 23.1144 62.0893 22.9956 60.1669 22.7449C56.2017 22.2277 47.9341 21.1493 39.3195 25.7836C24.7167 33.6393 23.5442 47.8644 24.7167 54.4462C25.5677 59.2233 27.2749 65.9112 36.1218 74.6162C38.0053 76.4694 32.6044 81.3041 23.4376 75.3593C18.1081 71.903 12.2457 66.3358 13.3116 51.4738C14.4387 35.7572 24.0384 25.2296 27.2127 22.7154ZM80.7831 32.8961L88.0312 36.2931L85.3665 37.8855C84.8335 37.1424 83.5971 35.4863 82.9149 34.8069C82.2327 34.1275 81.2094 33.2499 80.7831 32.8961Z" fill="url(#paint0_linear_1515_7541)"/>
<mask id="mask0_1515_7541" style="mask-type:alpha" maskUnits="userSpaceOnUse" x="8" y="3" width="98" height="101">
<path fill-rule="evenodd" clip-rule="evenodd" d="M27.2127 22.7154C20.9535 27.0685 10.3928 38.0529 8.51501 54.2338C6.06343 75.3592 20.7729 99.4571 46.3545 103.385C66.8198 106.527 82.3109 94.5738 87.4983 88.2044C99.01 72.9176 97.7309 60.2849 97.7309 60.2849C97.7309 60.2849 96.5584 66.7604 92.0816 70.5822C86.5846 75.2749 82.7017 75.3593 81.849 75.3593C79.5395 73.4838 73.5989 68.6925 67.8857 65.805C60.7441 62.1956 50.1917 56.1446 50.5115 50.1999C50.8341 44.2033 56.5871 41.6011 66.7132 42.3442C67.033 42.3677 64.5814 46.8026 62.1298 48.8197C66.429 49.3859 76.2637 50.943 79.9304 53.9154C83.5971 56.8878 82.7372 59.4002 81.849 60.2849C82.9504 60.3556 85.7289 60.1362 88.0312 58.6925C90.3335 57.2487 91.4776 55.5432 91.7619 54.8708C90.8381 55.2601 88.7987 55.7201 88.0312 54.4462C87.2638 53.1723 87.4272 51.9338 87.6048 51.4738C84.4071 51.0845 78.3102 49.5842 79.504 46.6967C80.9963 43.0873 85.2599 42.9811 86.6455 43.4058C88.0312 43.8304 90.696 44.892 91.0157 50.6245C91.028 50.8438 91.3137 50.6318 91.8062 50.2665C92.9475 49.4199 95.1993 47.7495 97.7309 48.7137C99.5429 49.4037 99.2587 53.3138 97.7309 54.4462C99.5429 54.0923 104.233 51.686 105.405 45.9536C105.492 45.5296 105.076 45.4781 104.251 45.3761C102.851 45.2027 100.273 44.8837 96.9848 42.3442C92.8064 39.117 91.6197 38.1687 91.5487 38.0979L91.7619 34.17C91.328 33.8937 90.8607 33.5972 90.3688 33.2851C86.3885 30.76 80.798 27.2134 78.3315 25.0405C75.8009 22.8111 70.4438 16.4416 68.9516 3.91506C68.6652 1.51115 67.6725 17.1848 71.0205 23.7666C71.6774 25.0581 57.5901 12.7262 55.7781 7.20595C55.7093 6.99642 56.9069 15.0616 62.4496 22.3865C63.0004 23.1144 62.0893 22.9956 60.1669 22.7449C56.2017 22.2277 47.9341 21.1493 39.3195 25.7836C24.7167 33.6393 23.5442 47.8644 24.7167 54.4462C25.5677 59.2233 27.2749 65.9112 36.1218 74.6162C38.0053 76.4694 32.6044 81.3041 23.4376 75.3593C18.1081 71.903 12.2457 66.3358 13.3116 51.4738C14.4387 35.7572 24.0384 25.2296 27.2127 22.7154ZM80.7831 32.8961L88.0312 36.2931L85.3665 37.8855C84.8335 37.1424 83.5971 35.4863 82.9149 34.8069C82.2327 34.1275 81.2094 33.2499 80.7831 32.8961Z" fill="url(#paint1_linear_1515_7541)"/>
</mask>
<g mask="url(#mask0_1515_7541)">
<path d="M53.4703 40.7507C58.3389 39.982 64.0943 41.421 66.9166 42.1667C65.0833 44 51.1419 44.4792 51.036 49.5926C50.9491 53.7944 55.9612 59.1425 63.2074 62.6958C75.5905 68.7679 80.4591 73.5618 82.1525 75.0532C89.0044 81.0877 88.0287 87.5368 88.0287 87.5368C88.0287 87.5368 85.2618 91.7759 79.3349 95.7193C73.4079 99.6627 68.2916 101.292 68.2916 101.292C68.2916 101.292 79.6124 92.0979 65.6417 80.8058C59.2746 75.6594 40.7697 62.8023 40.9814 53.5342C41.1736 45.1206 48.0726 41.6029 53.4703 40.7507Z" fill="url(#paint2_linear_1515_7541)"/>
<path d="M86.3868 80.393C84.7917 77.4583 82.497 75.913 81.5834 75.1666C82.7893 75.1666 88.2505 74.3153 93.0743 69.6239C96.0153 66.7635 97.3069 62.2668 97.7455 59.921C97.8551 62.2668 98.2269 66.2119 96.4728 71.6497C94.6388 77.3353 91.537 83.5917 88.0288 87.5368C88.0288 85.4043 87.689 82.7887 86.3868 80.393Z" fill="url(#paint3_linear_1515_7541)"/>
<path d="M46.7881 83.8169C44.1408 81.3327 38.2516 76.6504 35.75 74.25C35.4284 81.4512 14.3201 77.357 13.4453 55.7534C12.6948 37.2209 22.7727 26.8427 28.1333 22.0772C21.0573 26.4191 8.94238 39.9743 8.29912 55.7534C7.72107 69.9325 12.266 81.2753 20.8429 89.8532C29.9493 98.9606 40.912 102.684 46.0939 103.39C48.0237 102.861 51.1248 99.2783 52.0415 95.2541C53.1753 90.2768 48.9324 85.829 46.7881 83.8169Z" fill="url(#paint4_linear_1515_7541)"/>
</g>
<defs>
<linearGradient id="paint0_linear_1515_7541" x1="8.25" y1="53.7842" x2="105.417" y2="53.7842" gradientUnits="userSpaceOnUse">
<stop stop-color="#D243EE"/>
<stop offset="1" stop-color="#DA41F8"/>
</linearGradient>
<linearGradient id="paint1_linear_1515_7541" x1="23.1987" y1="53.7842" x2="105.417" y2="53.7842" gradientUnits="userSpaceOnUse">
<stop stop-color="#49C755"/>
<stop offset="0.985" stop-color="#0F9957"/>
</linearGradient>
<linearGradient id="paint2_linear_1515_7541" x1="64.4834" y1="40.4526" x2="64.4834" y2="100.833" gradientUnits="userSpaceOnUse">
<stop stop-color="#B03BC8"/>
<stop offset="1" stop-color="#DA8BEA"/>
</linearGradient>
<linearGradient id="paint3_linear_1515_7541" x1="98.3365" y1="61.3071" x2="88.0917" y2="86.5663" gradientUnits="userSpaceOnUse">
<stop stop-color="#EC8BFF"/>
<stop offset="1" stop-color="#D072E2"/>
</linearGradient>
<linearGradient id="paint4_linear_1515_7541" x1="30.2404" y1="22.0772" x2="30.2404" y2="102.879" gradientUnits="userSpaceOnUse">
<stop offset="0.111391" stop-color="#EC8DFF"/>
<stop offset="1" stop-color="#A238B7"/>
</linearGradient>
</defs>
</svg>
