<svg xmlns="http://www.w3.org/2000/svg" width="48" height="48" viewBox="0 0 48 48" fill="none">
  <path fill-rule="evenodd" clip-rule="evenodd" d="M13 42.7001H35C41.6 42.7001 46 39.4001 46 31.7001V16.3C46 8.60005 41.6 5.30005 35 5.30005H13C6.4 5.30005 2 8.60005 2 16.3V31.7001C2 39.4001 6.4 42.7001 13 42.7001ZM18.8498 24.1804C20.2798 25.3464 22.1498 25.9184 23.9978 25.9184C25.8458 25.9184 27.7158 25.3464 29.1238 24.1804L36.0098 18.6804C36.7358 18.1304 36.8458 17.0744 36.2738 16.3704C35.7238 15.6444 34.6678 15.5344 33.9638 16.1064L27.0778 21.6064C25.4058 22.9484 22.5678 22.9484 20.8958 21.6064L14.0098 16.1064C13.6667 15.8572 13.2406 15.7501 12.8204 15.8073C12.4002 15.8646 12.0184 16.0819 11.7545 16.4139C11.4906 16.7459 11.3651 17.1669 11.4041 17.5892C11.4431 18.0115 11.6436 18.4024 11.9638 18.6804L18.8498 24.1804Z" fill="#4781FF"/>
</svg>