<svg xmlns="http://www.w3.org/2000/svg" width="48" height="48" viewBox="0 0 48 48" fill="none">
  <path d="M15.2002 14.4H9.2002C5.88649 14.4 3.2002 17.0863 3.2002 20.4V27.6C3.2002 30.9137 5.88649 33.6 9.2002 33.6H15.2002V14.4Z" fill="#4781FF"/>
  <path d="M15.2002 14.55L32.2292 7.74763C32.886 7.48526 33.6002 7.96901 33.6002 8.67628V39.3237C33.6002 40.031 32.886 40.5147 32.2292 40.2524L15.2002 33.45" fill="#4781FF"/>
  <path fill-rule="evenodd" clip-rule="evenodd" d="M38.5002 17C38.5002 16.1716 39.1718 15.5 40.0002 15.5H42.0002C42.8286 15.5 43.5002 16.1716 43.5002 17C43.5002 17.8284 42.8286 18.5 42.0002 18.5H40.0002C39.1718 18.5 38.5002 17.8284 38.5002 17Z" fill="#4781FF"/>
  <path fill-rule="evenodd" clip-rule="evenodd" d="M37.5002 25C37.5002 24.1716 38.1718 23.5 39.0002 23.5H44.0002C44.8286 23.5 45.5002 24.1716 45.5002 25C45.5002 25.8284 44.8286 26.5 44.0002 26.5H39.0002C38.1718 26.5 37.5002 25.8284 37.5002 25Z" fill="#4781FF"/>
  <path fill-rule="evenodd" clip-rule="evenodd" d="M38.5002 33C38.5002 32.1716 39.1718 31.5 40.0002 31.5H42.0002C42.8286 31.5 43.5002 32.1716 43.5002 33C43.5002 33.8284 42.8286 34.5 42.0002 34.5H40.0002C39.1718 34.5 38.5002 33.8284 38.5002 33Z" fill="#4781FF"/>
</svg>