<svg xmlns="http://www.w3.org/2000/svg" viewBox="0 0 31 30" fill="none"><rect x=".95" y=".5" width="29" height="29" rx="5.75" fill="url(#prefix__icon-btn-deposit_paint0_linear_106_3882)"/><rect x=".95" y=".5" width="29" height="29" rx="5.75" stroke="#F8AB50" stroke-width=".5"/><path fill-rule="evenodd" clip-rule="evenodd" d="M19.647 7.75c.376 0 .736.148 1.002.413.265.265.415.623.415.997l-.001.96h1.442a1.41 1.41 0 011.4 1.194H9.157v-1.215c0-.623.248-1.22.69-1.661a2.366 2.366 0 011.67-.688h8.13zm-10.49 4.582h14.764v1.58H18.67v3.791h5.25v2.383c0 .374-.149.732-.414.997a1.42 1.42 0 01-1.002.412h-9.148a4.08 4.08 0 00-4.199-6.935v-2.228zm14.705 2.99v.972h-3.99v-.973h3.99zm-4.216-6.163h-8.128a.946.946 0 00-.945.94v.02h9.074v-.96z" fill="#FFF4EA"/><path fill-rule="evenodd" clip-rule="evenodd" d="M14.073 18.488a3.437 3.437 0 11-6.874 0 3.437 3.437 0 016.874 0zM9.92 17.002a.66.66 0 011.322 0v.894h.881a.66.66 0 110 1.32h-.881v.76a.66.66 0 11-1.322 0v-.76h-.77a.66.66 0 110-1.32h.77v-.894z" fill="#FFF4EA"/><defs><linearGradient id="prefix__icon-btn-deposit_paint0_linear_106_3882" x1="15.45" y1=".25" x2="15.45" y2="29.75" gradientUnits="userSpaceOnUse"><stop stop-color="#EFCF7C"/><stop offset=".32" stop-color="#FBBD22"/><stop offset=".615" stop-color="#DF980E"/><stop offset=".79" stop-color="#D58D00"/><stop offset=".915" stop-color="#E69D0F"/><stop offset="1" stop-color="#DB9100"/></linearGradient></defs></svg>