<svg xmlns="http://www.w3.org/2000/svg" viewBox="0 0 30 30" fill="none"><rect x=".45" y=".5" width="29" height="29" rx="5.75" fill="url(#prefix__icon-btn-withdraw_paint0_linear_106_3685)" stroke="#F66" stroke-width=".5"/><path fill-rule="evenodd" clip-rule="evenodd" d="M18.58 11.545a3.795 3.795 0 11-7.59 0 3.795 3.795 0 017.59 0zm-2.24.905c0 .642-.446 1.113-1.246 1.222v.725h-.55v-.71c-.466-.039-1.043-.226-1.38-.558l.37-.561c.348.309.774.454 1.19.454.566 0 .824-.174.824-.499 0-.313-.402-.451-.863-.61-.622-.213-1.353-.464-1.353-1.23 0-.657.474-1.105 1.212-1.187v-.71h.55V9.5c.512.063.878.288 1.2.577l-.415.494c-.325-.27-.667-.415-1.049-.415-.42 0-.707.151-.707.47 0 .29.385.419.834.568.628.21 1.382.46 1.382 1.256zM9.898 18.46l.894-.023s.263-1.632 2.192-1.697l3.555.075s1.081.081 1.094 1.214c0 0-.036 1.004-.956 1.02h-2.05s-.43.036-.413.534c0 0-.03.302.408.58h2.362s.418-.074.662-.302l3.103-2.875s1.15-.922 2.313.34l.137.15-4.417 4.456s-.587.552-1.695.493l-7.19-.046v-3.92zM8.6 17.65H7.11c-.226 0-.409.195-.409.437v4.407c0 .24.183.436.409.436h1.492c.226 0 .41-.195.41-.436v-4.407c0-.242-.184-.437-.41-.437z" fill="#FFF4EA"/><defs><linearGradient id="prefix__icon-btn-withdraw_paint0_linear_106_3685" x1="14.95" y1=".25" x2="14.95" y2="29.75" gradientUnits="userSpaceOnUse"><stop stop-color="#FF6C4B"/><stop offset=".565" stop-color="#DA1508"/><stop offset=".83" stop-color="#D3331D"/><stop offset="1" stop-color="#F0422A"/></linearGradient></defs></svg>