<svg xmlns="http://www.w3.org/2000/svg" aria-hidden="true" width="25" height="27"><path d="M5.746 13.462a.93.93 0 01.682.29.94.94 0 01.287.685V25.16a.94.94 0 01-.287.685.93.93 0 01-.682.29H1.868a.93.93 0 01-.682-.29.94.94 0 01-.288-.685V14.437a.94.94 0 01.288-.686.93.93 0 01.682-.29h3.878zm3.12 1.95c.324.02.632.096.925.228.292.132.55.3.772.503l.303.244h5.211c.364.04.672.198.924.472.253.274.379.604.379.99 0 .406-.142.751-.424 1.036a1.399 1.399 0 01-1.03.426h-4.848a.47.47 0 00-.348.137.475.475 0 00-.137.35.47.47 0 00.485.487h6.332l5.272-1.827.151-.03a1.448 1.448 0 011.03.137c.323.172.546.442.667.807l.06.122c.081.366.03.716-.151 1.051a1.412 1.412 0 01-.788.686l-10.27 3.534a8.695 8.695 0 01-2.879.365 8.013 8.013 0 01-2.817-.64v-9.078h1.181zm-5.06 6.824a.93.93 0 00-.68.29.94.94 0 00-.289.685.94.94 0 00.288.685.93.93 0 00.682.29.93.93 0 00.682-.29.94.94 0 00.287-.685.94.94 0 00-.287-.686.93.93 0 00-.682-.29zM13.503.788c.929 0 1.807.183 2.636.549.828.345 1.55.827 2.166 1.447a6.648 6.648 0 011.439 2.178c.364.833.545 1.716.545 2.65 0 .935-.181 1.818-.545 2.651a6.647 6.647 0 01-1.44 2.178 6.605 6.605 0 01-2.165 1.447 6.454 6.454 0 01-2.636.549c-.93 0-1.808-.183-2.636-.549A6.605 6.605 0 018.7 12.441a6.648 6.648 0 01-1.44-2.178 6.552 6.552 0 01-.545-2.65c0-.935.182-1.818.546-2.65A6.649 6.649 0 018.7 2.782a6.606 6.606 0 012.166-1.446 6.454 6.454 0 012.636-.549zm0 2.285c-1.252 0-2.318.442-3.197 1.325-.878.884-1.317 1.955-1.317 3.215 0 1.259.439 2.33 1.318 3.214.878.883 1.944 1.325 3.196 1.325 1.252 0 2.317-.442 3.196-1.325.879-.884 1.318-1.955 1.318-3.214 0-1.26-.44-2.331-1.318-3.215-.879-.883-1.944-1.325-3.196-1.325zm0 .975c.99 0 1.828.345 2.514 1.036.687.69 1.03 1.533 1.03 2.529 0 .995-.343 1.838-1.03 2.528-.686.69-1.524 1.036-2.514 1.036-.99 0-1.828-.345-2.515-1.036-.687-.69-1.03-1.533-1.03-2.528 0-.996.343-1.839 1.03-2.53.687-.69 1.525-1.035 2.515-1.035zm-.243 1.219l-.03.06-.424 1.067a.406.406 0 01-.076.107.145.145 0 01-.106.045l-.06.03-1.121.062a.59.59 0 01-.122.045.136.136 0 00-.09.077.227.227 0 00-.061.167c0 .071.02.137.06.198l.03.03.85.762c.04.02.07.051.09.092.02.04.03.08.03.121v.061l-.272 1.097a.173.173 0 00-.015.122c.01.04.025.071.045.091.04.061.09.107.152.138.06.03.12.035.181.015l.06-.03.97-.61c.04-.02.081-.03.122-.03h.12l.061.03.97.61c.02.02.05.03.09.03h.122a.32.32 0 00.151-.107c.04-.05.061-.117.061-.198v-.06l-.273-1.098a.503.503 0 01.06-.243l.062-.03.848-.762c.02-.02.04-.046.06-.077.02-.03.03-.066.03-.106a.383.383 0 00-.045-.198c-.03-.051-.086-.087-.166-.107l-.061-.03-1.121-.061-.121-.061a.353.353 0 01-.091-.061l-.03-.061-.425-1.066-.075-.077-.076-.076a.325.325 0 00-.197 0 .376.376 0 00-.167.092z" /></svg>