<svg xmlns="http://www.w3.org/2000/svg" aria-hidden="true" width="21" height="21"><path fill-rule="evenodd" clip-rule="evenodd" d="M3.482.122A2.157 2.157 0 001.325 2.28v14.352c0 1.115.846 2.032 1.931 2.145v.76c0 .298.242.54.54.54h13.082a.54.54 0 00.54-.54v-.748h.417a2.157 2.157 0 002.157-2.157V2.28A2.157 2.157 0 0017.835.122H3.482zm.7 1.931a.925.925 0 00-.926.926v12.954c0 .51.415.925.926.925h12.954a.925.925 0 00.925-.925v-.363h.644v-3.218h-.644v-5.15h.644V3.985h-.644V2.98a.925.925 0 00-.925-.926H4.182zm13.262 10.3v-5.15h-.67V3.984h.67V2.98a.308.308 0 00-.308-.309H4.182a.308.308 0 00-.309.309v12.954c0 .17.138.308.309.308h12.954c.17 0 .308-.138.308-.308v-.363h-.67v-3.218h.67zm-6.463-3.22a2.897 2.897 0 11-5.794 0 2.897 2.897 0 015.793 0zm-2.024 1.99a2.173 2.173 0 01-3.015-1.628h1.514c.12.208.34.35.594.362l.907 1.267zm.603-.395c.428-.397.696-.964.696-1.594 0-.624-.262-1.186-.683-1.582l-.84 1.26a.721.721 0 01-.042.716l.869 1.2zM8.13 8.41l.841-1.26a2.173 2.173 0 00-3.03 1.621h1.516a.724.724 0 01.673-.36z" /></svg>