<svg width="20" height="20" fill="none" xmlns="http://www.w3.org/2000/svg"><g clip-path="url(#prefix__clip0_1564_629)" fill="#5076F3"><path d="M14.558 9.15c-3.01 0-5.397 2.413-5.396 5.45-.115 2.673 2.18 5.394 5.363 5.4 3.016.005 5.475-2.426 5.474-5.406 0-2.979-2.465-5.445-5.442-5.444h.001zm2.745 5.91c-.277.142-.508.04-.71-.16-.398-.393-.792-.79-1.189-1.185-.057-.057-.116-.15-.203-.124-.11.034-.094.157-.093.246.007.69.026 1.382.028 2.072 0 .369-.019.739-.041 1.107-.024.401-.229.619-.551.61-.317-.01-.51-.238-.516-.644-.009-.512-.002-1.025-.002-1.537h-.003c0-.513.001-1.025-.002-1.537 0-.105.037-.246-.069-.297-.137-.067-.201.09-.278.167-.367.356-.724.725-1.09 1.083-.325.316-.67.353-.91.11-.232-.235-.183-.592.133-.91.738-.746 1.475-1.49 2.218-2.23.413-.41.65-.412 1.056-.008.769.764 1.537 1.529 2.296 2.302.314.32.273.756-.073.935h-.001zM3.347 2.005c.001-.264.273-.34.51-.353a8.71 8.71 0 01.82-.005c.22.008.348-.066.434-.279C5.47.48 6.136-.009 7.091 0 8.03.01 8.685.497 9.037 1.368c.088.216.217.286.435.278.261-.01.524-.004.785 0 .35.006.577.165.585.53l-.04 1.781c-.134.654-.568 1.055-1.247 1.062-1.655.018-3.311.02-4.967 0-.745-.01-1.22-.497-1.264-1.24l.022-1.775.001.001z"/><path d="M14.147 4.473c-.027-1.066-.914-1.94-1.976-1.973a19.636 19.636 0 00-.65-.007l-.038 1.729c-.16.773-.672 1.246-1.476 1.255a242.87 242.87 0 01-5.874-.002C3.251 5.464 2.69 4.89 2.638 4.01l.02-1.514c-.157-.007-.314-.001-.47 0C.864 2.503.004 3.367.002 4.7c-.003 1.765 0 3.53-.001 5.295v5.223c0 1.457.823 2.286 2.279 2.29 1.762.003 3.525 0 5.287 0h.549c.101 0 .17-.105.126-.197-.432-.921-.655-1.94-.612-2.937-.001-3.641 2.674-6.58 6.175-6.951a.389.389 0 00.345-.389v-.092c.005-.823.016-1.647-.005-2.469l.002.001zm-7.14 7.924c-.116.184-.29.229-.48.229-.599-.002-1.199 0-1.798 0-.578 0-1.156.005-1.734 0-.413-.005-.614-.192-.61-.55.003-.359.206-.55.615-.553 1.167-.005 2.334-.001 3.5-.001.242 0 .442.085.558.34.088.191.055.37-.05.536v-.001zm1.031-2.279c-.858.012-1.716.004-2.573.004v.003h-2.51c-.242 0-.45-.073-.544-.349a.547.547 0 01.32-.71c.146-.057.297-.05.446-.05h4.665c.064 0 .129-.002.193.003.337.025.556.241.562.557.005.318-.2.538-.558.543zm2.381-2.512c-.136.023-.278.022-.417.022-1.137.002-2.274.001-3.411.001v-.001c-1.201 0-2.403.003-3.604-.002-.387-.001-.578-.163-.6-.486-.02-.306.1-.51.378-.567.125-.025.256-.023.385-.023h6.854c.14 0 .28.002.418.026.268.048.429.224.422.534-.007.292-.172.454-.423.497h-.002z"/></g><defs><clipPath id="prefix__clip0_1564_629"><path fill="#fff" d="M0 0h20v20H0z"/></clipPath></defs></svg>