<svg xmlns="http://www.w3.org/2000/svg" viewBox="0 0 20 12"><path data-name="Path 572" d="M9.883 0h.234c.3.025.594.047.891.074a10.579 10.579 0 013.916 1.168 14.073 14.073 0 014.46 3.708c.228.279.412.595.616.894v.314a2.2 2.2 0 01-.179.344 14.462 14.462 0 01-4.984 4.3 10.49 10.49 0 01-3.81 1.12c-.3.028-.607.051-.91.076h-.234c-.3-.024-.594-.047-.891-.074a10.574 10.574 0 01-3.916-1.168 14.076 14.076 0 01-4.46-3.705C.389 6.771.2 6.456 0 6.157v-.314A2.235 2.235 0 01.179 5.5a14.462 14.462 0 014.983-4.3A10.494 10.494 0 018.972.076c.3-.028.607-.051.91-.076M5.8 5.869a4.2 4.2 0 104.32-4.088A4.216 4.216 0 005.8 5.869m1.937.14a2.264 2.264 0 102.273-2.282 2.27 2.27 0 00-2.272 2.281"/></svg>