<svg xmlns="http://www.w3.org/2000/svg" viewBox="0 0 20 10"><path data-name="Union 1" d="M9.623 9.464V6.977a9.306 9.306 0 01-3.154-.632l-.586 1.86a.51.51 0 01-.48.366.484.484 0 01-.16-.028.543.543 0 01-.32-.678l.61-1.937a12.323 12.323 0 01-2.358-1.564l-1.8 1.908a.487.487 0 01-.716 0 .558.558 0 010-.758L2.4 3.667A14.865 14.865 0 01.076.819.554.554 0 01.239.081a.491.491 0 01.7.172A14.218 14.218 0 003.316 3.1 11.592 11.592 0 006.1 5.027a8.5 8.5 0 003.676.88h.044a8.757 8.757 0 003.705-.857 12.716 12.716 0 002.945-1.943A15.91 15.91 0 0019.077.23a.49.49 0 01.705-.13.555.555 0 01.126.745 16.551 16.551 0 01-2.62 2.938l1.64 1.735a.558.558 0 010 .758.487.487 0 01-.716 0l-1.723-1.828a13.662 13.662 0 01-1.98 1.3l.8 1.695a.55.55 0 01-.226.719.482.482 0 01-.226.057.5.5 0 01-.453-.3l-.819-1.732a9.83 9.83 0 01-2.949.755v2.522a.507.507 0 11-1.013 0z"/></svg>