<svg xmlns="http://www.w3.org/2000/svg" viewBox="0 0 48 48" fill="none" id="icon-form-icon-name">
<path d="M22.5925 0H25.4051C25.5239 0.0342812 25.645 0.0599466 25.7675 0.0767962C29.4743 0.309715 33.0684 1.44321 36.2382 3.37903C39.2261 5.1283 41.7942 7.51131 43.7616 10.3603C45.729 13.2092 47.048 16.4548 47.6256 19.8686C47.7936 20.7686 47.8656 21.6829 48 22.5925V25.4051C47.9654 25.5378 47.939 25.6724 47.9208 25.8083C47.6329 29.9094 46.2705 33.8625 43.9706 37.2701C43.361 38.1821 42.6627 39.0388 41.9451 40.0012C41.2332 36.9625 39.7709 34.1508 37.6919 31.8231C35.6129 29.4955 32.9834 27.7262 30.0441 26.6771C31.3683 25.8274 32.4984 24.7081 33.3609 23.3922C34.2233 22.0763 34.7986 20.5933 35.0493 19.0401C35.3 17.4868 35.2204 15.8982 34.8157 14.3778C34.411 12.8574 33.6904 11.4394 32.7008 10.2163C31.7111 8.99314 30.4748 7.99239 29.0723 7.2793C27.6699 6.56621 26.1328 6.15679 24.5615 6.07776C22.9901 5.99874 21.4198 6.25187 19.9528 6.82065C18.4859 7.38943 17.1554 8.26107 16.048 9.37873C14.9846 10.4323 14.1505 11.6945 13.5984 13.0859C13.0462 14.4773 12.7878 15.9678 12.8394 17.4639C12.8712 19.3051 13.3592 21.1096 14.2597 22.7158C15.1602 24.322 16.445 25.6798 17.9991 26.6675C15.0615 27.7052 12.4311 29.4631 10.3486 31.7804C8.2661 34.0977 6.79808 36.9002 6.0789 39.9316C3.13246 36.6313 1.16012 32.5778 0.381581 28.2226C0.215989 27.289 0.124794 26.3435 0 25.4051V22.5925C0.0383981 22.2541 0.0767962 21.9181 0.115194 21.5797C0.617199 16.5229 2.73054 11.7612 6.14369 7.9964C9.71099 3.96041 14.5547 1.27005 19.8662 0.374381C20.7686 0.213589 21.6829 0.122394 22.5925 0ZM25.4051 47.9976C25.5403 47.9632 25.6773 47.9367 25.8155 47.9184C30.7388 47.5509 35.4257 45.6604 39.226 42.5091C39.2846 42.4575 39.3314 42.394 39.3633 42.3228C39.3952 42.2516 39.4114 42.1743 39.4108 42.0963C39.1618 39.8662 38.4159 37.7203 37.2281 35.8165C36.0403 33.9126 34.4407 32.2993 32.5472 31.0952C30.3845 29.589 27.8587 28.6879 25.231 28.4849C22.6033 28.282 19.9691 28.7846 17.6007 29.9409C15.1624 30.9956 13.0453 32.6747 11.4631 34.8088C9.88094 36.943 8.88962 39.4567 8.58917 42.0963C8.58393 42.1673 8.59456 42.2386 8.6203 42.3051C8.64603 42.3715 8.68623 42.4313 8.73796 42.4803C11.9225 45.1266 15.7412 46.8982 19.8182 47.6208C20.7374 47.7864 21.6685 47.8728 22.5949 47.9976H25.4051ZM15.6376 17.1807C15.6295 18.8361 16.113 20.4567 17.0269 21.837C17.9407 23.2174 19.2437 24.2954 20.7707 24.9345C22.2978 25.5736 23.9802 25.745 25.6048 25.427C27.2294 25.109 28.7231 24.3159 29.8965 23.1482C31.0699 21.9805 31.8703 20.4908 32.1962 18.8678C32.5222 17.2448 32.359 15.5615 31.7274 14.0313C31.0957 12.5012 30.0241 11.1929 28.6482 10.2724C27.2724 9.3518 25.6542 8.86038 23.9988 8.86036C21.7895 8.86411 19.6711 9.74063 18.1051 11.299C16.539 12.8574 15.6522 14.9715 15.6376 17.1807Z" fill="#4B5566"></path>
</svg>