<svg xmlns="http://www.w3.org/2000/svg" viewBox="0 0 48 49" fill="none"><g clip-path="url(#prefix__icon-form-icon-phone_o8fdx8hmra)"><path d="M34.5.993h-21a4.513 4.513 0 00-4.5 4.5v39c0 2.475 2.025 4.5 4.5 4.5h21c2.475 0 4.5-2.025 4.5-4.5v-39c0-2.475-2.025-4.5-4.5-4.5zM18 3.243h12v1.5H18v-1.5zm6 42.75a3 3 0 110-6 3 3 0 010 6zm12-9H12v-30h24v30z" fill="#4B5566"/></g><defs><clipPath id="prefix__icon-form-icon-phone_o8fdx8hmra"><path fill="#fff" transform="translate(0 .993)" d="M0 0h48v48H0z"/></clipPath></defs></svg>