<svg xmlns="http://www.w3.org/2000/svg" viewBox="0 0 48 49" fill="none"><path d="M39 4.993H9c-2.766 0-5 2.234-5 5v20c0 2.765 2.234 5 5 5h10l-3.336 10 15-10H39c2.766 0 5-2.235 5-5v-20c0-2.766-2.234-5-5-5zM14 23.329a3.334 3.334 0 01-3.336-3.336A3.334 3.334 0 0114 16.657a3.334 3.334 0 013.336 3.336A3.334 3.334 0 0114 23.329zm10 0a3.334 3.334 0 01-3.336-3.336A3.334 3.334 0 0124 16.657a3.334 3.334 0 013.336 3.336A3.334 3.334 0 0124 23.329zm10 0a3.334 3.334 0 01-3.336-3.336A3.334 3.334 0 0134 16.657a3.334 3.334 0 013.336 3.336A3.334 3.334 0 0134 23.329z" fill="#4B5566"/></svg>