<svg xmlns="http://www.w3.org/2000/svg" viewBox="0 0 43 49"><path d="M21.5 48.003a4.322 4.322 0 01-2.27-.62l-8.558-5a20.915 20.915 0 01-7.757-7.56A20.778 20.778 0 010 24.415V10.747c0-.919.28-1.817.807-2.572A4.527 4.527 0 012.946 6.52L19.952.278a4.513 4.513 0 013.101 0L40.054 6.52a4.527 4.527 0 012.139 1.655c.526.755.808 1.653.807 2.572v13.668a20.779 20.779 0 01-2.916 10.407 20.915 20.915 0 01-7.758 7.56l-8.558 5a4.322 4.322 0 01-2.268.621zm0-44.47a.975.975 0 00-.34 0l-17 6.27a.975.975 0 00-.635.944v13.668a17.278 17.278 0 002.45 8.652 17.392 17.392 0 006.473 6.27l8.558 5.016a1.03 1.03 0 00.987 0l8.558-5.016a17.392 17.392 0 006.473-6.27 17.277 17.277 0 002.45-8.652V10.747a.968.968 0 00-.634-.916L21.837 3.59a.952.952 0 00-.337-.06v.004z"/><path d="M19.949 30.936a1.838 1.838 0 01-1.142-.407l-6.02-5.049a1.755 1.755 0 01.98-3.096c.466-.041.93.104 1.289.404l4.724 3.954 8.064-8.835a1.767 1.767 0 011.918-.507 1.768 1.768 0 011.016.912 1.75 1.75 0 01-.312 1.95l-9.136 10.1a1.792 1.792 0 01-1.381.575z"/></svg>