<svg xmlns="http://www.w3.org/2000/svg" viewBox="0 0 36 49" fill="none" id="icon-form-icon-password">
  <path d="M32.431 48.993H3.562a4.981 4.981 0 0 1-1.998-.84A4.348 4.348 0 0 1 0 45.43V19.75a1.288 1.288 0 0 1 1.366-.757c.867.027 1.736 0 2.644 0 0-1.277.007-2.492 0-3.708a14.013 14.013 0 0 1 10.175-13.73c.935-.273 1.92-.378 2.88-.561h1.873c.766.13 1.542.216 2.297.395a13.972 13.972 0 0 1 10.738 13.288c.02 1.265.013 2.529.018 3.794v.522c.929 0 1.787.02 2.643 0a1.287 1.287 0 0 1 1.366.757V45.43c-.221.671-.5 1.322-.832 1.945a3.912 3.912 0 0 1-2.731 1.616M9.989 18.966h15.994c0-1.415.029-2.805-.012-4.19a8.775 8.775 0 0 0-.274-1.89 7.985 7.985 0 0 0-12.003-4.633 7.984 7.984 0 0 0-3.122 3.786c-.89 2.258-.42 4.595-.583 6.927zm7.976 22.033h1.776c.933-.013 1.334-.485 1.23-1.4a417.345 417.345 0 0 1-.565-5.118.584.584 0 0 1 .165-.43 3.996 3.996 0 0 0-3.483-6.942 4 4 0 0 0-1.681 6.923.634.634 0 0 1 .183.466c-.176 1.722-.374 3.444-.566 5.165a1.068 1.068 0 0 0 1.159 1.332c.593.015 1.187 0 1.775 0" fill="#4B5566"></path>
</svg>