<svg xmlns="http://www.w3.org/2000/svg" aria-hidden="true" width="21" height="21"><g clip-path="url(#prefix__icon-game-center_clip0_127_1745)"><path fill-rule="evenodd" clip-rule="evenodd" d="M5.81 12.596h9.906a4.907 4.907 0 100-9.813H5.81a4.907 4.907 0 000 9.813zm11.146-5.508a.58.58 0 110 1.158.58.58 0 010-1.158zM15.408 5.54a.58.58 0 110 1.158.58.58 0 010-1.158zm0 3.095a.58.58 0 110 1.158.58.58 0 010-1.158zm-1.537-1.547a.579.579 0 11.006 1.157.579.579 0 01-.006-1.157zm-8.669 0h.655v-.655a.579.579 0 111.158 0v.655h.654a.579.579 0 010 1.158h-.667V8.9a.579.579 0 01-1.158 0v-.654h-.655a.579.579 0 110-1.158h.013zM.897 11.226v4.046a2.263 2.263 0 002.26 2.26 2.327 2.327 0 001.754-.798l2.617-3H5.811a6.067 6.067 0 01-4.907-2.508H.897zm13.092 2.509h1.724a6.067 6.067 0 004.906-2.51v4.047a2.263 2.263 0 01-2.26 2.26 2.327 2.327 0 01-1.753-.798l-2.617-3z" /></g><defs><clipPath id="prefix__icon-game-center_clip0_127_1745"><path transform="translate(.786 .166)" d="M0 0h19.954v19.954H0z"/></clipPath></defs></svg>