<svg xmlns="http://www.w3.org/2000/svg" aria-hidden="true" width="24" height="21"><path d="M23.993 7.228c-.136 3.075-1.49 5.215-4.066 7.755-.541.401-.948.936-1.761 1.47-.271.268-1.49 1.204-1.897 1.605-.271.268-.813.669-1.355 1.07-.136 0-.136 0-.136.134-.407.267-.813.668-1.355.936a2.529 2.529 0 00-.542.4l-.542.402-.678-.401c-.135-.134-.406-.268-.677-.401-.542-.268-.949-.669-1.491-.936-.136-.134-.271-.134-.271-.268a37.57 37.57 0 00-1.49-1.07c-.407-.267-1.491-1.336-1.627-1.336-.677-.535-1.084-.936-1.626-1.338C1.498 12.577.143 10.303.007 7.095-.264.41 7.325-2.399 11.932 2.414 16.675-2.399 24.264.41 23.992 7.228z" fill-opacity=".4"/></svg>