<svg xmlns="http://www.w3.org/2000/svg" aria-hidden="true" width="20" height="24.5"><path d="M6.1 24.5c-1-.3-2-.9-2.6-1.8-2.1-2.5-3.3-5.6-3.6-8.9v-1.1c0-2.4 1.2-4.6 3.1-5.9 1.1-.7 2.3-1 3.6-.8.6.1 1.2.3 1.7.5.7.3 1.3.5 1.9.5.4 0 .8-.1 1.2-.3 1.2-.6 2.6-.9 3.9-.7 1.6.2 3.1 1 4 2.4-1.8 1-2.9 3-2.6 5.1.1 2 1.4 3.8 3.3 4.5-.5 1.4-1.2 2.7-2 3.9-.8 1.1-1.7 2.5-3.4 2.5-1.5 0-2.5-.9-4-1-1.6 0-2.5.8-3.9 1l-.6.1zM10 5.7c-.1-1.4.4-2.8 1.3-3.8S13.4.3 14.7.1h.2c.1 1.4-.4 2.9-1.3 4-.8 1-2 1.7-3.3 1.7-.1-.1-.2-.1-.3-.1z" /></svg>