<svg xmlns="http://www.w3.org/2000/svg" aria-hidden="true" width="21" height="20"><path fill-rule="evenodd" clip-rule="evenodd" d="M.786 2.703A2.697 2.697 0 013.483.007h14.56a2.697 2.697 0 012.697 2.696v14.561a2.696 2.696 0 01-2.696 2.697H3.483a2.696 2.696 0 01-2.697-2.697V2.704zm17.89.4a1.032 1.032 0 11-2.064 0 1.032 1.032 0 012.064 0zm-7.913 14.105a7.225 7.225 0 100-14.45 7.225 7.225 0 000 14.45z" /><path fill-rule="evenodd" clip-rule="evenodd" d="M10.763 15.832a5.849 5.849 0 100-11.697 5.849 5.849 0 000 11.697zm-.759-9.363c0-.148.121-.27.27-.27H11.8c.149 0 .27.122.27.27v3.687h1.649l-2.682 3.612-2.681-3.612h1.65V6.47z" /></svg>