<svg xmlns="http://www.w3.org/2000/svg" aria-hidden="true" width="34" height="27"><g clip-path="url(#prefix__icon-icon-menu_clip0_106_3610)" fill="none"><path d="M2.353 26.933c-.488 0-.957-.197-1.302-.548a1.888 1.888 0 01-.54-1.324c0-.497.195-.973.54-1.324a1.826 1.826 0 011.302-.548h25.232c.489 0 .957.197 1.302.548.346.351.54.828.54 1.324 0 .497-.194.973-.54 1.324a1.827 1.827 0 01-1.302.548H2.353zm0-11.232c-.488 0-.957-.198-1.302-.549a1.888 1.888 0 01-.54-1.324c0-.496.195-.972.54-1.323a1.826 1.826 0 011.302-.549h19.605c.489 0 .957.197 1.302.549.346.35.54.827.54 1.323 0 .497-.194.973-.54 1.324a1.827 1.827 0 01-1.302.549H2.353zm0-11.233c-.488 0-.957-.197-1.302-.548a1.888 1.888 0 01-.54-1.324c0-.497.195-.973.54-1.324A1.826 1.826 0 012.353.724h29.453c.488 0 .957.197 1.302.548.346.351.54.827.54 1.324 0 .496-.194.972-.54 1.324a1.826 1.826 0 01-1.302.548H2.353z" fill="#2E2E2E"/></g><defs><clipPath id="prefix__icon-icon-menu_clip0_106_3610"><path transform="translate(.505 .724)" d="M0 0h33.148v26.209H0z"/></clipPath></defs></svg>