<svg xmlns="http://www.w3.org/2000/svg" viewBox="0 0 21 20" fill="none"><g clip-path="url(#prefix__icon-icon-message_clip0_36_2497)"><path d="M20.358 5.565v10.113c0 .463-.185.906-.515 1.233a1.77 1.77 0 01-1.245.51H2.16a1.77 1.77 0 01-1.245-.51A1.734 1.734 0 01.4 15.678V5.566l7.322 6.141a4.134 4.134 0 002.657.965 4.13 4.13 0 002.657-.965l7.322-6.142zm-1.76-4.407a1.751 1.751 0 011.758 1.64l.002.103v.58l-8.836 7.457a1.771 1.771 0 01-2.198.07l-.088-.07L.4 3.482V2.9a1.73 1.73 0 01.904-1.522c.262-.145.557-.22.857-.22h16.437z" fill="#C4C7AE"/></g><defs><clipPath id="prefix__icon-icon-message_clip0_36_2497"><path fill="#fff" transform="translate(.4 .2)" d="M0 0h20.5v19H0z"/></clipPath></defs></svg>