<svg xmlns="http://www.w3.org/2000/svg" viewBox="0 0 26 29" fill="none">
  <g clip-path="url(#icon-icon-betting-record_clip0_36_2486)">
    <mask id="icon-icon-betting-record_mask0_36_2486" style="mask-type:luminance" maskUnits="userSpaceOnUse" x="0" y="2"
      width="26" height="25">
      <path d="M0.399902 2.1499H25.1084V26.8588H0.399902V2.1499Z" fill="white"></path>
    </mask>
    <g mask="url(#icon-icon-betting-record_mask0_36_2486)">
      <path
        d="M12.7546 5.53345C7.8508 5.53345 3.87793 9.50985 3.87793 14.4094C3.87793 19.3081 7.85513 23.2845 12.7546 23.2845C17.6532 23.2845 21.6295 19.3081 21.6295 14.4094C21.6295 9.50985 17.6584 5.53345 12.7546 5.53345ZM12.7771 9.71836C12.925 9.71836 13.0715 9.7475 13.2082 9.80411C13.3448 9.86072 13.469 9.9437 13.5736 10.0483C13.6782 10.1529 13.7612 10.2771 13.8178 10.4138C13.8744 10.5504 13.9035 10.6969 13.9035 10.8448C13.9035 10.9928 13.8744 11.1393 13.8178 11.2759C13.7612 11.4126 13.6782 11.5368 13.5736 11.6414C13.469 11.746 13.3448 11.829 13.2082 11.8856C13.0715 11.9422 12.925 11.9713 12.7771 11.9713C12.4783 11.9713 12.1918 11.8526 11.9806 11.6414C11.7693 11.4301 11.6506 11.1436 11.6506 10.8448C11.6506 10.5461 11.7693 10.2596 11.9806 10.0483C12.1918 9.83705 12.4783 9.71836 12.7771 9.71836ZM6.52536 12.0795C6.52536 11.7807 6.64404 11.4942 6.85529 11.2829C7.06654 11.0717 7.35306 10.953 7.65181 10.953C7.95057 10.953 8.23708 11.0717 8.44834 11.2829C8.65959 11.4942 8.77827 11.7807 8.77827 12.0795C8.77827 12.3782 8.65959 12.6647 8.44834 12.876C8.23708 13.0873 7.95057 13.2059 7.65181 13.2059C7.35306 13.2059 7.06654 13.0873 6.85529 12.876C6.64404 12.6647 6.52536 12.3782 6.52536 12.0795ZM16.7846 18.3131H8.78173L8.01778 13.5719L11.1255 15.2192L12.7771 12.1426L14.7852 15.015L17.3824 13.5771L16.7854 18.3183L16.7846 18.3131ZM17.7986 13.2059C17.4998 13.2059 17.2133 13.0873 17.002 12.876C16.7908 12.6647 16.6721 12.3782 16.6721 12.0795C16.6721 11.7807 16.7908 11.4942 17.002 11.2829C17.2133 11.0717 17.4998 10.953 17.7986 10.953C18.0973 10.953 18.3838 11.0717 18.5951 11.2829C18.8063 11.4942 18.925 11.7807 18.925 12.0795C18.925 12.3782 18.8063 12.6647 18.5951 12.876C18.3838 13.0873 18.0973 13.2059 17.7986 13.2059Z"
        fill="#C4C7AE"></path>
      <path
        d="M12.7546 2.1499C5.93268 2.1499 0.399902 7.68278 0.399902 14.5048C0.399902 21.3259 5.93268 26.8588 12.7546 26.8588C19.5756 26.8588 25.1084 21.3259 25.1084 14.5039C25.1084 7.68365 19.5808 2.1499 12.7546 2.1499ZM12.8264 24.4337C7.28927 24.4337 2.80162 19.9468 2.80162 14.4096C2.80162 8.87242 7.28927 4.38468 12.8264 4.38468C18.3635 4.38468 22.8511 8.87242 22.8511 14.4096C22.8511 19.9468 18.3635 24.4337 12.8264 24.4337Z"
        fill="#C4C7AE"></path>
    </g>
  </g>
  <defs>
    <clipPath id="icon-icon-betting-record_clip0_36_2486">
      <rect width="25.09" height="28.59" fill="white" transform="translate(0.399902 0.399902)"></rect>
    </clipPath>
  </defs>
</svg>