<svg xmlns="http://www.w3.org/2000/svg" viewBox="0 0 24 23" fill="none"><g clip-path="url(#prefix__icon-icon-account_clip0_36_2479)" fill-rule="evenodd" clip-rule="evenodd" fill="#C4C7AE"><path d="M5.091 21.163a4.694 4.694 0 004.691-4.689 4.687 4.687 0 00-4.691-4.688A4.693 4.693 0 00.4 16.474a4.687 4.687 0 004.69 4.69zm.38-2.062c.99-.134 1.54-.715 1.54-1.509 0-.982-.932-1.292-1.709-1.551-.554-.184-1.03-.343-1.03-.7 0-.396.354-.583.873-.583.472 0 .895.18 1.297.512l.514-.61c-.4-.357-.851-.634-1.484-.712v-.881h-.68v.876c-.913.101-1.499.655-1.499 1.466 0 .947.903 1.257 1.672 1.521.57.195 1.067.367 1.067.752 0 .402-.319.617-1.019.617a2.21 2.21 0 01-1.47-.561l-.458.693c.416.41 1.13.641 1.706.69v.876h.68v-.896z"/><path d="M17.161 2.096c.506 0 .991.2 1.348.556.358.355.559.838.559 1.341v1.293h1.94c.506 0 .99.2 1.349.555.286.285.473.653.536 1.051H3.035V5.258c0-.838.335-1.643.93-2.236a3.188 3.188 0 012.25-.926H17.16zM3.035 8.263h19.88v2.127h-7.07v5.103h7.07V18.7c0 .502-.201.986-.56 1.34a1.913 1.913 0 01-1.347.557H8.688a5.492 5.492 0 00-5.653-9.335V8.263zm19.801 4.024v1.309h-5.373v-1.31h5.375-.002zM17.16 3.993H6.214c-.336 0-.66.133-.899.37a1.262 1.262 0 00-.373.895v.028h12.22V3.993h-.003z"/></g><defs><clipPath id="prefix__icon-icon-account_clip0_36_2479"><path fill="#fff" transform="translate(.4 .8)" d="M0 0h22.7v21.79H0z"/></clipPath></defs></svg>