<svg xmlns="http://www.w3.org/2000/svg" aria-hidden="true" width="20" height="23"><path d="M11.4 22.6c-.3-.3-.4-.6-.4-1v-3.1H9v3.1c0 .4-.1.7-.4 1-.3.3-.6.4-1 .4s-.8-.1-1-.4c-.3-.3-.4-.6-.4-1v-3.1H5c-.4 0-.8-.2-1.1-.4-.3-.3-.5-.7-.5-1.1V7.7h13v9.2c0 .4-.2.8-.5 1.1-.3.3-.7.4-1.1.4h-1.1v3.1c0 .4-.1.7-.4 1-.4.7-1.3.7-1.9.1zm6.1-6.8c-.3-.3-.4-.6-.4-1v-6c0-.4.1-.7.4-1 .3-.3.6-.4 1-.4s.8.1 1 .4c.3.3.4.6.4 1v6c0 .4-.1.7-.4 1-.3.3-.6.4-1 .4-.3.1-.7-.1-1-.4zm-17.1 0c-.3-.3-.4-.6-.4-1v-6c0-.4.1-.7.4-1 .3-.3.6-.4 1-.4s.8.1 1 .4c.3.3.4.6.4 1v6c0 .4-.1.7-.4 1-.3.3-.6.4-1 .4-.3.1-.7-.1-1-.4zm3-8.6c0-1.1.3-2.1.9-3 .6-.9 1.5-1.6 2.4-2.1L5.7.3c-.1-.1 0-.2 0-.3.2 0 .4 0 .4.1l1 1.8c1.8-.8 3.9-.8 5.7 0l1-1.8c.1-.1.2-.1.3-.1.1 0 .1.1.1.2l-1 1.8c1 .5 1.8 1.2 2.4 2.1.6.9.9 1.9.9 3l-13.1.1zM12.6 4c-.2.2-.2.5 0 .7.1.1.2.2.4.2.1 0 .3-.1.4-.2.2-.2.2-.5 0-.8-.1-.1-.2-.2-.4-.2-.1.1-.3.2-.4.3zm-6 0c-.2.2-.2.5 0 .8.1.1.3.1.4.1.1 0 .3-.1.4-.2.2-.2.2-.5 0-.7-.1-.1-.3-.2-.4-.2-.1 0-.3.1-.4.2z" /></svg>