<svg xmlns="http://www.w3.org/2000/svg" viewBox="0 0 18 19" fill="none"><g clip-path="url(#prefix__icon-icon-edit)" fill="currentColor" fill-opacity=".4"><path d="M10.282 5.839H1.714C.769 5.839 0 6.609 0 7.554v8.568c0 .945.769 1.713 1.714 1.713h8.568c.945 0 1.713-.768 1.713-1.714V7.553c0-.945-.768-1.712-1.713-1.712v-.002z"/><path d="M15.422.7H6.854a1.714 1.714 0 00-1.713 1.714v1.713h6.854a1.713 1.713 0 011.714 1.714v6.854h1.713a1.713 1.713 0 001.714-1.713V2.414A1.713 1.713 0 0015.422.7z"/></g><defs><clipPath id="prefix__icon-icon-edit"><path fill="currentColor" transform="translate(0 .7)" d="M0 0h18v18H0z"/></clipPath></defs></svg>