<svg xmlns="http://www.w3.org/2000/svg" viewBox="0 0 25 27" fill="none"><g clip-path="url(#prefix__icon-icon-cs_clip0_36_2502)" fill="#C4C7AE"><path d="M21.609 12.084c-.455 0-.828-.333-.828-.74 0-4.113-3.752-7.458-8.364-7.458-4.611 0-8.363 3.346-8.363 7.458 0 .407-.373.74-.828.74-.455 0-.828-.333-.828-.74 0-4.923 4.498-8.935 10.02-8.935 5.52 0 10.019 4.012 10.019 8.935 0 .42-.373.74-.828.74z"/><path d="M4.882 19.788h-.845C2.024 19.788.4 18.34.4 16.558v-2.722c0-1.768 1.624-3.23 3.621-3.23h.845c.455 0 .828.333.828.738v7.705c.016.406-.358.738-.812.738zm15.93 0h-.844c-.454 0-.828-.333-.828-.739v-7.705c0-.405.374-.738.828-.738h.845c1.997 0 3.621 1.448 3.621 3.23v2.722c0 1.782-1.624 3.23-3.621 3.23z"/><path d="M14.43 24.293c-.454 0-.828-.333-.828-.739 0-.406.374-.738.829-.738 2.175 0 3.783-.463 4.79-1.377 1.12-1.013 1.104-2.23 1.104-2.288-.016-.405.358-.738.812-.753.455-.014.828.304.845.71 0 .073.048 1.868-1.543 3.345-1.332 1.217-3.345 1.84-6.008 1.84z"/><path d="M14.69 24.104c0 .42-.373.754-.844.754h-2.825c-.47 0-.845-.334-.845-.754v-1.071c0-.42.373-.754.845-.754h2.841c.472 0 .845.334.845.754l-.017 1.07z"/></g><defs><clipPath id="prefix__icon-icon-cs_clip0_36_2502"><path fill="#fff" transform="translate(.4 .74)" d="M0 0h24.3v25.9H0z"/></clipPath></defs></svg>