<svg width="12" height="12" fill="none" xmlns="http://www.w3.org/2000/svg"><path fill-rule="evenodd" clip-rule="evenodd" d="M8.365 1v.78c1.35.125 2.005.93 2.105 2.125.015.14-.105.265-.25.265H1.76c-.14 0-.26-.12-.25-.265.1-1.195.755-2 2.105-2.125V1c0-.205.17-.375.375-.375s.375.17.375.375v.75h3.25V1c0-.205.17-.375.375-.375s.375.17.375.375zM1.99 4.92h8c.275 0 .5.225.5.5V8.5c0 1.5-.75 2.5-2.5 2.5h-4c-1.75 0-2.5-1-2.5-2.5V5.42c0-.275.225-.5.5-.5zm2.58 4.206a.849.849 0 01.025-.02.526.526 0 00.145-.356c0-.13-.055-.26-.145-.355l-.075-.06a.379.379 0 00-.09-.045.478.478 0 00-.38 0 .516.516 0 00-.165.105.526.526 0 00-.145.355c0 .13.055.26.145.355.05.045.1.08.165.105.06.025.125.04.19.04.031 0 .058-.004.089-.008l.011-.002a.318.318 0 00.09-.03c.03-.01.06-.025.09-.045.017-.01.034-.024.05-.039zM4.24 7.5c.13 0 .26-.055.355-.145A.526.526 0 004.74 7c0-.13-.055-.26-.145-.355a.467.467 0 00-.165-.105.5.5 0 00-.545.105A.526.526 0 003.74 7c0 .13.055.26.145.355.095.09.225.145.355.145zm1.75 1.75c.13 0 .26-.055.355-.145a.526.526 0 00.145-.355c0-.13-.055-.26-.145-.355a.524.524 0 00-.71 0 .526.526 0 00-.145.355c0 .13.055.26.145.355.095.09.225.145.355.145zm.28-1.835l.075-.06A.526.526 0 006.49 7c0-.13-.055-.26-.145-.355A.5.5 0 005.8 6.54a.467.467 0 00-.165.105A.526.526 0 005.49 7c0 .13.055.26.145.355.095.09.225.145.355.145.031 0 .058-.004.089-.008l.011-.002a.318.318 0 00.09-.03c.03-.01.06-.025.09-.045zM7.74 9.25c.13 0 .26-.055.355-.145a.526.526 0 00.145-.355c0-.13-.055-.26-.145-.355a.524.524 0 00-.71 0 .526.526 0 00-.145.355c0 .13.055.26.145.355.095.09.225.145.355.145zm.28-1.835l.075-.06A.526.526 0 008.24 7c0-.13-.055-.26-.145-.355l-.075-.06a.379.379 0 00-.09-.045.478.478 0 00-.38 0 .516.516 0 00-.165.105A.526.526 0 007.24 7c0 .13.055.26.145.355a.526.526 0 00.455.135.318.318 0 00.09-.03c.03-.01.06-.025.09-.045z" fill="#B2B2B2"/></svg>