<svg xmlns="http://www.w3.org/2000/svg" viewBox="0 0 21 21"><path d="M7.693.325a4.611 4.611 0 00-4.605 4.61c0 2.494 1.949 4.513 4.489 4.6a.782.782 0 01.213 0h.068a4.596 4.596 0 004.44-4.6A4.611 4.611 0 007.693.325zM12.678 12.46c-2.738-1.853-7.202-1.853-9.959 0-1.246.846-1.933 1.992-1.933 3.217s.687 2.361 1.923 3.198c1.374.936 3.179 1.404 4.984 1.404 1.806 0 3.61-.468 4.985-1.404 1.236-.847 1.923-1.983 1.923-3.218-.01-1.225-.687-2.36-1.924-3.197zM18.426 5.37c.146 2.075-1.112 3.892-2.853 4.138h-.046c-.055 0-.11 0-.155.022a2.975 2.975 0 01-2.307-.888c.94-.983 1.477-2.459 1.368-4.062a5.533 5.533 0 00-.702-2.33 2.898 2.898 0 011.158-.375c1.787-.182 3.382 1.38 3.537 3.496z" /><path d="M20.73 14.63c-.077 1.027-.671 1.916-1.667 2.52-.958.581-2.165.857-3.363.825.69-.688 1.092-1.545 1.169-2.455.096-1.312-.47-2.572-1.6-3.577a7.718 7.718 0 00-2.204-1.333c2.118-.677 4.781-.222 6.42 1.238.88.783 1.33 1.767 1.245 2.783z" /></svg>