<svg xmlns="http://www.w3.org/2000/svg" aria-hidden="true" width="25" height="24"><g clip-path="url(#prefix__icon-notice_clip0_106_3628)"><path d="M11.921 23.922H9.543a1.29 1.29 0 01-.609-.152 1.201 1.201 0 01-.45-.417l-2.81-4.408a3.03 3.03 0 01-.444-1.16H8.26a5.346 5.346 0 011.91.347l.518 3.191c.085.174.213.325.375.44.161.116.35.192.55.223l.406.068c.153.023.29.1.386.212a.553.553 0 01.131.402v.674a.553.553 0 01-.18.41.622.622 0 01-.435.17zm6.778-2.32h-.727c-.318 0-.625-.12-.862-.337l-3.697-3.423c-1.371-1.297-3.232-2.032-5.176-2.041H3.91c-.98 0-1.92-.367-2.614-1.02a3.379 3.379 0 01-1.083-2.46V9.998c0-.922.39-1.808 1.083-2.46a3.815 3.815 0 012.614-1.02h4.326c.969.004 1.93-.175 2.836-.527a7.4 7.4 0 002.401-1.515l3.697-3.423c.229-.214.54-.336.862-.336h.666c.327 0 .64.122.871.34.231.217.361.512.361.82v18.563c0 .308-.13.603-.36.82-.239.221-.55.342-.872.34zm4.713-7.468a.634.634 0 01-.462-.19l-.887-.835a.55.55 0 01-.073-.731c.262-.372.404-.818.406-1.276 0-.454-.142-.897-.406-1.276a.554.554 0 01.073-.732l.888-.835a.647.647 0 01.444-.173h.036c.172.017.33.1.444.231.634.797.982 1.79.986 2.814a4.547 4.547 0 01-.986 2.813.666.666 0 01-.462.19z"/></g><defs><clipPath id="prefix__icon-notice_clip0_106_3628"><path transform="translate(0 .5)" d="M0 0h25v24H0z"/></clipPath></defs></svg>