<svg xmlns="http://www.w3.org/2000/svg" aria-hidden="true" width="21" height="21"><g clip-path="url(#prefix__icon-promo-2_clip0_127_2735)"><path d="M19.779 11.039a.563.563 0 010-.517L20.553 9a1.7 1.7 0 00-.779-2.3l-1.56-.795a.586.586 0 01-.317-.418l-.305-1.669a1.796 1.796 0 00-2.04-1.422l-1.747.238a.626.626 0 01-.512-.16l-1.27-1.178a1.86 1.86 0 00-2.521 0l-1.27 1.178a.626.626 0 01-.512.16l-1.747-.238a1.796 1.796 0 00-2.04 1.422l-.304 1.67a.586.586 0 01-.317.417L1.75 6.7A1.699 1.699 0 00.973 9l.775 1.523a.565.565 0 010 .517L.973 12.56a1.698 1.698 0 00.778 2.3l1.56.795a.586.586 0 01.318.418l.305 1.669a1.785 1.785 0 001.78 1.44c.087 0 .173-.007.26-.018l1.748-.238a.625.625 0 01.512.16l1.27 1.178a1.86 1.86 0 002.52 0l1.269-1.178a.627.627 0 01.512-.16l1.75.238a1.796 1.796 0 002.038-1.422l.306-1.67a.588.588 0 01.317-.417l1.56-.794a1.698 1.698 0 00.78-2.3l-.777-1.523zM8.462 5.602a2.11 2.11 0 110 4.22 2.11 2.11 0 010-4.22zM7.37 14.985a.575.575 0 01-.812-.812l7.596-7.597a.575.575 0 01.813.812L7.37 14.985zm5.692.974a2.11 2.11 0 110-4.22 2.11 2.11 0 010 4.22z" /></g><defs><clipPath id="prefix__icon-promo-2_clip0_127_2735"><path transform="translate(.786 .803)" d="M0 0h19.954v19.954H0z"/></clipPath></defs></svg>