<svg xmlns="http://www.w3.org/2000/svg" aria-hidden="true" width="21" height="21"><path d="M15.83.644V1.82c.447 0 .887-.02 1.325.007.306.018.625.056.912.16 1.054.384 1.663 1.502 1.46 2.625a2.35 2.35 0 01-2.274 1.912c-.467.003-.933 0-1.422 0-.048 1.755-.74 3.175-2.157 4.202-.955.693-2.038.993-3.21.922-2.798-.17-4.827-2.557-4.77-5.124-.46 0-.919-.002-1.378.001-.37.003-.72-.082-1.05-.245-.955-.472-1.487-1.579-1.25-2.602.248-1.079 1.167-1.84 2.243-1.856.473-.006.946-.001 1.443-.001V.644h10.127zm-10.136 4.7V3c-.506 0-.999-.02-1.49.005-.598.03-1.068.557-1.072 1.16-.004.598.45 1.136 1.035 1.172.502.031 1.009.007 1.527.007zm10.14.005c.468 0 .926.003 1.385 0a1.17 1.17 0 001.18-1.174c0-.652-.512-1.168-1.179-1.178-.414-.005-.83-.002-1.244 0-.049 0-.098.009-.142.013v2.339zM3.91 20.712v-1.174h1.166v-3.517H16.45v3.51h1.173v1.18H3.91zm4.683-2.368h4.34v-1.145h-4.34v1.145zm4.207-5.85a6.282 6.282 0 01-4.07 0l-.402 2.326h4.877l-.404-2.327z" /></svg>