<svg xmlns="http://www.w3.org/2000/svg" aria-hidden="true" width="24" height="24"><g clip-path="url(#prefix__icon-service_clip0_106_3702)" fill="currentColor"><path d="M21.194 10.165c-.447 0-.815-.332-.815-.738 0-4.11-3.694-7.45-8.234-7.45s-8.233 3.34-8.233 7.45c0 .406-.367.738-.815.738-.448 0-.816-.332-.816-.738C2.281 4.508 6.71.5 12.145.5c5.436 0 9.864 4.008 9.864 8.927 0 .42-.367.738-.815.738z"/><path d="M4.727 17.862h-.83c-1.983 0-3.582-1.447-3.582-3.226v-2.72c0-1.765 1.6-3.227 3.565-3.227h.831c.448 0 .816.333.816.738v7.698c.016.405-.352.737-.8.737zm15.684 0h-.832c-.447 0-.815-.332-.815-.737V9.427c0-.405.368-.738.815-.738h.832c1.966 0 3.565 1.447 3.565 3.227v2.72c0 1.78-1.599 3.226-3.565 3.226z"/><path d="M14.128 22.362c-.448 0-.816-.332-.816-.737 0-.406.368-.738.816-.738 2.142 0 3.724-.463 4.716-1.375 1.102-1.013 1.086-2.228 1.086-2.286-.015-.405.352-.738.8-.752.447-.015.815.304.831.709 0 .072.048 1.867-1.518 3.341-1.311 1.216-3.294 1.838-5.915 1.838z"/><path d="M14.383 22.174c0 .42-.368.752-.832.752H10.77c-.463 0-.831-.332-.831-.752v-1.07c0-.42.368-.753.831-.753h2.798c.464 0 .832.333.832.752l-.016 1.071z"/></g><defs><clipPath id="prefix__icon-service_clip0_106_3702"><path transform="translate(0 .5)" d="M0 0h24v23H0z"/></clipPath></defs></svg>