<svg xmlns="http://www.w3.org/2000/svg" aria-hidden="true" width="12" height="13"><g clip-path="url(#prefix__icon-side-arrow_clip0_127_3547)"><path d="M6 12.616c3.282 0 6-2.724 6-6 0-3.283-2.724-6-6.006-6C2.718.616 0 3.333 0 6.616c0 3.276 2.724 6 6 6zM4.606 9.622a.458.458 0 010-.653L7.1 6.622 4.606 4.28a.448.448 0 01.006-.653c.176-.17.459-.152.647.024l2.523 2.37a.826.826 0 010 1.2L5.26 9.599c-.17.165-.488.177-.653.024z"/></g><defs><clipPath id="prefix__icon-side-arrow_clip0_127_3547"><path transform="translate(0 .616)" d="M0 0h12v12H0z"/></clipPath></defs></svg>