<svg xmlns="http://www.w3.org/2000/svg" aria-hidden="true" viewBox="0 0 21 21" width="21" height="21"><path d="M18.554 20.917H2.306c-.05-.014-.099-.03-.148-.042a1.742 1.742 0 01-1.289-1.18c-.034-.097-.056-.198-.083-.298V7.861c.238.056.48.093.723.111 5.599.006 11.196.008 16.793.005a.598.598 0 01.68.68v2.085c0 .063-.006.125-.01.197h-.229c-.929 0-1.857-.01-2.786.003a3.504 3.504 0 00.13 7.01c.89.003 1.779 0 2.669 0h.227v.208c0 .663-.013 1.326.006 1.987a.723.723 0 01-.435.77zm2.182-7.834a1.279 1.279 0 00-1.43-.98c-1.057.025-2.114.004-3.17.008-.168 0-.336.013-.501.04a2.335 2.335 0 00.347 4.63c1.2.015 2.4.007 3.6 0a1.079 1.079 0 00.917-.468c.095-.16.175-.33.241-.504l-.004-2.726zm-4.664 1.947a.584.584 0 11-.026-1.17.584.584 0 01.026 1.171zM9.24.963a.655.655 0 01-.107.036 2.926 2.926 0 101.275.082c-.154-.045-.311-.08-.467-.118H9.24zm.934 2.916a.584.584 0 11-1.17.015.584.584 0 011.172-.015h-.002zM.786 6.38a.729.729 0 00.765.435c1.647-.013 3.295-.006 4.941-.006h.18c-.231-.344-.464-.668-.673-1.01a.284.284 0 00-.285-.163c-1.39.006-2.776.013-4.163 0a.727.727 0 00-.765.435v.31zm17.027-.157a.574.574 0 00-.582-.581 550.604 550.604 0 00-3.834 0 .2.2 0 00-.147.055c-.246.367-.486.739-.723 1.104h5.288c-.002-.203.003-.39-.002-.578z" /></svg>