<svg xmlns="http://www.w3.org/2000/svg" width="48" height="48" viewBox="0 0 48 48" fill="none">
  <path d="M34 41H14C8 41 4 38 4 31V17C4 10 8 7 14 7H34C40 7 44 10 44 17V31C44 38 40 41 34 41Z" fill="#06B36A"/>
  <path d="M23.998 25.7438C22.318 25.7438 20.618 25.2239 19.318 24.1638L13.058 19.1638C12.7669 18.9111 12.5846 18.5557 12.5492 18.1718C12.5137 17.7879 12.6279 17.4052 12.8677 17.1034C13.1076 16.8016 13.4548 16.604 13.8368 16.552C14.2188 16.4999 14.6061 16.5973 14.918 16.8238L21.178 21.8238C22.698 23.0438 25.278 23.0438 26.798 21.8238L33.058 16.8238C33.698 16.3038 34.658 16.4038 35.158 17.0638C35.678 17.7038 35.578 18.6638 34.918 19.1638L28.658 24.1638C27.378 25.2239 25.678 25.7438 23.998 25.7438Z" fill="white"/>
</svg>