<svg width="100" height="50" viewBox="0 0 100 50" fill="none" xmlns="http://www.w3.org/2000/svg">
<path fill-rule="evenodd" clip-rule="evenodd" d="M25.6897 12.5431H49.2845L50.2904 8H78.7414L73.7586 38.6293H50.6035L50.4569 42H21L25.6897 12.5431ZM69.2153 20.3101H73.1723C72.928 17.8188 69.4943 13.1569 64.8191 12.6894C58.9568 12.1031 53.8275 14.6681 51.6294 20.8962C48.9916 28.3703 53.6835 34.3398 60.2757 34.5255C70.6809 34.8186 72.2928 24.1204 72.2928 24.1204H61.448V27.4911H66.8706C66.7241 28.6636 64.8191 30.9315 60.2757 30.7152C54.9997 30.4639 54.8532 26.0256 54.9997 24.1204C55.1463 22.2153 57.4911 15.7668 63.4997 16.2064C67.0171 16.4638 68.6292 18.4048 69.2153 20.3101ZM39.4654 15.1806L23.4913 37.6031H28.0344L32.5775 31.3013L42.3964 31.4479L44.7214 37.6031L46.0602 30.1289L40.4913 15.1806H39.4654ZM39.3189 22.2151H38.7326L35.2154 27.6375H41.0775L39.3189 22.2151Z" fill="currentColor"/>
</svg>
