<svg width="26" height="28" viewBox="0 0 26 28" fill="none" xmlns="http://www.w3.org/2000/svg">
<g id="noto:money-bag" clip-path="url(#clip0_341_1037)">
<g id="Ellipse 60" filter="url(#filter0_f_341_1037)">
<ellipse cx="12.5439" cy="20.5" rx="7.5" ry="1.5" fill="#FFDE7A"/>
</g>
<path id="Vector" d="M16.9169 9.85589C17.9129 9.63472 19.2102 8.64613 19.4076 8.15925C19.5234 7.87425 18.946 7.42894 18.7916 7.24933C18.4383 6.83964 18.5808 6.63777 18.7174 6.14941C18.8733 5.59425 18.5037 4.9812 17.9797 4.74073C17.4557 4.50027 16.8293 4.57597 16.3023 4.8105C15.7754 5.04503 15.3256 5.42206 14.8847 5.79316C14.5626 5.5898 14.049 4.69175 13.2178 5.27511C12.6433 5.67738 12.5914 6.55316 12.6656 7.2523C12.8393 8.86581 13.2371 9.703 13.9867 9.92862C14.9337 10.2136 15.9817 10.0637 16.9169 9.85589Z" fill="#FFCA28"/>
<path id="Vector_2" d="M18.5347 5.21423C18.4085 7.38884 16.2873 8.83166 15.2809 9.46697L15.9341 10.0281C15.9341 10.0281 16.3482 10.037 16.9152 9.85587C17.8875 9.54712 19.308 8.67431 19.406 8.15923C19.55 7.40962 18.7811 7.57291 18.6074 6.98064C18.5169 6.66744 19.0483 6.07517 18.5347 5.21423ZM14.8861 5.79462C14.8861 5.79462 14.5076 5.4072 14.227 5.23056C14.0875 5.4933 13.988 5.7783 13.9391 6.0722C13.8515 6.58876 13.9391 7.32205 14.1454 7.8683C14.178 7.95291 14.2998 7.93955 14.3131 7.85048C14.4912 6.67634 14.8861 5.79462 14.8861 5.79462Z" fill="#E2A610"/>
<path id="Vector_3" d="M12.241 9.6643C12.241 9.6643 7.61127 10.1645 5.52276 14.1842C3.43424 18.2039 5.20955 20.6413 7.08877 21.5289C8.96799 22.4166 13.7031 22.7298 16.7832 21.9995C19.8633 21.2691 20.6337 19.7551 20.4897 18.293C20.2804 16.1584 18.2973 14.8463 18.2973 14.8463C18.2973 14.8463 18.376 12.21 16.3305 10.4985C14.5151 8.97852 12.241 9.6643 12.241 9.6643Z" fill="#FFCA28"/>
<path id="Vector_4" d="M14.141 16.4287C13.1479 15.1759 11.9753 15.0081 11.5997 14.5584C11.3949 14.3135 11.2747 14.0656 11.3207 13.7583C11.3697 13.4317 11.7482 13.2061 12.0421 13.1512C12.385 13.0859 13.2029 13.12 13.8901 13.7746C14.0534 13.929 13.994 14.1695 13.9896 14.3847C13.9777 14.8463 14.6383 15.2946 15.1726 14.9087C15.7085 14.5213 15.2973 13.6588 14.9515 13.2403C14.6902 12.9241 13.7432 12.2279 12.5661 12.1181C12.235 12.0869 10.9036 11.8895 10.1347 13.3516C9.91349 13.7717 9.83185 14.787 10.9897 15.6449C11.2316 15.8245 12.4874 16.4628 12.8362 16.877C13.4404 17.5939 13.0262 18.2248 12.5542 18.3079C11.2672 18.5335 10.5384 17.8374 10.4033 17.4559C10.3068 17.1842 10.4078 16.8903 10.2831 16.635C10.1554 16.3723 9.89419 16.2684 9.6181 16.356C8.71263 16.6439 9.0006 17.634 9.40138 18.1788C9.83036 18.7621 10.3573 19.1139 10.9496 19.3069C13.1598 20.0268 14.2226 18.8898 14.4082 18.057C14.5447 17.447 14.5299 16.9185 14.141 16.4287Z" fill="#191F28"/>
<g id="Vector_5">
<path d="M13.6066 11.272C11.7259 15.2887 11.4023 20.3608 11.4023 20.3608L13.6066 11.272Z" fill="#191F28"/>
<path d="M13.6066 11.272C11.7259 15.2887 11.4023 20.3608 11.4023 20.3608" stroke="#191F28" stroke-width="0.742188" stroke-miterlimit="10"/>
</g>
<path id="Vector_6" d="M15.1671 8.74402C16.4199 9.15222 16.6975 10.2848 16.607 10.5935C16.4986 10.9557 15.1107 9.54558 13.0474 9.63019C12.326 9.65988 12.5353 9.21753 12.8693 8.96222C13.3102 8.62527 14.0509 8.38183 15.1671 8.74402Z" fill="#6D4C41"/>
<path id="Vector_7" d="M15.1671 8.74402C16.4199 9.15222 16.6975 10.2848 16.607 10.5935C16.4986 10.9557 15.1107 9.54558 13.0474 9.63019C12.326 9.65988 12.5353 9.21753 12.8693 8.96222C13.3102 8.62527 14.0509 8.38183 15.1671 8.74402Z" fill="#191F28"/>
<path id="Vector_8" d="M17.3666 12.737C17.5239 12.6287 18.0524 12.8157 18.2008 13.8503C18.2735 14.3565 18.2958 14.8463 18.2958 14.8463C18.2958 14.8463 17.6724 14.2867 17.466 13.8934C17.2063 13.3961 17.1053 12.9152 17.3666 12.737Z" fill="#E2A610"/>
</g>
<defs>
<filter id="filter0_f_341_1037" x="-1.95605" y="12" width="29" height="17" filterUnits="userSpaceOnUse" color-interpolation-filters="sRGB">
<feFlood flood-opacity="0" result="BackgroundImageFix"/>
<feBlend mode="normal" in="SourceGraphic" in2="BackgroundImageFix" result="shape"/>
<feGaussianBlur stdDeviation="3.5" result="effect1_foregroundBlur_341_1037"/>
</filter>
<clipPath id="clip0_341_1037">
<rect width="25" height="28" fill="white" transform="translate(0.0439453)"/>
</clipPath>
</defs>
</svg>
