<svg width="48" height="48" viewBox="0 0 48 48" fill="none" xmlns="http://www.w3.org/2000/svg">
<g id="icon">
<path id="Subtract" fill-rule="evenodd" clip-rule="evenodd" d="M34.3923 11.8092H40.1905C42.2944 11.8092 44 13.5148 44 15.6188V38.4759C44 40.5799 42.2944 42.2854 40.1905 42.2854H7.80952C5.70558 42.2854 4 40.5799 4 38.4759V15.6188C4 13.5148 5.70558 11.8092 7.80952 11.8092H13.6077C15.4134 7.8749 19.3876 5.14258 24 5.14258C28.6124 5.14258 32.5866 7.8749 34.3923 11.8092ZM7.80951 21.8094C7.80951 21.5464 8.02271 21.3332 8.2857 21.3332H16.8571C17.1201 21.3332 17.3333 21.5464 17.3333 21.8094V35.1427C17.3333 35.4057 17.1201 35.6189 16.8571 35.6189H8.2857C8.02271 35.6189 7.80951 35.4057 7.80951 35.1427V21.8094ZM12.3849 25.2847C12.4436 25.0954 12.6992 25.0954 12.7579 25.2847L13.298 27.026C13.3242 27.1107 13.3995 27.168 13.4845 27.168H15.2321C15.422 27.168 15.501 27.4228 15.3473 27.5398L13.9335 28.616C13.8648 28.6683 13.836 28.761 13.8623 28.8457L14.4023 30.5871C14.461 30.7764 14.2542 30.9338 14.1005 30.8168L12.6867 29.7406C12.618 29.6883 12.5249 29.6883 12.4561 29.7406L11.0423 30.8168C10.8886 30.9338 10.6818 30.7764 10.7405 30.5871L11.2805 28.8457C11.3068 28.761 11.278 28.6683 11.2093 28.616L9.79549 27.5398C9.64179 27.4228 9.72078 27.168 9.91078 27.168H11.6583C11.7433 27.168 11.8186 27.1107 11.8449 27.026L12.3849 25.2847ZM19.7143 21.3332C19.4513 21.3332 19.2381 21.5464 19.2381 21.8094V35.1427C19.2381 35.4057 19.4513 35.6189 19.7143 35.6189H28.2857C28.5487 35.6189 28.7619 35.4057 28.7619 35.1427V21.8094C28.7619 21.5464 28.5487 21.3332 28.2857 21.3332H19.7143ZM24.2487 24.3796C24.1704 24.1272 23.8296 24.1272 23.7513 24.3796L23.0313 26.7014C22.9963 26.8143 22.8959 26.8908 22.7826 26.8908H20.4525C20.1992 26.8908 20.0938 27.2304 20.2988 27.3864L22.1839 28.8213C22.2755 28.8911 22.3139 29.0148 22.2789 29.1277L21.5588 31.4495C21.4805 31.7019 21.7563 31.9118 21.9612 31.7558L23.8463 30.3208C23.938 30.2511 24.0621 30.2511 24.1537 30.3208L26.0388 31.7558C26.2437 31.9118 26.5195 31.7019 26.4412 31.4495L25.7212 29.1277C25.6862 29.0148 25.7245 28.8911 25.8162 28.8213L27.7012 27.3864C27.9062 27.2304 27.8009 26.8908 27.5475 26.8908H25.2175C25.1042 26.8908 25.0038 26.8143 24.9687 26.7014L24.2487 24.3796ZM30.6667 21.8094C30.6667 21.5464 30.8799 21.3332 31.1429 21.3332H39.7143C39.9773 21.3332 40.1905 21.5464 40.1905 21.8094V35.1427C40.1905 35.4057 39.9773 35.6189 39.7143 35.6189H31.1429C30.8799 35.6189 30.6667 35.4057 30.6667 35.1427V21.8094ZM35.242 25.2847C35.3008 25.0954 35.5564 25.0954 35.6151 25.2847L36.1551 27.026C36.1814 27.1107 36.2567 27.168 36.3417 27.168H38.0892C38.2792 27.168 38.3582 27.4228 38.2045 27.5398L36.7907 28.616C36.7219 28.6683 36.6932 28.761 36.7194 28.8457L37.2595 30.5871C37.3182 30.7764 37.1114 30.9338 36.9577 30.8168L35.5439 29.7406C35.4751 29.6883 35.382 29.6883 35.3133 29.7406L33.8995 30.8168C33.7458 30.9338 33.539 30.7764 33.5977 30.5871L34.1377 28.8457C34.164 28.761 34.1352 28.6683 34.0665 28.616L32.6527 27.5398C32.4989 27.4228 32.5779 27.168 32.7679 27.168H34.5155C34.6005 27.168 34.6758 27.1107 34.702 27.026L35.242 25.2847Z" fill="#61A9FF"/>
</g>
</svg>
