<svg width="48" height="48" viewBox="0 0 48 48" fill="none" xmlns="http://www.w3.org/2000/svg">
<g id="icon">
<g id="icon_2">
<path id="Subtract" fill-rule="evenodd" clip-rule="evenodd" d="M44.8004 29.9998V31.9998C44.8004 38.2398 40.6404 42.3998 34.4004 42.3998H14.7837C17.8704 41.0867 20.0008 38.2949 20.0008 35.0637V29.7357V22.5356C20.0008 20.2892 18.9675 18.259 17.3115 16.7758C15.6414 15.307 13.3485 14.3998 10.8008 14.3998C7.64314 14.3998 4.8572 15.8066 3.20038 17.95V15.1998C3.20038 9.5422 6.61158 5.5902 11.9156 4.9246C12.4564 4.8414 13.018 4.7998 13.6004 4.7998H34.4004C34.9412 4.7998 35.4612 4.82058 35.9604 4.90378C41.3268 5.52778 44.8004 9.5006 44.8004 15.1998V16.9998H36.4C32.88 16.9998 30 19.9248 30 23.4998C30 27.0748 32.88 29.9998 36.4 29.9998H44.8004Z" fill="#61A9FF"/>
<path id="Vector" opacity="0.4" d="M44.8004 18.3994H36.6404C33.6484 18.3994 31.2004 20.7394 31.2004 23.5994C31.2004 26.4594 33.6484 28.7994 36.6404 28.7994H44.8004" fill="#61A9FF"/>
<path id="Vector_2" d="M18.4004 30.3994V34.5149C18.4004 37.9853 14.8189 40.7994 10.4004 40.7994C5.98193 40.7994 2.40039 37.9853 2.40039 34.5149V30.3994C2.40039 33.8698 5.98193 36.3502 10.4004 36.3502C14.8189 36.3502 18.4004 33.8698 18.4004 30.3994Z" fill="#61A9FF"/>
<path id="Vector_3" opacity="0.4" d="M18.4004 23.2002V29.3838C18.4004 33.2423 14.8189 36.0002 10.4004 36.0002C5.98193 36.0002 2.40039 33.2423 2.40039 29.3838V23.2002C2.40039 24.3256 2.70808 25.3644 3.24962 26.2549C4.56654 28.4315 7.27424 29.8166 10.4004 29.8166C13.5265 29.8166 16.2342 28.4315 17.5512 26.2549C18.0927 25.3644 18.4004 24.3256 18.4004 23.2002Z" fill="#61A9FF"/>
<path id="Vector_4" d="M18.4004 23.7853C18.4004 24.9104 18.0927 25.9489 17.5512 26.8391C16.2342 29.0151 13.5265 30.3998 10.4004 30.3998C7.27424 30.3998 4.56654 29.0151 3.24962 26.8391C2.70808 25.9489 2.40039 24.9104 2.40039 23.7853C2.40039 19.9278 5.98193 16.7998 10.4004 16.7998C12.6158 16.7998 14.6096 17.5787 16.0619 18.8398C17.5019 20.1133 18.4004 21.8565 18.4004 23.7853Z" fill="#61A9FF"/>
</g>
</g>
</svg>
