<svg width="40" height="34" viewBox="0 0 40 34" fill="none" xmlns="http://www.w3.org/2000/svg">
<path fill-rule="evenodd" clip-rule="evenodd" d="M10 34H30C36 34 40 31 40 24V10C40 3 36 0 30 0H10C4 0 0 3 0 10V24C0 31 4 34 10 34ZM15.3181 17.164C16.6181 18.224 18.3181 18.744 19.9981 18.744C21.6781 18.744 23.3781 18.224 24.6581 17.164L30.9181 12.164C31.5781 11.664 31.6781 10.704 31.1581 10.064C30.6581 9.40397 29.6981 9.30397 29.0581 9.82397L22.7981 14.824C21.2781 16.044 18.6981 16.044 17.1781 14.824L10.9181 9.82397C10.6062 9.59741 10.2189 9.50001 9.83688 9.55209C9.4549 9.60417 9.10776 9.8017 8.86787 10.1035C8.62798 10.4053 8.51386 10.788 8.54931 11.1719C8.58476 11.5558 8.76704 11.9112 9.05814 12.164L15.3181 17.164Z" fill="#43B5EC"/>
</svg>
