<svg width="702" height="65" viewBox="0 0 702 65" fill="none" xmlns="http://www.w3.org/2000/svg">
<path fill-rule="evenodd" clip-rule="evenodd" d="M20 4H682C690.837 4 698 11.1634 698 20V65H702V20C702 8.95431 693.046 0 682 0H20C8.95431 0 0 8.9543 0 20V65H4V20C4 11.1634 11.1634 4 20 4Z" fill="#5CA6FF"/>
<path d="M54 4V0H648V4C641 4 626.65 4 619 8.5C610.5 13.5 606 17 595 39.5C585.492 58.9483 569.5 64.1667 564 64.5H139C122 64.5 109.5 46.5 106.5 40.5C103.5 34.5 100.005 25.5052 89.5 14C79 2.5 64 4 54 4Z" fill="url(#paint0_linear_1_74559)"/>
<circle cx="26" cy="33" r="5" fill="#5CA6FF"/>
<circle cx="5" cy="5" r="5" transform="matrix(-1 0 0 1 671 28)" fill="#5CA6FF"/>
<defs>
<linearGradient id="paint0_linear_1_74559" x1="351" y1="0" x2="351" y2="64.5" gradientUnits="userSpaceOnUse">
<stop stop-color="#2AAAF3"/>
<stop offset="1" stop-color="#297AF2"/>
</linearGradient>
</defs>
</svg>
