<svg xmlns="http://www.w3.org/2000/svg" width="60" height="61" viewBox="0 0 60 61" fill="none">
  <path opacity="0.4" d="M42.5 51.7266H17.5C10 51.7266 5 47.9766 5 39.2266V21.7266C5 12.9766 10 9.22656 17.5 9.22656H42.5C50 9.22656 55 12.9766 55 21.7266V39.2266C55 47.9766 50 51.7266 42.5 51.7266Z" fill="#4781FF"/>
  <path d="M29.9977 32.6564C27.8977 32.6564 25.7727 32.0064 24.1477 30.6814L16.3227 24.4314C15.9588 24.1154 15.731 23.6712 15.6866 23.1913C15.6423 22.7115 15.785 22.233 16.0848 21.8558C16.3847 21.4785 16.8186 21.2316 17.2961 21.1665C17.7736 21.1014 18.2578 21.2232 18.6477 21.5064L26.4727 27.7564C28.3727 29.2814 31.5977 29.2814 33.4977 27.7564L41.3227 21.5064C42.1227 20.8564 43.3227 20.9814 43.9477 21.8064C44.5977 22.6064 44.4727 23.8064 43.6477 24.4314L35.8227 30.6814C34.2227 32.0064 32.0977 32.6564 29.9977 32.6564Z" fill="#4781FF"/>
</svg>